<?xml version="1.0" encoding="utf-8" standalone="no"?>
<!DOCTYPE svg PUBLIC "-//W3C//DTD SVG 1.1//EN"
  "http://www.w3.org/Graphics/SVG/1.1/DTD/svg11.dtd">
<svg xmlns:xlink="http://www.w3.org/1999/xlink" width="1022.4pt" height="590.4pt" viewBox="0 0 1022.4 590.4" xmlns="http://www.w3.org/2000/svg" version="1.1">
 <metadata>
  <rdf:RDF xmlns:dc="http://purl.org/dc/elements/1.1/" xmlns:cc="http://creativecommons.org/ns#" xmlns:rdf="http://www.w3.org/1999/02/22-rdf-syntax-ns#">
   <cc:Work>
    <dc:type rdf:resource="http://purl.org/dc/dcmitype/StillImage"/>
    <dc:date>2026-03-19T14:52:25.520024</dc:date>
    <dc:format>image/svg+xml</dc:format>
    <dc:creator>
     <cc:Agent>
      <dc:title>Matplotlib v3.10.8, https://matplotlib.org/</dc:title>
     </cc:Agent>
    </dc:creator>
   </cc:Work>
  </rdf:RDF>
 </metadata>
 <defs>
  <style type="text/css">*{stroke-linejoin: round; stroke-linecap: butt}</style>
 </defs>
 <g id="figure_1">
  <g id="patch_1">
   <path d="M 0 590.4 
L 1022.4 590.4 
L 1022.4 0 
L 0 0 
z
" style="fill: #ffffff"/>
  </g>
  <g id="axes_1">
   <g id="patch_2">
    <path d="M 33.408 572.832 
L 988.992 572.832 
Q 1007.136 572.832 1007.136 562.464 
L 1007.136 27.936 
Q 1007.136 17.568 988.992 17.568 
L 33.408 17.568 
Q 15.264 17.568 15.264 27.936 
L 15.264 562.464 
Q 15.264 572.832 33.408 572.832 
z
" clip-path="url(#pfe260e67ae)" style="fill: #ffffff; stroke: #d7deea; stroke-linejoin: miter"/>
   </g>
   <g id="patch_3">
    <path d="M 404.352 161.568 
L 618.048 161.568 
Q 630.144 161.568 630.144 154.656 
L 630.144 116.064 
Q 630.144 109.152 618.048 109.152 
L 404.352 109.152 
Q 392.256 109.152 392.256 116.064 
L 392.256 154.656 
Q 392.256 161.568 404.352 161.568 
z
" clip-path="url(#pfe260e67ae)" style="fill: #eaf1fb; stroke: #1f365c; stroke-width: 1.5; stroke-linejoin: miter"/>
   </g>
   <g id="patch_4">
    <path d="M 115.644 213.408 
L 129.756 213.408 
L 122.7 222.624 
z
" clip-path="url(#pfe260e67ae)" style="fill: #64748b; stroke: #64748b; stroke-linejoin: miter"/>
   </g>
   <g id="patch_5">
    <path d="M 62.64 507.168 
L 182.76 507.168 
Q 200.904 507.168 200.904 496.8 
L 200.904 226.08 
Q 200.904 215.712 182.76 215.712 
L 62.64 215.712 
Q 44.496 215.712 44.496 226.08 
L 44.496 496.8 
Q 44.496 507.168 62.64 507.168 
z
" clip-path="url(#pfe260e67ae)" style="fill: #ffffff; stroke: #4a78b5; stroke-width: 1.2; stroke-linejoin: miter"/>
   </g>
   <g id="patch_6">
    <path d="M 62.64 296.928 
L 182.76 296.928 
Q 200.904 296.928 200.904 286.56 
L 200.904 226.08 
Q 200.904 215.712 182.76 215.712 
L 62.64 215.712 
Q 44.496 215.712 44.496 226.08 
L 44.496 286.56 
Q 44.496 296.928 62.64 296.928 
z
" clip-path="url(#pfe260e67ae)" style="fill: #f7f9fc"/>
   </g>
   <g id="patch_7">
    <path d="M 271.044 213.408 
L 285.156 213.408 
L 278.1 222.624 
z
" clip-path="url(#pfe260e67ae)" style="fill: #64748b; stroke: #64748b; stroke-linejoin: miter"/>
   </g>
   <g id="patch_8">
    <path d="M 218.04 507.168 
L 338.16 507.168 
Q 356.304 507.168 356.304 496.8 
L 356.304 226.08 
Q 356.304 215.712 338.16 215.712 
L 218.04 215.712 
Q 199.896 215.712 199.896 226.08 
L 199.896 496.8 
Q 199.896 507.168 218.04 507.168 
z
" clip-path="url(#pfe260e67ae)" style="fill: #ffffff; stroke: #4a78b5; stroke-width: 1.2; stroke-linejoin: miter"/>
   </g>
   <g id="patch_9">
    <path d="M 218.04 296.928 
L 338.16 296.928 
Q 356.304 296.928 356.304 286.56 
L 356.304 226.08 
Q 356.304 215.712 338.16 215.712 
L 218.04 215.712 
Q 199.896 215.712 199.896 226.08 
L 199.896 286.56 
Q 199.896 296.928 218.04 296.928 
z
" clip-path="url(#pfe260e67ae)" style="fill: #f7f9fc"/>
   </g>
   <g id="patch_10">
    <path d="M 426.444 213.408 
L 440.556 213.408 
L 433.5 222.624 
z
" clip-path="url(#pfe260e67ae)" style="fill: #64748b; stroke: #64748b; stroke-linejoin: miter"/>
   </g>
   <g id="patch_11">
    <path d="M 373.44 507.168 
L 493.56 507.168 
Q 511.704 507.168 511.704 496.8 
L 511.704 226.08 
Q 511.704 215.712 493.56 215.712 
L 373.44 215.712 
Q 355.296 215.712 355.296 226.08 
L 355.296 496.8 
Q 355.296 507.168 373.44 507.168 
z
" clip-path="url(#pfe260e67ae)" style="fill: #ffffff; stroke: #4a78b5; stroke-width: 1.2; stroke-linejoin: miter"/>
   </g>
   <g id="patch_12">
    <path d="M 373.44 296.928 
L 493.56 296.928 
Q 511.704 296.928 511.704 286.56 
L 511.704 226.08 
Q 511.704 215.712 493.56 215.712 
L 373.44 215.712 
Q 355.296 215.712 355.296 226.08 
L 355.296 286.56 
Q 355.296 296.928 373.44 296.928 
z
" clip-path="url(#pfe260e67ae)" style="fill: #f7f9fc"/>
   </g>
   <g id="patch_13">
    <path d="M 581.844 213.408 
L 595.956 213.408 
L 588.9 222.624 
z
" clip-path="url(#pfe260e67ae)" style="fill: #64748b; stroke: #64748b; stroke-linejoin: miter"/>
   </g>
   <g id="patch_14">
    <path d="M 528.84 507.168 
L 648.96 507.168 
Q 667.104 507.168 667.104 496.8 
L 667.104 226.08 
Q 667.104 215.712 648.96 215.712 
L 528.84 215.712 
Q 510.696 215.712 510.696 226.08 
L 510.696 496.8 
Q 510.696 507.168 528.84 507.168 
z
" clip-path="url(#pfe260e67ae)" style="fill: #ffffff; stroke: #4a78b5; stroke-width: 1.2; stroke-linejoin: miter"/>
   </g>
   <g id="patch_15">
    <path d="M 528.84 296.928 
L 648.96 296.928 
Q 667.104 296.928 667.104 286.56 
L 667.104 226.08 
Q 667.104 215.712 648.96 215.712 
L 528.84 215.712 
Q 510.696 215.712 510.696 226.08 
L 510.696 286.56 
Q 510.696 296.928 528.84 296.928 
z
" clip-path="url(#pfe260e67ae)" style="fill: #f7f9fc"/>
   </g>
   <g id="patch_16">
    <path d="M 737.244 213.408 
L 751.356 213.408 
L 744.3 222.624 
z
" clip-path="url(#pfe260e67ae)" style="fill: #64748b; stroke: #64748b; stroke-linejoin: miter"/>
   </g>
   <g id="patch_17">
    <path d="M 684.24 507.168 
L 804.36 507.168 
Q 822.504 507.168 822.504 496.8 
L 822.504 226.08 
Q 822.504 215.712 804.36 215.712 
L 684.24 215.712 
Q 666.096 215.712 666.096 226.08 
L 666.096 496.8 
Q 666.096 507.168 684.24 507.168 
z
" clip-path="url(#pfe260e67ae)" style="fill: #ffffff; stroke: #4a78b5; stroke-width: 1.2; stroke-linejoin: miter"/>
   </g>
   <g id="patch_18">
    <path d="M 684.24 296.928 
L 804.36 296.928 
Q 822.504 296.928 822.504 286.56 
L 822.504 226.08 
Q 822.504 215.712 804.36 215.712 
L 684.24 215.712 
Q 666.096 215.712 666.096 226.08 
L 666.096 286.56 
Q 666.096 296.928 684.24 296.928 
z
" clip-path="url(#pfe260e67ae)" style="fill: #f7f9fc"/>
   </g>
   <g id="patch_19">
    <path d="M 892.644 213.408 
L 906.756 213.408 
L 899.7 222.624 
z
" clip-path="url(#pfe260e67ae)" style="fill: #64748b; stroke: #64748b; stroke-linejoin: miter"/>
   </g>
   <g id="patch_20">
    <path d="M 839.64 507.168 
L 959.76 507.168 
Q 977.904 507.168 977.904 496.8 
L 977.904 226.08 
Q 977.904 215.712 959.76 215.712 
L 839.64 215.712 
Q 821.496 215.712 821.496 226.08 
L 821.496 496.8 
Q 821.496 507.168 839.64 507.168 
z
" clip-path="url(#pfe260e67ae)" style="fill: #ffffff; stroke: #4a78b5; stroke-width: 1.2; stroke-linejoin: miter"/>
   </g>
   <g id="patch_21">
    <path d="M 839.64 296.928 
L 959.76 296.928 
Q 977.904 296.928 977.904 286.56 
L 977.904 226.08 
Q 977.904 215.712 959.76 215.712 
L 839.64 215.712 
Q 821.496 215.712 821.496 226.08 
L 821.496 286.56 
Q 821.496 296.928 839.64 296.928 
z
" clip-path="url(#pfe260e67ae)" style="fill: #f7f9fc"/>
   </g>
   <g id="line2d_1">
    <path d="M 92.88 182.88 
L 929.52 182.88 
" clip-path="url(#pfe260e67ae)" style="fill: none; stroke: #94a3b8; stroke-width: 1.2; stroke-linecap: square"/>
   </g>
   <g id="line2d_2">
    <path d="M 511.2 156.96 
L 511.2 182.88 
" clip-path="url(#pfe260e67ae)" style="fill: none; stroke: #94a3b8; stroke-width: 1.2; stroke-linecap: square"/>
   </g>
   <g id="line2d_3">
    <path d="M 122.7 182.88 
L 122.7 214.56 
" clip-path="url(#pfe260e67ae)" style="fill: none; stroke: #94a3b8; stroke-linecap: square"/>
   </g>
   <g id="line2d_4">
    <path d="M 52.56 292.32 
L 192.84 292.32 
" clip-path="url(#pfe260e67ae)" style="fill: none; stroke: #c9d7eb; stroke-linecap: square"/>
   </g>
   <g id="line2d_5">
    <path d="M 70.704 344.16 
L 174.696 344.16 
" clip-path="url(#pfe260e67ae)" style="fill: none; stroke: #d1d5db; stroke-width: 0.8; stroke-linecap: square"/>
   </g>
   <g id="line2d_6">
    <path d="M 70.704 391.968 
L 174.696 391.968 
" clip-path="url(#pfe260e67ae)" style="fill: none; stroke: #d1d5db; stroke-width: 0.8; stroke-linecap: square"/>
   </g>
   <g id="line2d_7">
    <path d="M 70.704 439.776 
L 174.696 439.776 
" clip-path="url(#pfe260e67ae)" style="fill: none; stroke: #d1d5db; stroke-width: 0.8; stroke-linecap: square"/>
   </g>
   <g id="line2d_8">
    <path d="M 278.1 182.88 
L 278.1 214.56 
" clip-path="url(#pfe260e67ae)" style="fill: none; stroke: #94a3b8; stroke-linecap: square"/>
   </g>
   <g id="line2d_9">
    <path d="M 207.96 292.32 
L 348.24 292.32 
" clip-path="url(#pfe260e67ae)" style="fill: none; stroke: #c9d7eb; stroke-linecap: square"/>
   </g>
   <g id="line2d_10">
    <path d="M 226.104 344.16 
L 330.096 344.16 
" clip-path="url(#pfe260e67ae)" style="fill: none; stroke: #d1d5db; stroke-width: 0.8; stroke-linecap: square"/>
   </g>
   <g id="line2d_11">
    <path d="M 226.104 391.968 
L 330.096 391.968 
" clip-path="url(#pfe260e67ae)" style="fill: none; stroke: #d1d5db; stroke-width: 0.8; stroke-linecap: square"/>
   </g>
   <g id="line2d_12">
    <path d="M 226.104 439.776 
L 330.096 439.776 
" clip-path="url(#pfe260e67ae)" style="fill: none; stroke: #d1d5db; stroke-width: 0.8; stroke-linecap: square"/>
   </g>
   <g id="line2d_13">
    <path d="M 433.5 182.88 
L 433.5 214.56 
" clip-path="url(#pfe260e67ae)" style="fill: none; stroke: #94a3b8; stroke-linecap: square"/>
   </g>
   <g id="line2d_14">
    <path d="M 363.36 292.32 
L 503.64 292.32 
" clip-path="url(#pfe260e67ae)" style="fill: none; stroke: #c9d7eb; stroke-linecap: square"/>
   </g>
   <g id="line2d_15">
    <path d="M 381.504 344.16 
L 485.496 344.16 
" clip-path="url(#pfe260e67ae)" style="fill: none; stroke: #d1d5db; stroke-width: 0.8; stroke-linecap: square"/>
   </g>
   <g id="line2d_16">
    <path d="M 381.504 391.968 
L 485.496 391.968 
" clip-path="url(#pfe260e67ae)" style="fill: none; stroke: #d1d5db; stroke-width: 0.8; stroke-linecap: square"/>
   </g>
   <g id="line2d_17">
    <path d="M 381.504 439.776 
L 485.496 439.776 
" clip-path="url(#pfe260e67ae)" style="fill: none; stroke: #d1d5db; stroke-width: 0.8; stroke-linecap: square"/>
   </g>
   <g id="line2d_18">
    <path d="M 588.9 182.88 
L 588.9 214.56 
" clip-path="url(#pfe260e67ae)" style="fill: none; stroke: #94a3b8; stroke-linecap: square"/>
   </g>
   <g id="line2d_19">
    <path d="M 518.76 292.32 
L 659.04 292.32 
" clip-path="url(#pfe260e67ae)" style="fill: none; stroke: #c9d7eb; stroke-linecap: square"/>
   </g>
   <g id="line2d_20">
    <path d="M 536.904 344.16 
L 640.896 344.16 
" clip-path="url(#pfe260e67ae)" style="fill: none; stroke: #d1d5db; stroke-width: 0.8; stroke-linecap: square"/>
   </g>
   <g id="line2d_21">
    <path d="M 536.904 391.968 
L 640.896 391.968 
" clip-path="url(#pfe260e67ae)" style="fill: none; stroke: #d1d5db; stroke-width: 0.8; stroke-linecap: square"/>
   </g>
   <g id="line2d_22">
    <path d="M 536.904 439.776 
L 640.896 439.776 
" clip-path="url(#pfe260e67ae)" style="fill: none; stroke: #d1d5db; stroke-width: 0.8; stroke-linecap: square"/>
   </g>
   <g id="line2d_23">
    <path d="M 744.3 182.88 
L 744.3 214.56 
" clip-path="url(#pfe260e67ae)" style="fill: none; stroke: #94a3b8; stroke-linecap: square"/>
   </g>
   <g id="line2d_24">
    <path d="M 674.16 292.32 
L 814.44 292.32 
" clip-path="url(#pfe260e67ae)" style="fill: none; stroke: #c9d7eb; stroke-linecap: square"/>
   </g>
   <g id="line2d_25">
    <path d="M 692.304 344.16 
L 796.296 344.16 
" clip-path="url(#pfe260e67ae)" style="fill: none; stroke: #d1d5db; stroke-width: 0.8; stroke-linecap: square"/>
   </g>
   <g id="line2d_26">
    <path d="M 692.304 391.968 
L 796.296 391.968 
" clip-path="url(#pfe260e67ae)" style="fill: none; stroke: #d1d5db; stroke-width: 0.8; stroke-linecap: square"/>
   </g>
   <g id="line2d_27">
    <path d="M 692.304 439.776 
L 796.296 439.776 
" clip-path="url(#pfe260e67ae)" style="fill: none; stroke: #d1d5db; stroke-width: 0.8; stroke-linecap: square"/>
   </g>
   <g id="line2d_28">
    <path d="M 899.7 182.88 
L 899.7 214.56 
" clip-path="url(#pfe260e67ae)" style="fill: none; stroke: #94a3b8; stroke-linecap: square"/>
   </g>
   <g id="line2d_29">
    <path d="M 829.56 292.32 
L 969.84 292.32 
" clip-path="url(#pfe260e67ae)" style="fill: none; stroke: #c9d7eb; stroke-linecap: square"/>
   </g>
   <g id="line2d_30">
    <path d="M 847.704 344.16 
L 951.696 344.16 
" clip-path="url(#pfe260e67ae)" style="fill: none; stroke: #d1d5db; stroke-width: 0.8; stroke-linecap: square"/>
   </g>
   <g id="line2d_31">
    <path d="M 847.704 391.968 
L 951.696 391.968 
" clip-path="url(#pfe260e67ae)" style="fill: none; stroke: #d1d5db; stroke-width: 0.8; stroke-linecap: square"/>
   </g>
   <g id="line2d_32">
    <path d="M 847.704 439.776 
L 951.696 439.776 
" clip-path="url(#pfe260e67ae)" style="fill: none; stroke: #d1d5db; stroke-width: 0.8; stroke-linecap: square"/>
   </g>
   <g id="text_1">
    <!-- Generative AI Security -->
    <g style="fill: #1f365c" transform="translate(358.569375 71.32875) scale(0.24 -0.24)">
     <defs>
      <path id="DejaVuSans-Bold-47" d="M 4781 347 
Q 4331 128 3847 18 
Q 3363 -91 2847 -91 
Q 1681 -91 1000 561 
Q 319 1213 319 2328 
Q 319 3456 1012 4103 
Q 1706 4750 2913 4750 
Q 3378 4750 3804 4662 
Q 4231 4575 4609 4403 
L 4609 3438 
Q 4219 3659 3833 3768 
Q 3447 3878 3059 3878 
Q 2341 3878 1952 3476 
Q 1563 3075 1563 2328 
Q 1563 1588 1938 1184 
Q 2313 781 3003 781 
Q 3191 781 3352 804 
Q 3513 828 3641 878 
L 3641 1784 
L 2906 1784 
L 2906 2591 
L 4781 2591 
L 4781 347 
z
" transform="scale(0.015625)"/>
      <path id="DejaVuSans-Bold-65" d="M 4031 1759 
L 4031 1441 
L 1416 1441 
Q 1456 1047 1700 850 
Q 1944 653 2381 653 
Q 2734 653 3104 758 
Q 3475 863 3866 1075 
L 3866 213 
Q 3469 63 3072 -14 
Q 2675 -91 2278 -91 
Q 1328 -91 801 392 
Q 275 875 275 1747 
Q 275 2603 792 3093 
Q 1309 3584 2216 3584 
Q 3041 3584 3536 3087 
Q 4031 2591 4031 1759 
z
M 2881 2131 
Q 2881 2450 2695 2645 
Q 2509 2841 2209 2841 
Q 1884 2841 1681 2658 
Q 1478 2475 1428 2131 
L 2881 2131 
z
" transform="scale(0.015625)"/>
      <path id="DejaVuSans-Bold-6e" d="M 4056 2131 
L 4056 0 
L 2931 0 
L 2931 347 
L 2931 1631 
Q 2931 2084 2911 2256 
Q 2891 2428 2841 2509 
Q 2775 2619 2662 2680 
Q 2550 2741 2406 2741 
Q 2056 2741 1856 2470 
Q 1656 2200 1656 1722 
L 1656 0 
L 538 0 
L 538 3500 
L 1656 3500 
L 1656 2988 
Q 1909 3294 2193 3439 
Q 2478 3584 2822 3584 
Q 3428 3584 3742 3212 
Q 4056 2841 4056 2131 
z
" transform="scale(0.015625)"/>
      <path id="DejaVuSans-Bold-72" d="M 3138 2547 
Q 2991 2616 2845 2648 
Q 2700 2681 2553 2681 
Q 2122 2681 1889 2404 
Q 1656 2128 1656 1613 
L 1656 0 
L 538 0 
L 538 3500 
L 1656 3500 
L 1656 2925 
Q 1872 3269 2151 3426 
Q 2431 3584 2822 3584 
Q 2878 3584 2943 3579 
Q 3009 3575 3134 3559 
L 3138 2547 
z
" transform="scale(0.015625)"/>
      <path id="DejaVuSans-Bold-61" d="M 2106 1575 
Q 1756 1575 1579 1456 
Q 1403 1338 1403 1106 
Q 1403 894 1545 773 
Q 1688 653 1941 653 
Q 2256 653 2472 879 
Q 2688 1106 2688 1447 
L 2688 1575 
L 2106 1575 
z
M 3816 1997 
L 3816 0 
L 2688 0 
L 2688 519 
Q 2463 200 2181 54 
Q 1900 -91 1497 -91 
Q 953 -91 614 226 
Q 275 544 275 1050 
Q 275 1666 698 1953 
Q 1122 2241 2028 2241 
L 2688 2241 
L 2688 2328 
Q 2688 2594 2478 2717 
Q 2269 2841 1825 2841 
Q 1466 2841 1156 2769 
Q 847 2697 581 2553 
L 581 3406 
Q 941 3494 1303 3539 
Q 1666 3584 2028 3584 
Q 2975 3584 3395 3211 
Q 3816 2838 3816 1997 
z
" transform="scale(0.015625)"/>
      <path id="DejaVuSans-Bold-74" d="M 1759 4494 
L 1759 3500 
L 2913 3500 
L 2913 2700 
L 1759 2700 
L 1759 1216 
Q 1759 972 1856 886 
Q 1953 800 2241 800 
L 2816 800 
L 2816 0 
L 1856 0 
Q 1194 0 917 276 
Q 641 553 641 1216 
L 641 2700 
L 84 2700 
L 84 3500 
L 641 3500 
L 641 4494 
L 1759 4494 
z
" transform="scale(0.015625)"/>
      <path id="DejaVuSans-Bold-69" d="M 538 3500 
L 1656 3500 
L 1656 0 
L 538 0 
L 538 3500 
z
M 538 4863 
L 1656 4863 
L 1656 3950 
L 538 3950 
L 538 4863 
z
" transform="scale(0.015625)"/>
      <path id="DejaVuSans-Bold-76" d="M 97 3500 
L 1216 3500 
L 2088 1081 
L 2956 3500 
L 4078 3500 
L 2700 0 
L 1472 0 
L 97 3500 
z
" transform="scale(0.015625)"/>
      <path id="DejaVuSans-Bold-20" transform="scale(0.015625)"/>
      <path id="DejaVuSans-Bold-41" d="M 3419 850 
L 1538 850 
L 1241 0 
L 31 0 
L 1759 4666 
L 3194 4666 
L 4922 0 
L 3713 0 
L 3419 850 
z
M 1838 1716 
L 3116 1716 
L 2478 3572 
L 1838 1716 
z
" transform="scale(0.015625)"/>
      <path id="DejaVuSans-Bold-49" d="M 588 4666 
L 1791 4666 
L 1791 0 
L 588 0 
L 588 4666 
z
" transform="scale(0.015625)"/>
      <path id="DejaVuSans-Bold-53" d="M 3834 4519 
L 3834 3531 
Q 3450 3703 3084 3790 
Q 2719 3878 2394 3878 
Q 1963 3878 1756 3759 
Q 1550 3641 1550 3391 
Q 1550 3203 1689 3098 
Q 1828 2994 2194 2919 
L 2706 2816 
Q 3484 2659 3812 2340 
Q 4141 2022 4141 1434 
Q 4141 663 3683 286 
Q 3225 -91 2284 -91 
Q 1841 -91 1394 -6 
Q 947 78 500 244 
L 500 1259 
Q 947 1022 1364 901 
Q 1781 781 2169 781 
Q 2563 781 2772 912 
Q 2981 1044 2981 1288 
Q 2981 1506 2839 1625 
Q 2697 1744 2272 1838 
L 1806 1941 
Q 1106 2091 782 2419 
Q 459 2747 459 3303 
Q 459 4000 909 4375 
Q 1359 4750 2203 4750 
Q 2588 4750 2994 4692 
Q 3400 4634 3834 4519 
z
" transform="scale(0.015625)"/>
      <path id="DejaVuSans-Bold-63" d="M 3366 3391 
L 3366 2478 
Q 3138 2634 2908 2709 
Q 2678 2784 2431 2784 
Q 1963 2784 1702 2511 
Q 1441 2238 1441 1747 
Q 1441 1256 1702 982 
Q 1963 709 2431 709 
Q 2694 709 2930 787 
Q 3166 866 3366 1019 
L 3366 103 
Q 3103 6 2833 -42 
Q 2563 -91 2291 -91 
Q 1344 -91 809 395 
Q 275 881 275 1747 
Q 275 2613 809 3098 
Q 1344 3584 2291 3584 
Q 2566 3584 2833 3536 
Q 3100 3488 3366 3391 
z
" transform="scale(0.015625)"/>
      <path id="DejaVuSans-Bold-75" d="M 500 1363 
L 500 3500 
L 1625 3500 
L 1625 3150 
Q 1625 2866 1622 2436 
Q 1619 2006 1619 1863 
Q 1619 1441 1641 1255 
Q 1663 1069 1716 984 
Q 1784 875 1895 815 
Q 2006 756 2150 756 
Q 2500 756 2700 1025 
Q 2900 1294 2900 1772 
L 2900 3500 
L 4019 3500 
L 4019 0 
L 2900 0 
L 2900 506 
Q 2647 200 2364 54 
Q 2081 -91 1741 -91 
Q 1134 -91 817 281 
Q 500 653 500 1363 
z
" transform="scale(0.015625)"/>
      <path id="DejaVuSans-Bold-79" d="M 78 3500 
L 1197 3500 
L 2138 1125 
L 2938 3500 
L 4056 3500 
L 2584 -331 
Q 2363 -916 2067 -1148 
Q 1772 -1381 1288 -1381 
L 641 -1381 
L 641 -647 
L 991 -647 
Q 1275 -647 1404 -556 
Q 1534 -466 1606 -231 
L 1638 -134 
L 78 3500 
z
" transform="scale(0.015625)"/>
     </defs>
     <use xlink:href="#DejaVuSans-Bold-47"/>
     <use xlink:href="#DejaVuSans-Bold-65" transform="translate(82.080078 0)"/>
     <use xlink:href="#DejaVuSans-Bold-6e" transform="translate(149.902344 0)"/>
     <use xlink:href="#DejaVuSans-Bold-65" transform="translate(221.09375 0)"/>
     <use xlink:href="#DejaVuSans-Bold-72" transform="translate(288.916016 0)"/>
     <use xlink:href="#DejaVuSans-Bold-61" transform="translate(338.232422 0)"/>
     <use xlink:href="#DejaVuSans-Bold-74" transform="translate(405.712891 0)"/>
     <use xlink:href="#DejaVuSans-Bold-69" transform="translate(453.515625 0)"/>
     <use xlink:href="#DejaVuSans-Bold-76" transform="translate(487.792969 0)"/>
     <use xlink:href="#DejaVuSans-Bold-65" transform="translate(552.978516 0)"/>
     <use xlink:href="#DejaVuSans-Bold-20" transform="translate(620.800781 0)"/>
     <use xlink:href="#DejaVuSans-Bold-41" transform="translate(655.615234 0)"/>
     <use xlink:href="#DejaVuSans-Bold-49" transform="translate(733.007812 0)"/>
     <use xlink:href="#DejaVuSans-Bold-20" transform="translate(770.214844 0)"/>
     <use xlink:href="#DejaVuSans-Bold-53" transform="translate(805.029297 0)"/>
     <use xlink:href="#DejaVuSans-Bold-65" transform="translate(877.050781 0)"/>
     <use xlink:href="#DejaVuSans-Bold-63" transform="translate(944.873047 0)"/>
     <use xlink:href="#DejaVuSans-Bold-75" transform="translate(1004.150391 0)"/>
     <use xlink:href="#DejaVuSans-Bold-72" transform="translate(1075.341797 0)"/>
     <use xlink:href="#DejaVuSans-Bold-69" transform="translate(1124.658203 0)"/>
     <use xlink:href="#DejaVuSans-Bold-74" transform="translate(1158.935547 0)"/>
     <use xlink:href="#DejaVuSans-Bold-79" transform="translate(1206.738281 0)"/>
    </g>
   </g>
   <g id="text_2">
    <!-- Generative Stack -->
    <g style="fill: #1f365c" transform="translate(428.860234 140.050938) scale(0.17 -0.17)">
     <defs>
      <path id="DejaVuSans-Bold-6b" d="M 538 4863 
L 1656 4863 
L 1656 2216 
L 2944 3500 
L 4244 3500 
L 2534 1894 
L 4378 0 
L 3022 0 
L 1656 1459 
L 1656 0 
L 538 0 
L 538 4863 
z
" transform="scale(0.015625)"/>
     </defs>
     <use xlink:href="#DejaVuSans-Bold-47"/>
     <use xlink:href="#DejaVuSans-Bold-65" transform="translate(82.080078 0)"/>
     <use xlink:href="#DejaVuSans-Bold-6e" transform="translate(149.902344 0)"/>
     <use xlink:href="#DejaVuSans-Bold-65" transform="translate(221.09375 0)"/>
     <use xlink:href="#DejaVuSans-Bold-72" transform="translate(288.916016 0)"/>
     <use xlink:href="#DejaVuSans-Bold-61" transform="translate(338.232422 0)"/>
     <use xlink:href="#DejaVuSans-Bold-74" transform="translate(405.712891 0)"/>
     <use xlink:href="#DejaVuSans-Bold-69" transform="translate(453.515625 0)"/>
     <use xlink:href="#DejaVuSans-Bold-76" transform="translate(487.792969 0)"/>
     <use xlink:href="#DejaVuSans-Bold-65" transform="translate(552.978516 0)"/>
     <use xlink:href="#DejaVuSans-Bold-20" transform="translate(620.800781 0)"/>
     <use xlink:href="#DejaVuSans-Bold-53" transform="translate(655.615234 0)"/>
     <use xlink:href="#DejaVuSans-Bold-74" transform="translate(727.636719 0)"/>
     <use xlink:href="#DejaVuSans-Bold-61" transform="translate(775.439453 0)"/>
     <use xlink:href="#DejaVuSans-Bold-63" transform="translate(842.919922 0)"/>
     <use xlink:href="#DejaVuSans-Bold-6b" transform="translate(902.197266 0)"/>
    </g>
   </g>
   <g id="text_3">
    <!-- Context Sources -->
    <g style="fill: #1f365c" transform="translate(58.029844 260.183125) scale(0.14 -0.14)">
     <defs>
      <path id="DejaVuSans-Bold-43" d="M 4288 256 
Q 3956 84 3597 -3 
Q 3238 -91 2847 -91 
Q 1681 -91 1000 561 
Q 319 1213 319 2328 
Q 319 3447 1000 4098 
Q 1681 4750 2847 4750 
Q 3238 4750 3597 4662 
Q 3956 4575 4288 4403 
L 4288 3438 
Q 3953 3666 3628 3772 
Q 3303 3878 2944 3878 
Q 2300 3878 1931 3465 
Q 1563 3053 1563 2328 
Q 1563 1606 1931 1193 
Q 2300 781 2944 781 
Q 3303 781 3628 887 
Q 3953 994 4288 1222 
L 4288 256 
z
" transform="scale(0.015625)"/>
      <path id="DejaVuSans-Bold-6f" d="M 2203 2784 
Q 1831 2784 1636 2517 
Q 1441 2250 1441 1747 
Q 1441 1244 1636 976 
Q 1831 709 2203 709 
Q 2569 709 2762 976 
Q 2956 1244 2956 1747 
Q 2956 2250 2762 2517 
Q 2569 2784 2203 2784 
z
M 2203 3584 
Q 3106 3584 3614 3096 
Q 4122 2609 4122 1747 
Q 4122 884 3614 396 
Q 3106 -91 2203 -91 
Q 1297 -91 786 396 
Q 275 884 275 1747 
Q 275 2609 786 3096 
Q 1297 3584 2203 3584 
z
" transform="scale(0.015625)"/>
      <path id="DejaVuSans-Bold-78" d="M 1422 1791 
L 159 3500 
L 1344 3500 
L 2059 2463 
L 2784 3500 
L 3969 3500 
L 2706 1797 
L 4031 0 
L 2847 0 
L 2059 1106 
L 1281 0 
L 97 0 
L 1422 1791 
z
" transform="scale(0.015625)"/>
      <path id="DejaVuSans-Bold-73" d="M 3272 3391 
L 3272 2541 
Q 2913 2691 2578 2766 
Q 2244 2841 1947 2841 
Q 1628 2841 1473 2761 
Q 1319 2681 1319 2516 
Q 1319 2381 1436 2309 
Q 1553 2238 1856 2203 
L 2053 2175 
Q 2913 2066 3209 1816 
Q 3506 1566 3506 1031 
Q 3506 472 3093 190 
Q 2681 -91 1863 -91 
Q 1516 -91 1145 -36 
Q 775 19 384 128 
L 384 978 
Q 719 816 1070 734 
Q 1422 653 1784 653 
Q 2113 653 2278 743 
Q 2444 834 2444 1013 
Q 2444 1163 2330 1236 
Q 2216 1309 1875 1350 
L 1678 1375 
Q 931 1469 631 1722 
Q 331 1975 331 2491 
Q 331 3047 712 3315 
Q 1094 3584 1881 3584 
Q 2191 3584 2531 3537 
Q 2872 3491 3272 3391 
z
" transform="scale(0.015625)"/>
     </defs>
     <use xlink:href="#DejaVuSans-Bold-43"/>
     <use xlink:href="#DejaVuSans-Bold-6f" transform="translate(73.388672 0)"/>
     <use xlink:href="#DejaVuSans-Bold-6e" transform="translate(142.089844 0)"/>
     <use xlink:href="#DejaVuSans-Bold-74" transform="translate(213.28125 0)"/>
     <use xlink:href="#DejaVuSans-Bold-65" transform="translate(261.083984 0)"/>
     <use xlink:href="#DejaVuSans-Bold-78" transform="translate(328.90625 0)"/>
     <use xlink:href="#DejaVuSans-Bold-74" transform="translate(393.408203 0)"/>
     <use xlink:href="#DejaVuSans-Bold-20" transform="translate(441.210938 0)"/>
     <use xlink:href="#DejaVuSans-Bold-53" transform="translate(476.025391 0)"/>
     <use xlink:href="#DejaVuSans-Bold-6f" transform="translate(548.046875 0)"/>
     <use xlink:href="#DejaVuSans-Bold-75" transform="translate(616.748047 0)"/>
     <use xlink:href="#DejaVuSans-Bold-72" transform="translate(687.939453 0)"/>
     <use xlink:href="#DejaVuSans-Bold-63" transform="translate(737.255859 0)"/>
     <use xlink:href="#DejaVuSans-Bold-65" transform="translate(796.533203 0)"/>
     <use xlink:href="#DejaVuSans-Bold-73" transform="translate(864.355469 0)"/>
    </g>
   </g>
   <g id="text_4">
    <!-- • -->
    <g style="fill: #4a78b5" transform="translate(66.672 328.139063) scale(0.15 -0.15)">
     <defs>
      <path id="DejaVuSans-Bold-2022" d="M 922 2381 
Q 922 2613 1005 2816 
Q 1088 3019 1247 3175 
Q 1413 3334 1616 3417 
Q 1819 3500 2047 3500 
Q 2275 3500 2479 3415 
Q 2684 3331 2841 3175 
Q 3003 3013 3086 2811 
Q 3169 2609 3169 2381 
Q 3169 2150 3084 1945 
Q 3000 1741 2841 1581 
Q 2681 1422 2476 1337 
Q 2272 1253 2041 1253 
Q 1813 1253 1609 1337 
Q 1406 1422 1247 1581 
Q 1091 1741 1006 1945 
Q 922 2150 922 2381 
z
" transform="scale(0.015625)"/>
     </defs>
     <use xlink:href="#DejaVuSans-Bold-2022"/>
    </g>
   </g>
   <g id="text_5">
    <!-- User prompts -->
    <g style="fill: #111827" transform="translate(82.8 326.924937) scale(0.106 -0.106)">
     <defs>
      <path id="DejaVuSans-55" d="M 556 4666 
L 1191 4666 
L 1191 1831 
Q 1191 1081 1462 751 
Q 1734 422 2344 422 
Q 2950 422 3222 751 
Q 3494 1081 3494 1831 
L 3494 4666 
L 4128 4666 
L 4128 1753 
Q 4128 841 3676 375 
Q 3225 -91 2344 -91 
Q 1459 -91 1007 375 
Q 556 841 556 1753 
L 556 4666 
z
" transform="scale(0.015625)"/>
      <path id="DejaVuSans-73" d="M 2834 3397 
L 2834 2853 
Q 2591 2978 2328 3040 
Q 2066 3103 1784 3103 
Q 1356 3103 1142 2972 
Q 928 2841 928 2578 
Q 928 2378 1081 2264 
Q 1234 2150 1697 2047 
L 1894 2003 
Q 2506 1872 2764 1633 
Q 3022 1394 3022 966 
Q 3022 478 2636 193 
Q 2250 -91 1575 -91 
Q 1294 -91 989 -36 
Q 684 19 347 128 
L 347 722 
Q 666 556 975 473 
Q 1284 391 1588 391 
Q 1994 391 2212 530 
Q 2431 669 2431 922 
Q 2431 1156 2273 1281 
Q 2116 1406 1581 1522 
L 1381 1569 
Q 847 1681 609 1914 
Q 372 2147 372 2553 
Q 372 3047 722 3315 
Q 1072 3584 1716 3584 
Q 2034 3584 2315 3537 
Q 2597 3491 2834 3397 
z
" transform="scale(0.015625)"/>
      <path id="DejaVuSans-65" d="M 3597 1894 
L 3597 1613 
L 953 1613 
Q 991 1019 1311 708 
Q 1631 397 2203 397 
Q 2534 397 2845 478 
Q 3156 559 3463 722 
L 3463 178 
Q 3153 47 2828 -22 
Q 2503 -91 2169 -91 
Q 1331 -91 842 396 
Q 353 884 353 1716 
Q 353 2575 817 3079 
Q 1281 3584 2069 3584 
Q 2775 3584 3186 3129 
Q 3597 2675 3597 1894 
z
M 3022 2063 
Q 3016 2534 2758 2815 
Q 2500 3097 2075 3097 
Q 1594 3097 1305 2825 
Q 1016 2553 972 2059 
L 3022 2063 
z
" transform="scale(0.015625)"/>
      <path id="DejaVuSans-72" d="M 2631 2963 
Q 2534 3019 2420 3045 
Q 2306 3072 2169 3072 
Q 1681 3072 1420 2755 
Q 1159 2438 1159 1844 
L 1159 0 
L 581 0 
L 581 3500 
L 1159 3500 
L 1159 2956 
Q 1341 3275 1631 3429 
Q 1922 3584 2338 3584 
Q 2397 3584 2469 3576 
Q 2541 3569 2628 3553 
L 2631 2963 
z
" transform="scale(0.015625)"/>
      <path id="DejaVuSans-20" transform="scale(0.015625)"/>
      <path id="DejaVuSans-70" d="M 1159 525 
L 1159 -1331 
L 581 -1331 
L 581 3500 
L 1159 3500 
L 1159 2969 
Q 1341 3281 1617 3432 
Q 1894 3584 2278 3584 
Q 2916 3584 3314 3078 
Q 3713 2572 3713 1747 
Q 3713 922 3314 415 
Q 2916 -91 2278 -91 
Q 1894 -91 1617 61 
Q 1341 213 1159 525 
z
M 3116 1747 
Q 3116 2381 2855 2742 
Q 2594 3103 2138 3103 
Q 1681 3103 1420 2742 
Q 1159 2381 1159 1747 
Q 1159 1113 1420 752 
Q 1681 391 2138 391 
Q 2594 391 2855 752 
Q 3116 1113 3116 1747 
z
" transform="scale(0.015625)"/>
      <path id="DejaVuSans-6f" d="M 1959 3097 
Q 1497 3097 1228 2736 
Q 959 2375 959 1747 
Q 959 1119 1226 758 
Q 1494 397 1959 397 
Q 2419 397 2687 759 
Q 2956 1122 2956 1747 
Q 2956 2369 2687 2733 
Q 2419 3097 1959 3097 
z
M 1959 3584 
Q 2709 3584 3137 3096 
Q 3566 2609 3566 1747 
Q 3566 888 3137 398 
Q 2709 -91 1959 -91 
Q 1206 -91 779 398 
Q 353 888 353 1747 
Q 353 2609 779 3096 
Q 1206 3584 1959 3584 
z
" transform="scale(0.015625)"/>
      <path id="DejaVuSans-6d" d="M 3328 2828 
Q 3544 3216 3844 3400 
Q 4144 3584 4550 3584 
Q 5097 3584 5394 3201 
Q 5691 2819 5691 2113 
L 5691 0 
L 5113 0 
L 5113 2094 
Q 5113 2597 4934 2840 
Q 4756 3084 4391 3084 
Q 3944 3084 3684 2787 
Q 3425 2491 3425 1978 
L 3425 0 
L 2847 0 
L 2847 2094 
Q 2847 2600 2669 2842 
Q 2491 3084 2119 3084 
Q 1678 3084 1418 2786 
Q 1159 2488 1159 1978 
L 1159 0 
L 581 0 
L 581 3500 
L 1159 3500 
L 1159 2956 
Q 1356 3278 1631 3431 
Q 1906 3584 2284 3584 
Q 2666 3584 2933 3390 
Q 3200 3197 3328 2828 
z
" transform="scale(0.015625)"/>
      <path id="DejaVuSans-74" d="M 1172 4494 
L 1172 3500 
L 2356 3500 
L 2356 3053 
L 1172 3053 
L 1172 1153 
Q 1172 725 1289 603 
Q 1406 481 1766 481 
L 2356 481 
L 2356 0 
L 1766 0 
Q 1100 0 847 248 
Q 594 497 594 1153 
L 594 3053 
L 172 3053 
L 172 3500 
L 594 3500 
L 594 4494 
L 1172 4494 
z
" transform="scale(0.015625)"/>
     </defs>
     <use xlink:href="#DejaVuSans-55"/>
     <use xlink:href="#DejaVuSans-73" transform="translate(73.193359 0)"/>
     <use xlink:href="#DejaVuSans-65" transform="translate(125.292969 0)"/>
     <use xlink:href="#DejaVuSans-72" transform="translate(186.816406 0)"/>
     <use xlink:href="#DejaVuSans-20" transform="translate(227.929688 0)"/>
     <use xlink:href="#DejaVuSans-70" transform="translate(259.716797 0)"/>
     <use xlink:href="#DejaVuSans-72" transform="translate(323.193359 0)"/>
     <use xlink:href="#DejaVuSans-6f" transform="translate(362.056641 0)"/>
     <use xlink:href="#DejaVuSans-6d" transform="translate(423.238281 0)"/>
     <use xlink:href="#DejaVuSans-70" transform="translate(520.650391 0)"/>
     <use xlink:href="#DejaVuSans-74" transform="translate(584.126953 0)"/>
     <use xlink:href="#DejaVuSans-73" transform="translate(623.335938 0)"/>
    </g>
   </g>
   <g id="text_6">
    <!-- • -->
    <g style="fill: #4a78b5" transform="translate(66.672 375.947063) scale(0.15 -0.15)">
     <use xlink:href="#DejaVuSans-Bold-2022"/>
    </g>
   </g>
   <g id="text_7">
    <!-- Retrieved -->
    <g style="fill: #111827" transform="translate(82.8 368.798097) scale(0.106 -0.106)">
     <defs>
      <path id="DejaVuSans-52" d="M 2841 2188 
Q 3044 2119 3236 1894 
Q 3428 1669 3622 1275 
L 4263 0 
L 3584 0 
L 2988 1197 
Q 2756 1666 2539 1819 
Q 2322 1972 1947 1972 
L 1259 1972 
L 1259 0 
L 628 0 
L 628 4666 
L 2053 4666 
Q 2853 4666 3247 4331 
Q 3641 3997 3641 3322 
Q 3641 2881 3436 2590 
Q 3231 2300 2841 2188 
z
M 1259 4147 
L 1259 2491 
L 2053 2491 
Q 2509 2491 2742 2702 
Q 2975 2913 2975 3322 
Q 2975 3731 2742 3939 
Q 2509 4147 2053 4147 
L 1259 4147 
z
" transform="scale(0.015625)"/>
      <path id="DejaVuSans-69" d="M 603 3500 
L 1178 3500 
L 1178 0 
L 603 0 
L 603 3500 
z
M 603 4863 
L 1178 4863 
L 1178 4134 
L 603 4134 
L 603 4863 
z
" transform="scale(0.015625)"/>
      <path id="DejaVuSans-76" d="M 191 3500 
L 800 3500 
L 1894 563 
L 2988 3500 
L 3597 3500 
L 2284 0 
L 1503 0 
L 191 3500 
z
" transform="scale(0.015625)"/>
      <path id="DejaVuSans-64" d="M 2906 2969 
L 2906 4863 
L 3481 4863 
L 3481 0 
L 2906 0 
L 2906 525 
Q 2725 213 2448 61 
Q 2172 -91 1784 -91 
Q 1150 -91 751 415 
Q 353 922 353 1747 
Q 353 2572 751 3078 
Q 1150 3584 1784 3584 
Q 2172 3584 2448 3432 
Q 2725 3281 2906 2969 
z
M 947 1747 
Q 947 1113 1208 752 
Q 1469 391 1925 391 
Q 2381 391 2643 752 
Q 2906 1113 2906 1747 
Q 2906 2381 2643 2742 
Q 2381 3103 1925 3103 
Q 1469 3103 1208 2742 
Q 947 2381 947 1747 
z
" transform="scale(0.015625)"/>
     </defs>
     <use xlink:href="#DejaVuSans-52"/>
     <use xlink:href="#DejaVuSans-65" transform="translate(64.982422 0)"/>
     <use xlink:href="#DejaVuSans-74" transform="translate(126.505859 0)"/>
     <use xlink:href="#DejaVuSans-72" transform="translate(165.714844 0)"/>
     <use xlink:href="#DejaVuSans-69" transform="translate(206.828125 0)"/>
     <use xlink:href="#DejaVuSans-65" transform="translate(234.611328 0)"/>
     <use xlink:href="#DejaVuSans-76" transform="translate(296.134766 0)"/>
     <use xlink:href="#DejaVuSans-65" transform="translate(355.314453 0)"/>
     <use xlink:href="#DejaVuSans-64" transform="translate(416.837891 0)"/>
    </g>
    <!-- documents -->
    <g style="fill: #111827" transform="translate(82.8 380.667778) scale(0.106 -0.106)">
     <defs>
      <path id="DejaVuSans-63" d="M 3122 3366 
L 3122 2828 
Q 2878 2963 2633 3030 
Q 2388 3097 2138 3097 
Q 1578 3097 1268 2742 
Q 959 2388 959 1747 
Q 959 1106 1268 751 
Q 1578 397 2138 397 
Q 2388 397 2633 464 
Q 2878 531 3122 666 
L 3122 134 
Q 2881 22 2623 -34 
Q 2366 -91 2075 -91 
Q 1284 -91 818 406 
Q 353 903 353 1747 
Q 353 2603 823 3093 
Q 1294 3584 2113 3584 
Q 2378 3584 2631 3529 
Q 2884 3475 3122 3366 
z
" transform="scale(0.015625)"/>
      <path id="DejaVuSans-75" d="M 544 1381 
L 544 3500 
L 1119 3500 
L 1119 1403 
Q 1119 906 1312 657 
Q 1506 409 1894 409 
Q 2359 409 2629 706 
Q 2900 1003 2900 1516 
L 2900 3500 
L 3475 3500 
L 3475 0 
L 2900 0 
L 2900 538 
Q 2691 219 2414 64 
Q 2138 -91 1772 -91 
Q 1169 -91 856 284 
Q 544 659 544 1381 
z
M 1991 3584 
L 1991 3584 
z
" transform="scale(0.015625)"/>
      <path id="DejaVuSans-6e" d="M 3513 2113 
L 3513 0 
L 2938 0 
L 2938 2094 
Q 2938 2591 2744 2837 
Q 2550 3084 2163 3084 
Q 1697 3084 1428 2787 
Q 1159 2491 1159 1978 
L 1159 0 
L 581 0 
L 581 3500 
L 1159 3500 
L 1159 2956 
Q 1366 3272 1645 3428 
Q 1925 3584 2291 3584 
Q 2894 3584 3203 3211 
Q 3513 2838 3513 2113 
z
" transform="scale(0.015625)"/>
     </defs>
     <use xlink:href="#DejaVuSans-64"/>
     <use xlink:href="#DejaVuSans-6f" transform="translate(63.476562 0)"/>
     <use xlink:href="#DejaVuSans-63" transform="translate(124.658203 0)"/>
     <use xlink:href="#DejaVuSans-75" transform="translate(179.638672 0)"/>
     <use xlink:href="#DejaVuSans-6d" transform="translate(243.017578 0)"/>
     <use xlink:href="#DejaVuSans-65" transform="translate(340.429688 0)"/>
     <use xlink:href="#DejaVuSans-6e" transform="translate(401.953125 0)"/>
     <use xlink:href="#DejaVuSans-74" transform="translate(465.332031 0)"/>
     <use xlink:href="#DejaVuSans-73" transform="translate(504.541016 0)"/>
    </g>
   </g>
   <g id="text_8">
    <!-- • -->
    <g style="fill: #4a78b5" transform="translate(66.672 423.755063) scale(0.15 -0.15)">
     <use xlink:href="#DejaVuSans-Bold-2022"/>
    </g>
   </g>
   <g id="text_9">
    <!-- Memory state -->
    <g style="fill: #111827" transform="translate(82.8 422.540937) scale(0.106 -0.106)">
     <defs>
      <path id="DejaVuSans-4d" d="M 628 4666 
L 1569 4666 
L 2759 1491 
L 3956 4666 
L 4897 4666 
L 4897 0 
L 4281 0 
L 4281 4097 
L 3078 897 
L 2444 897 
L 1241 4097 
L 1241 0 
L 628 0 
L 628 4666 
z
" transform="scale(0.015625)"/>
      <path id="DejaVuSans-79" d="M 2059 -325 
Q 1816 -950 1584 -1140 
Q 1353 -1331 966 -1331 
L 506 -1331 
L 506 -850 
L 844 -850 
Q 1081 -850 1212 -737 
Q 1344 -625 1503 -206 
L 1606 56 
L 191 3500 
L 800 3500 
L 1894 763 
L 2988 3500 
L 3597 3500 
L 2059 -325 
z
" transform="scale(0.015625)"/>
      <path id="DejaVuSans-61" d="M 2194 1759 
Q 1497 1759 1228 1600 
Q 959 1441 959 1056 
Q 959 750 1161 570 
Q 1363 391 1709 391 
Q 2188 391 2477 730 
Q 2766 1069 2766 1631 
L 2766 1759 
L 2194 1759 
z
M 3341 1997 
L 3341 0 
L 2766 0 
L 2766 531 
Q 2569 213 2275 61 
Q 1981 -91 1556 -91 
Q 1019 -91 701 211 
Q 384 513 384 1019 
Q 384 1609 779 1909 
Q 1175 2209 1959 2209 
L 2766 2209 
L 2766 2266 
Q 2766 2663 2505 2880 
Q 2244 3097 1772 3097 
Q 1472 3097 1187 3025 
Q 903 2953 641 2809 
L 641 3341 
Q 956 3463 1253 3523 
Q 1550 3584 1831 3584 
Q 2591 3584 2966 3190 
Q 3341 2797 3341 1997 
z
" transform="scale(0.015625)"/>
     </defs>
     <use xlink:href="#DejaVuSans-4d"/>
     <use xlink:href="#DejaVuSans-65" transform="translate(86.279297 0)"/>
     <use xlink:href="#DejaVuSans-6d" transform="translate(147.802734 0)"/>
     <use xlink:href="#DejaVuSans-6f" transform="translate(245.214844 0)"/>
     <use xlink:href="#DejaVuSans-72" transform="translate(306.396484 0)"/>
     <use xlink:href="#DejaVuSans-79" transform="translate(347.509766 0)"/>
     <use xlink:href="#DejaVuSans-20" transform="translate(406.689453 0)"/>
     <use xlink:href="#DejaVuSans-73" transform="translate(438.476562 0)"/>
     <use xlink:href="#DejaVuSans-74" transform="translate(490.576172 0)"/>
     <use xlink:href="#DejaVuSans-61" transform="translate(529.785156 0)"/>
     <use xlink:href="#DejaVuSans-74" transform="translate(591.064453 0)"/>
     <use xlink:href="#DejaVuSans-65" transform="translate(630.273438 0)"/>
    </g>
   </g>
   <g id="text_10">
    <!-- • -->
    <g style="fill: #4a78b5" transform="translate(66.672 471.563062) scale(0.15 -0.15)">
     <use xlink:href="#DejaVuSans-Bold-2022"/>
    </g>
   </g>
   <g id="text_11">
    <!-- System -->
    <g style="fill: #111827" transform="translate(82.8 464.414097) scale(0.106 -0.106)">
     <defs>
      <path id="DejaVuSans-53" d="M 3425 4513 
L 3425 3897 
Q 3066 4069 2747 4153 
Q 2428 4238 2131 4238 
Q 1616 4238 1336 4038 
Q 1056 3838 1056 3469 
Q 1056 3159 1242 3001 
Q 1428 2844 1947 2747 
L 2328 2669 
Q 3034 2534 3370 2195 
Q 3706 1856 3706 1288 
Q 3706 609 3251 259 
Q 2797 -91 1919 -91 
Q 1588 -91 1214 -16 
Q 841 59 441 206 
L 441 856 
Q 825 641 1194 531 
Q 1563 422 1919 422 
Q 2459 422 2753 634 
Q 3047 847 3047 1241 
Q 3047 1584 2836 1778 
Q 2625 1972 2144 2069 
L 1759 2144 
Q 1053 2284 737 2584 
Q 422 2884 422 3419 
Q 422 4038 858 4394 
Q 1294 4750 2059 4750 
Q 2388 4750 2728 4690 
Q 3069 4631 3425 4513 
z
" transform="scale(0.015625)"/>
     </defs>
     <use xlink:href="#DejaVuSans-53"/>
     <use xlink:href="#DejaVuSans-79" transform="translate(63.476562 0)"/>
     <use xlink:href="#DejaVuSans-73" transform="translate(122.65625 0)"/>
     <use xlink:href="#DejaVuSans-74" transform="translate(174.755859 0)"/>
     <use xlink:href="#DejaVuSans-65" transform="translate(213.964844 0)"/>
     <use xlink:href="#DejaVuSans-6d" transform="translate(275.488281 0)"/>
    </g>
    <!-- instructions -->
    <g style="fill: #111827" transform="translate(82.8 476.283778) scale(0.106 -0.106)">
     <use xlink:href="#DejaVuSans-69"/>
     <use xlink:href="#DejaVuSans-6e" transform="translate(27.783203 0)"/>
     <use xlink:href="#DejaVuSans-73" transform="translate(91.162109 0)"/>
     <use xlink:href="#DejaVuSans-74" transform="translate(143.261719 0)"/>
     <use xlink:href="#DejaVuSans-72" transform="translate(182.470703 0)"/>
     <use xlink:href="#DejaVuSans-75" transform="translate(223.583984 0)"/>
     <use xlink:href="#DejaVuSans-63" transform="translate(286.962891 0)"/>
     <use xlink:href="#DejaVuSans-74" transform="translate(341.943359 0)"/>
     <use xlink:href="#DejaVuSans-69" transform="translate(381.152344 0)"/>
     <use xlink:href="#DejaVuSans-6f" transform="translate(408.935547 0)"/>
     <use xlink:href="#DejaVuSans-6e" transform="translate(470.117188 0)"/>
     <use xlink:href="#DejaVuSans-73" transform="translate(533.496094 0)"/>
    </g>
   </g>
   <g id="text_12">
    <!-- Main Threats -->
    <g style="fill: #1f365c" transform="translate(226.39625 260.183125) scale(0.14 -0.14)">
     <defs>
      <path id="DejaVuSans-Bold-4d" d="M 588 4666 
L 2119 4666 
L 3181 2169 
L 4250 4666 
L 5778 4666 
L 5778 0 
L 4641 0 
L 4641 3413 
L 3566 897 
L 2803 897 
L 1728 3413 
L 1728 0 
L 588 0 
L 588 4666 
z
" transform="scale(0.015625)"/>
      <path id="DejaVuSans-Bold-54" d="M 31 4666 
L 4331 4666 
L 4331 3756 
L 2784 3756 
L 2784 0 
L 1581 0 
L 1581 3756 
L 31 3756 
L 31 4666 
z
" transform="scale(0.015625)"/>
      <path id="DejaVuSans-Bold-68" d="M 4056 2131 
L 4056 0 
L 2931 0 
L 2931 347 
L 2931 1625 
Q 2931 2084 2911 2256 
Q 2891 2428 2841 2509 
Q 2775 2619 2662 2680 
Q 2550 2741 2406 2741 
Q 2056 2741 1856 2470 
Q 1656 2200 1656 1722 
L 1656 0 
L 538 0 
L 538 4863 
L 1656 4863 
L 1656 2988 
Q 1909 3294 2193 3439 
Q 2478 3584 2822 3584 
Q 3428 3584 3742 3212 
Q 4056 2841 4056 2131 
z
" transform="scale(0.015625)"/>
     </defs>
     <use xlink:href="#DejaVuSans-Bold-4d"/>
     <use xlink:href="#DejaVuSans-Bold-61" transform="translate(99.511719 0)"/>
     <use xlink:href="#DejaVuSans-Bold-69" transform="translate(166.992188 0)"/>
     <use xlink:href="#DejaVuSans-Bold-6e" transform="translate(201.269531 0)"/>
     <use xlink:href="#DejaVuSans-Bold-20" transform="translate(272.460938 0)"/>
     <use xlink:href="#DejaVuSans-Bold-54" transform="translate(307.275391 0)"/>
     <use xlink:href="#DejaVuSans-Bold-68" transform="translate(375.488281 0)"/>
     <use xlink:href="#DejaVuSans-Bold-72" transform="translate(446.679688 0)"/>
     <use xlink:href="#DejaVuSans-Bold-65" transform="translate(495.996094 0)"/>
     <use xlink:href="#DejaVuSans-Bold-61" transform="translate(563.818359 0)"/>
     <use xlink:href="#DejaVuSans-Bold-74" transform="translate(631.298828 0)"/>
     <use xlink:href="#DejaVuSans-Bold-73" transform="translate(679.101562 0)"/>
    </g>
   </g>
   <g id="text_13">
    <!-- • -->
    <g style="fill: #4a78b5" transform="translate(222.072 328.139063) scale(0.15 -0.15)">
     <use xlink:href="#DejaVuSans-Bold-2022"/>
    </g>
   </g>
   <g id="text_14">
    <!-- Prompt -->
    <g style="fill: #111827" transform="translate(238.2 320.990097) scale(0.106 -0.106)">
     <defs>
      <path id="DejaVuSans-50" d="M 1259 4147 
L 1259 2394 
L 2053 2394 
Q 2494 2394 2734 2622 
Q 2975 2850 2975 3272 
Q 2975 3691 2734 3919 
Q 2494 4147 2053 4147 
L 1259 4147 
z
M 628 4666 
L 2053 4666 
Q 2838 4666 3239 4311 
Q 3641 3956 3641 3272 
Q 3641 2581 3239 2228 
Q 2838 1875 2053 1875 
L 1259 1875 
L 1259 0 
L 628 0 
L 628 4666 
z
" transform="scale(0.015625)"/>
     </defs>
     <use xlink:href="#DejaVuSans-50"/>
     <use xlink:href="#DejaVuSans-72" transform="translate(58.552734 0)"/>
     <use xlink:href="#DejaVuSans-6f" transform="translate(97.416016 0)"/>
     <use xlink:href="#DejaVuSans-6d" transform="translate(158.597656 0)"/>
     <use xlink:href="#DejaVuSans-70" transform="translate(256.009766 0)"/>
     <use xlink:href="#DejaVuSans-74" transform="translate(319.486328 0)"/>
    </g>
    <!-- injection -->
    <g style="fill: #111827" transform="translate(238.2 332.859778) scale(0.106 -0.106)">
     <defs>
      <path id="DejaVuSans-6a" d="M 603 3500 
L 1178 3500 
L 1178 -63 
Q 1178 -731 923 -1031 
Q 669 -1331 103 -1331 
L -116 -1331 
L -116 -844 
L 38 -844 
Q 366 -844 484 -692 
Q 603 -541 603 -63 
L 603 3500 
z
M 603 4863 
L 1178 4863 
L 1178 4134 
L 603 4134 
L 603 4863 
z
" transform="scale(0.015625)"/>
     </defs>
     <use xlink:href="#DejaVuSans-69"/>
     <use xlink:href="#DejaVuSans-6e" transform="translate(27.783203 0)"/>
     <use xlink:href="#DejaVuSans-6a" transform="translate(91.162109 0)"/>
     <use xlink:href="#DejaVuSans-65" transform="translate(118.945312 0)"/>
     <use xlink:href="#DejaVuSans-63" transform="translate(180.46875 0)"/>
     <use xlink:href="#DejaVuSans-74" transform="translate(235.449219 0)"/>
     <use xlink:href="#DejaVuSans-69" transform="translate(274.658203 0)"/>
     <use xlink:href="#DejaVuSans-6f" transform="translate(302.441406 0)"/>
     <use xlink:href="#DejaVuSans-6e" transform="translate(363.623047 0)"/>
    </g>
   </g>
   <g id="text_15">
    <!-- • -->
    <g style="fill: #4a78b5" transform="translate(222.072 375.947063) scale(0.15 -0.15)">
     <use xlink:href="#DejaVuSans-Bold-2022"/>
    </g>
   </g>
   <g id="text_16">
    <!-- Jailbreaks -->
    <g style="fill: #111827" transform="translate(238.2 374.732937) scale(0.106 -0.106)">
     <defs>
      <path id="DejaVuSans-4a" d="M 628 4666 
L 1259 4666 
L 1259 325 
Q 1259 -519 939 -900 
Q 619 -1281 -91 -1281 
L -331 -1281 
L -331 -750 
L -134 -750 
Q 284 -750 456 -515 
Q 628 -281 628 325 
L 628 4666 
z
" transform="scale(0.015625)"/>
      <path id="DejaVuSans-6c" d="M 603 4863 
L 1178 4863 
L 1178 0 
L 603 0 
L 603 4863 
z
" transform="scale(0.015625)"/>
      <path id="DejaVuSans-62" d="M 3116 1747 
Q 3116 2381 2855 2742 
Q 2594 3103 2138 3103 
Q 1681 3103 1420 2742 
Q 1159 2381 1159 1747 
Q 1159 1113 1420 752 
Q 1681 391 2138 391 
Q 2594 391 2855 752 
Q 3116 1113 3116 1747 
z
M 1159 2969 
Q 1341 3281 1617 3432 
Q 1894 3584 2278 3584 
Q 2916 3584 3314 3078 
Q 3713 2572 3713 1747 
Q 3713 922 3314 415 
Q 2916 -91 2278 -91 
Q 1894 -91 1617 61 
Q 1341 213 1159 525 
L 1159 0 
L 581 0 
L 581 4863 
L 1159 4863 
L 1159 2969 
z
" transform="scale(0.015625)"/>
      <path id="DejaVuSans-6b" d="M 581 4863 
L 1159 4863 
L 1159 1991 
L 2875 3500 
L 3609 3500 
L 1753 1863 
L 3688 0 
L 2938 0 
L 1159 1709 
L 1159 0 
L 581 0 
L 581 4863 
z
" transform="scale(0.015625)"/>
     </defs>
     <use xlink:href="#DejaVuSans-4a"/>
     <use xlink:href="#DejaVuSans-61" transform="translate(29.492188 0)"/>
     <use xlink:href="#DejaVuSans-69" transform="translate(90.771484 0)"/>
     <use xlink:href="#DejaVuSans-6c" transform="translate(118.554688 0)"/>
     <use xlink:href="#DejaVuSans-62" transform="translate(146.337891 0)"/>
     <use xlink:href="#DejaVuSans-72" transform="translate(209.814453 0)"/>
     <use xlink:href="#DejaVuSans-65" transform="translate(248.677734 0)"/>
     <use xlink:href="#DejaVuSans-61" transform="translate(310.201172 0)"/>
     <use xlink:href="#DejaVuSans-6b" transform="translate(371.480469 0)"/>
     <use xlink:href="#DejaVuSans-73" transform="translate(429.390625 0)"/>
    </g>
   </g>
   <g id="text_17">
    <!-- • -->
    <g style="fill: #4a78b5" transform="translate(222.072 423.755063) scale(0.15 -0.15)">
     <use xlink:href="#DejaVuSans-Bold-2022"/>
    </g>
   </g>
   <g id="text_18">
    <!-- Training data -->
    <g style="fill: #111827" transform="translate(238.2 416.606097) scale(0.106 -0.106)">
     <defs>
      <path id="DejaVuSans-54" d="M -19 4666 
L 3928 4666 
L 3928 4134 
L 2272 4134 
L 2272 0 
L 1638 0 
L 1638 4134 
L -19 4134 
L -19 4666 
z
" transform="scale(0.015625)"/>
      <path id="DejaVuSans-67" d="M 2906 1791 
Q 2906 2416 2648 2759 
Q 2391 3103 1925 3103 
Q 1463 3103 1205 2759 
Q 947 2416 947 1791 
Q 947 1169 1205 825 
Q 1463 481 1925 481 
Q 2391 481 2648 825 
Q 2906 1169 2906 1791 
z
M 3481 434 
Q 3481 -459 3084 -895 
Q 2688 -1331 1869 -1331 
Q 1566 -1331 1297 -1286 
Q 1028 -1241 775 -1147 
L 775 -588 
Q 1028 -725 1275 -790 
Q 1522 -856 1778 -856 
Q 2344 -856 2625 -561 
Q 2906 -266 2906 331 
L 2906 616 
Q 2728 306 2450 153 
Q 2172 0 1784 0 
Q 1141 0 747 490 
Q 353 981 353 1791 
Q 353 2603 747 3093 
Q 1141 3584 1784 3584 
Q 2172 3584 2450 3431 
Q 2728 3278 2906 2969 
L 2906 3500 
L 3481 3500 
L 3481 434 
z
" transform="scale(0.015625)"/>
     </defs>
     <use xlink:href="#DejaVuSans-54"/>
     <use xlink:href="#DejaVuSans-72" transform="translate(46.333984 0)"/>
     <use xlink:href="#DejaVuSans-61" transform="translate(87.447266 0)"/>
     <use xlink:href="#DejaVuSans-69" transform="translate(148.726562 0)"/>
     <use xlink:href="#DejaVuSans-6e" transform="translate(176.509766 0)"/>
     <use xlink:href="#DejaVuSans-69" transform="translate(239.888672 0)"/>
     <use xlink:href="#DejaVuSans-6e" transform="translate(267.671875 0)"/>
     <use xlink:href="#DejaVuSans-67" transform="translate(331.050781 0)"/>
     <use xlink:href="#DejaVuSans-20" transform="translate(394.527344 0)"/>
     <use xlink:href="#DejaVuSans-64" transform="translate(426.314453 0)"/>
     <use xlink:href="#DejaVuSans-61" transform="translate(489.791016 0)"/>
     <use xlink:href="#DejaVuSans-74" transform="translate(551.070312 0)"/>
     <use xlink:href="#DejaVuSans-61" transform="translate(590.279297 0)"/>
    </g>
    <!-- leakage -->
    <g style="fill: #111827" transform="translate(238.2 428.475778) scale(0.106 -0.106)">
     <use xlink:href="#DejaVuSans-6c"/>
     <use xlink:href="#DejaVuSans-65" transform="translate(27.783203 0)"/>
     <use xlink:href="#DejaVuSans-61" transform="translate(89.306641 0)"/>
     <use xlink:href="#DejaVuSans-6b" transform="translate(150.585938 0)"/>
     <use xlink:href="#DejaVuSans-61" transform="translate(206.746094 0)"/>
     <use xlink:href="#DejaVuSans-67" transform="translate(268.025391 0)"/>
     <use xlink:href="#DejaVuSans-65" transform="translate(331.501953 0)"/>
    </g>
   </g>
   <g id="text_19">
    <!-- • -->
    <g style="fill: #4a78b5" transform="translate(222.072 471.563062) scale(0.15 -0.15)">
     <use xlink:href="#DejaVuSans-Bold-2022"/>
    </g>
   </g>
   <g id="text_20">
    <!-- Model -->
    <g style="fill: #111827" transform="translate(238.2 464.414097) scale(0.106 -0.106)">
     <use xlink:href="#DejaVuSans-4d"/>
     <use xlink:href="#DejaVuSans-6f" transform="translate(86.279297 0)"/>
     <use xlink:href="#DejaVuSans-64" transform="translate(147.460938 0)"/>
     <use xlink:href="#DejaVuSans-65" transform="translate(210.9375 0)"/>
     <use xlink:href="#DejaVuSans-6c" transform="translate(272.460938 0)"/>
    </g>
    <!-- extraction -->
    <g style="fill: #111827" transform="translate(238.2 476.283778) scale(0.106 -0.106)">
     <defs>
      <path id="DejaVuSans-78" d="M 3513 3500 
L 2247 1797 
L 3578 0 
L 2900 0 
L 1881 1375 
L 863 0 
L 184 0 
L 1544 1831 
L 300 3500 
L 978 3500 
L 1906 2253 
L 2834 3500 
L 3513 3500 
z
" transform="scale(0.015625)"/>
     </defs>
     <use xlink:href="#DejaVuSans-65"/>
     <use xlink:href="#DejaVuSans-78" transform="translate(59.773438 0)"/>
     <use xlink:href="#DejaVuSans-74" transform="translate(118.953125 0)"/>
     <use xlink:href="#DejaVuSans-72" transform="translate(158.162109 0)"/>
     <use xlink:href="#DejaVuSans-61" transform="translate(199.275391 0)"/>
     <use xlink:href="#DejaVuSans-63" transform="translate(260.554688 0)"/>
     <use xlink:href="#DejaVuSans-74" transform="translate(315.535156 0)"/>
     <use xlink:href="#DejaVuSans-69" transform="translate(354.744141 0)"/>
     <use xlink:href="#DejaVuSans-6f" transform="translate(382.527344 0)"/>
     <use xlink:href="#DejaVuSans-6e" transform="translate(443.708984 0)"/>
    </g>
   </g>
   <g id="text_21">
    <!-- Content Risks -->
    <g style="fill: #1f365c" transform="translate(378.933906 260.183125) scale(0.14 -0.14)">
     <defs>
      <path id="DejaVuSans-Bold-52" d="M 2297 2597 
Q 2675 2597 2839 2737 
Q 3003 2878 3003 3200 
Q 3003 3519 2839 3656 
Q 2675 3794 2297 3794 
L 1791 3794 
L 1791 2597 
L 2297 2597 
z
M 1791 1766 
L 1791 0 
L 588 0 
L 588 4666 
L 2425 4666 
Q 3347 4666 3776 4356 
Q 4206 4047 4206 3378 
Q 4206 2916 3982 2619 
Q 3759 2322 3309 2181 
Q 3556 2125 3751 1926 
Q 3947 1728 4147 1325 
L 4800 0 
L 3519 0 
L 2950 1159 
Q 2778 1509 2601 1637 
Q 2425 1766 2131 1766 
L 1791 1766 
z
" transform="scale(0.015625)"/>
     </defs>
     <use xlink:href="#DejaVuSans-Bold-43"/>
     <use xlink:href="#DejaVuSans-Bold-6f" transform="translate(73.388672 0)"/>
     <use xlink:href="#DejaVuSans-Bold-6e" transform="translate(142.089844 0)"/>
     <use xlink:href="#DejaVuSans-Bold-74" transform="translate(213.28125 0)"/>
     <use xlink:href="#DejaVuSans-Bold-65" transform="translate(261.083984 0)"/>
     <use xlink:href="#DejaVuSans-Bold-6e" transform="translate(328.90625 0)"/>
     <use xlink:href="#DejaVuSans-Bold-74" transform="translate(400.097656 0)"/>
     <use xlink:href="#DejaVuSans-Bold-20" transform="translate(447.900391 0)"/>
     <use xlink:href="#DejaVuSans-Bold-52" transform="translate(482.714844 0)"/>
     <use xlink:href="#DejaVuSans-Bold-69" transform="translate(559.716797 0)"/>
     <use xlink:href="#DejaVuSans-Bold-73" transform="translate(593.994141 0)"/>
     <use xlink:href="#DejaVuSans-Bold-6b" transform="translate(653.515625 0)"/>
     <use xlink:href="#DejaVuSans-Bold-73" transform="translate(720.019531 0)"/>
    </g>
   </g>
   <g id="text_22">
    <!-- • -->
    <g style="fill: #4a78b5" transform="translate(377.472 328.139063) scale(0.15 -0.15)">
     <use xlink:href="#DejaVuSans-Bold-2022"/>
    </g>
   </g>
   <g id="text_23">
    <!-- Unsafe code -->
    <g style="fill: #111827" transform="translate(393.6 326.924937) scale(0.106 -0.106)">
     <defs>
      <path id="DejaVuSans-66" d="M 2375 4863 
L 2375 4384 
L 1825 4384 
Q 1516 4384 1395 4259 
Q 1275 4134 1275 3809 
L 1275 3500 
L 2222 3500 
L 2222 3053 
L 1275 3053 
L 1275 0 
L 697 0 
L 697 3053 
L 147 3053 
L 147 3500 
L 697 3500 
L 697 3744 
Q 697 4328 969 4595 
Q 1241 4863 1831 4863 
L 2375 4863 
z
" transform="scale(0.015625)"/>
     </defs>
     <use xlink:href="#DejaVuSans-55"/>
     <use xlink:href="#DejaVuSans-6e" transform="translate(73.193359 0)"/>
     <use xlink:href="#DejaVuSans-73" transform="translate(136.572266 0)"/>
     <use xlink:href="#DejaVuSans-61" transform="translate(188.671875 0)"/>
     <use xlink:href="#DejaVuSans-66" transform="translate(249.951172 0)"/>
     <use xlink:href="#DejaVuSans-65" transform="translate(285.15625 0)"/>
     <use xlink:href="#DejaVuSans-20" transform="translate(346.679688 0)"/>
     <use xlink:href="#DejaVuSans-63" transform="translate(378.466797 0)"/>
     <use xlink:href="#DejaVuSans-6f" transform="translate(433.447266 0)"/>
     <use xlink:href="#DejaVuSans-64" transform="translate(494.628906 0)"/>
     <use xlink:href="#DejaVuSans-65" transform="translate(558.105469 0)"/>
    </g>
   </g>
   <g id="text_24">
    <!-- • -->
    <g style="fill: #4a78b5" transform="translate(377.472 375.947063) scale(0.15 -0.15)">
     <use xlink:href="#DejaVuSans-Bold-2022"/>
    </g>
   </g>
   <g id="text_25">
    <!-- Synthetic -->
    <g style="fill: #111827" transform="translate(393.6 368.798097) scale(0.106 -0.106)">
     <defs>
      <path id="DejaVuSans-68" d="M 3513 2113 
L 3513 0 
L 2938 0 
L 2938 2094 
Q 2938 2591 2744 2837 
Q 2550 3084 2163 3084 
Q 1697 3084 1428 2787 
Q 1159 2491 1159 1978 
L 1159 0 
L 581 0 
L 581 4863 
L 1159 4863 
L 1159 2956 
Q 1366 3272 1645 3428 
Q 1925 3584 2291 3584 
Q 2894 3584 3203 3211 
Q 3513 2838 3513 2113 
z
" transform="scale(0.015625)"/>
     </defs>
     <use xlink:href="#DejaVuSans-53"/>
     <use xlink:href="#DejaVuSans-79" transform="translate(63.476562 0)"/>
     <use xlink:href="#DejaVuSans-6e" transform="translate(122.65625 0)"/>
     <use xlink:href="#DejaVuSans-74" transform="translate(186.035156 0)"/>
     <use xlink:href="#DejaVuSans-68" transform="translate(225.244141 0)"/>
     <use xlink:href="#DejaVuSans-65" transform="translate(288.623047 0)"/>
     <use xlink:href="#DejaVuSans-74" transform="translate(350.146484 0)"/>
     <use xlink:href="#DejaVuSans-69" transform="translate(389.355469 0)"/>
     <use xlink:href="#DejaVuSans-63" transform="translate(417.138672 0)"/>
    </g>
    <!-- media abuse -->
    <g style="fill: #111827" transform="translate(393.6 380.667778) scale(0.106 -0.106)">
     <use xlink:href="#DejaVuSans-6d"/>
     <use xlink:href="#DejaVuSans-65" transform="translate(97.412109 0)"/>
     <use xlink:href="#DejaVuSans-64" transform="translate(158.935547 0)"/>
     <use xlink:href="#DejaVuSans-69" transform="translate(222.412109 0)"/>
     <use xlink:href="#DejaVuSans-61" transform="translate(250.195312 0)"/>
     <use xlink:href="#DejaVuSans-20" transform="translate(311.474609 0)"/>
     <use xlink:href="#DejaVuSans-61" transform="translate(343.261719 0)"/>
     <use xlink:href="#DejaVuSans-62" transform="translate(404.541016 0)"/>
     <use xlink:href="#DejaVuSans-75" transform="translate(468.017578 0)"/>
     <use xlink:href="#DejaVuSans-73" transform="translate(531.396484 0)"/>
     <use xlink:href="#DejaVuSans-65" transform="translate(583.496094 0)"/>
    </g>
   </g>
   <g id="text_26">
    <!-- • -->
    <g style="fill: #4a78b5" transform="translate(377.472 423.755063) scale(0.15 -0.15)">
     <use xlink:href="#DejaVuSans-Bold-2022"/>
    </g>
   </g>
   <g id="text_27">
    <!-- Deepfakes -->
    <g style="fill: #111827" transform="translate(393.6 422.540937) scale(0.106 -0.106)">
     <defs>
      <path id="DejaVuSans-44" d="M 1259 4147 
L 1259 519 
L 2022 519 
Q 2988 519 3436 956 
Q 3884 1394 3884 2338 
Q 3884 3275 3436 3711 
Q 2988 4147 2022 4147 
L 1259 4147 
z
M 628 4666 
L 1925 4666 
Q 3281 4666 3915 4102 
Q 4550 3538 4550 2338 
Q 4550 1131 3912 565 
Q 3275 0 1925 0 
L 628 0 
L 628 4666 
z
" transform="scale(0.015625)"/>
     </defs>
     <use xlink:href="#DejaVuSans-44"/>
     <use xlink:href="#DejaVuSans-65" transform="translate(77.001953 0)"/>
     <use xlink:href="#DejaVuSans-65" transform="translate(138.525391 0)"/>
     <use xlink:href="#DejaVuSans-70" transform="translate(200.048828 0)"/>
     <use xlink:href="#DejaVuSans-66" transform="translate(263.525391 0)"/>
     <use xlink:href="#DejaVuSans-61" transform="translate(298.730469 0)"/>
     <use xlink:href="#DejaVuSans-6b" transform="translate(360.009766 0)"/>
     <use xlink:href="#DejaVuSans-65" transform="translate(414.294922 0)"/>
     <use xlink:href="#DejaVuSans-73" transform="translate(475.818359 0)"/>
    </g>
   </g>
   <g id="text_28">
    <!-- • -->
    <g style="fill: #4a78b5" transform="translate(377.472 471.563062) scale(0.15 -0.15)">
     <use xlink:href="#DejaVuSans-Bold-2022"/>
    </g>
   </g>
   <g id="text_29">
    <!-- Misinformation -->
    <g style="fill: #111827" transform="translate(393.6 470.348937) scale(0.106 -0.106)">
     <use xlink:href="#DejaVuSans-4d"/>
     <use xlink:href="#DejaVuSans-69" transform="translate(86.279297 0)"/>
     <use xlink:href="#DejaVuSans-73" transform="translate(114.0625 0)"/>
     <use xlink:href="#DejaVuSans-69" transform="translate(166.162109 0)"/>
     <use xlink:href="#DejaVuSans-6e" transform="translate(193.945312 0)"/>
     <use xlink:href="#DejaVuSans-66" transform="translate(257.324219 0)"/>
     <use xlink:href="#DejaVuSans-6f" transform="translate(292.529297 0)"/>
     <use xlink:href="#DejaVuSans-72" transform="translate(353.710938 0)"/>
     <use xlink:href="#DejaVuSans-6d" transform="translate(393.074219 0)"/>
     <use xlink:href="#DejaVuSans-61" transform="translate(490.486328 0)"/>
     <use xlink:href="#DejaVuSans-74" transform="translate(551.765625 0)"/>
     <use xlink:href="#DejaVuSans-69" transform="translate(590.974609 0)"/>
     <use xlink:href="#DejaVuSans-6f" transform="translate(618.757812 0)"/>
     <use xlink:href="#DejaVuSans-6e" transform="translate(679.939453 0)"/>
    </g>
   </g>
   <g id="text_30">
    <!-- Tool &amp; App Risks -->
    <g style="fill: #1f365c" transform="translate(523.404063 260.183125) scale(0.14 -0.14)">
     <defs>
      <path id="DejaVuSans-Bold-6c" d="M 538 4863 
L 1656 4863 
L 1656 0 
L 538 0 
L 538 4863 
z
" transform="scale(0.015625)"/>
      <path id="DejaVuSans-Bold-26" d="M 2497 3097 
L 3775 1691 
Q 3941 1909 4027 2181 
Q 4113 2453 4128 2797 
L 5100 2797 
Q 5053 2228 4879 1784 
Q 4706 1341 4397 1006 
L 5313 0 
L 3988 0 
L 3681 341 
Q 3353 122 2990 15 
Q 2628 -91 2222 -91 
Q 1400 -91 892 342 
Q 384 775 384 1459 
Q 384 1916 607 2267 
Q 831 2619 1338 2950 
Q 1206 3116 1143 3281 
Q 1081 3447 1081 3628 
Q 1081 4138 1478 4444 
Q 1875 4750 2534 4750 
Q 2819 4750 3126 4704 
Q 3434 4659 3769 4569 
L 3769 3700 
Q 3475 3850 3212 3922 
Q 2950 3994 2700 3994 
Q 2459 3994 2326 3901 
Q 2194 3809 2194 3641 
Q 2194 3534 2270 3398 
Q 2347 3263 2497 3097 
z
M 1875 2322 
Q 1672 2175 1569 1989 
Q 1466 1803 1466 1581 
Q 1466 1222 1731 969 
Q 1997 716 2369 716 
Q 2578 716 2759 780 
Q 2941 844 3097 972 
L 1875 2322 
z
" transform="scale(0.015625)"/>
      <path id="DejaVuSans-Bold-70" d="M 1656 506 
L 1656 -1331 
L 538 -1331 
L 538 3500 
L 1656 3500 
L 1656 2988 
Q 1888 3294 2169 3439 
Q 2450 3584 2816 3584 
Q 3463 3584 3878 3070 
Q 4294 2556 4294 1747 
Q 4294 938 3878 423 
Q 3463 -91 2816 -91 
Q 2450 -91 2169 54 
Q 1888 200 1656 506 
z
M 2400 2772 
Q 2041 2772 1848 2508 
Q 1656 2244 1656 1747 
Q 1656 1250 1848 986 
Q 2041 722 2400 722 
Q 2759 722 2948 984 
Q 3138 1247 3138 1747 
Q 3138 2247 2948 2509 
Q 2759 2772 2400 2772 
z
" transform="scale(0.015625)"/>
     </defs>
     <use xlink:href="#DejaVuSans-Bold-54"/>
     <use xlink:href="#DejaVuSans-Bold-6f" transform="translate(54.962891 0)"/>
     <use xlink:href="#DejaVuSans-Bold-6f" transform="translate(123.664062 0)"/>
     <use xlink:href="#DejaVuSans-Bold-6c" transform="translate(192.365234 0)"/>
     <use xlink:href="#DejaVuSans-Bold-20" transform="translate(226.642578 0)"/>
     <use xlink:href="#DejaVuSans-Bold-26" transform="translate(261.457031 0)"/>
     <use xlink:href="#DejaVuSans-Bold-20" transform="translate(348.664062 0)"/>
     <use xlink:href="#DejaVuSans-Bold-41" transform="translate(383.478516 0)"/>
     <use xlink:href="#DejaVuSans-Bold-70" transform="translate(460.871094 0)"/>
     <use xlink:href="#DejaVuSans-Bold-70" transform="translate(532.453125 0)"/>
     <use xlink:href="#DejaVuSans-Bold-20" transform="translate(604.035156 0)"/>
     <use xlink:href="#DejaVuSans-Bold-52" transform="translate(638.849609 0)"/>
     <use xlink:href="#DejaVuSans-Bold-69" transform="translate(715.851562 0)"/>
     <use xlink:href="#DejaVuSans-Bold-73" transform="translate(750.128906 0)"/>
     <use xlink:href="#DejaVuSans-Bold-6b" transform="translate(809.650391 0)"/>
     <use xlink:href="#DejaVuSans-Bold-73" transform="translate(876.154297 0)"/>
    </g>
   </g>
   <g id="text_31">
    <!-- • -->
    <g style="fill: #4a78b5" transform="translate(532.872 328.139063) scale(0.15 -0.15)">
     <use xlink:href="#DejaVuSans-Bold-2022"/>
    </g>
   </g>
   <g id="text_32">
    <!-- Plugin misuse -->
    <g style="fill: #111827" transform="translate(549 326.924937) scale(0.106 -0.106)">
     <use xlink:href="#DejaVuSans-50"/>
     <use xlink:href="#DejaVuSans-6c" transform="translate(60.302734 0)"/>
     <use xlink:href="#DejaVuSans-75" transform="translate(88.085938 0)"/>
     <use xlink:href="#DejaVuSans-67" transform="translate(151.464844 0)"/>
     <use xlink:href="#DejaVuSans-69" transform="translate(214.941406 0)"/>
     <use xlink:href="#DejaVuSans-6e" transform="translate(242.724609 0)"/>
     <use xlink:href="#DejaVuSans-20" transform="translate(306.103516 0)"/>
     <use xlink:href="#DejaVuSans-6d" transform="translate(337.890625 0)"/>
     <use xlink:href="#DejaVuSans-69" transform="translate(435.302734 0)"/>
     <use xlink:href="#DejaVuSans-73" transform="translate(463.085938 0)"/>
     <use xlink:href="#DejaVuSans-75" transform="translate(515.185547 0)"/>
     <use xlink:href="#DejaVuSans-73" transform="translate(578.564453 0)"/>
     <use xlink:href="#DejaVuSans-65" transform="translate(630.664062 0)"/>
    </g>
   </g>
   <g id="text_33">
    <!-- • -->
    <g style="fill: #4a78b5" transform="translate(532.872 375.947063) scale(0.15 -0.15)">
     <use xlink:href="#DejaVuSans-Bold-2022"/>
    </g>
   </g>
   <g id="text_34">
    <!-- Output -->
    <g style="fill: #111827" transform="translate(549 368.798097) scale(0.106 -0.106)">
     <defs>
      <path id="DejaVuSans-4f" d="M 2522 4238 
Q 1834 4238 1429 3725 
Q 1025 3213 1025 2328 
Q 1025 1447 1429 934 
Q 1834 422 2522 422 
Q 3209 422 3611 934 
Q 4013 1447 4013 2328 
Q 4013 3213 3611 3725 
Q 3209 4238 2522 4238 
z
M 2522 4750 
Q 3503 4750 4090 4092 
Q 4678 3434 4678 2328 
Q 4678 1225 4090 567 
Q 3503 -91 2522 -91 
Q 1538 -91 948 565 
Q 359 1222 359 2328 
Q 359 3434 948 4092 
Q 1538 4750 2522 4750 
z
" transform="scale(0.015625)"/>
     </defs>
     <use xlink:href="#DejaVuSans-4f"/>
     <use xlink:href="#DejaVuSans-75" transform="translate(78.710938 0)"/>
     <use xlink:href="#DejaVuSans-74" transform="translate(142.089844 0)"/>
     <use xlink:href="#DejaVuSans-70" transform="translate(181.298828 0)"/>
     <use xlink:href="#DejaVuSans-75" transform="translate(244.775391 0)"/>
     <use xlink:href="#DejaVuSans-74" transform="translate(308.154297 0)"/>
    </g>
    <!-- injection -->
    <g style="fill: #111827" transform="translate(549 380.667778) scale(0.106 -0.106)">
     <use xlink:href="#DejaVuSans-69"/>
     <use xlink:href="#DejaVuSans-6e" transform="translate(27.783203 0)"/>
     <use xlink:href="#DejaVuSans-6a" transform="translate(91.162109 0)"/>
     <use xlink:href="#DejaVuSans-65" transform="translate(118.945312 0)"/>
     <use xlink:href="#DejaVuSans-63" transform="translate(180.46875 0)"/>
     <use xlink:href="#DejaVuSans-74" transform="translate(235.449219 0)"/>
     <use xlink:href="#DejaVuSans-69" transform="translate(274.658203 0)"/>
     <use xlink:href="#DejaVuSans-6f" transform="translate(302.441406 0)"/>
     <use xlink:href="#DejaVuSans-6e" transform="translate(363.623047 0)"/>
    </g>
   </g>
   <g id="text_35">
    <!-- • -->
    <g style="fill: #4a78b5" transform="translate(532.872 423.755063) scale(0.15 -0.15)">
     <use xlink:href="#DejaVuSans-Bold-2022"/>
    </g>
   </g>
   <g id="text_36">
    <!-- External API -->
    <g style="fill: #111827" transform="translate(549 416.606097) scale(0.106 -0.106)">
     <defs>
      <path id="DejaVuSans-45" d="M 628 4666 
L 3578 4666 
L 3578 4134 
L 1259 4134 
L 1259 2753 
L 3481 2753 
L 3481 2222 
L 1259 2222 
L 1259 531 
L 3634 531 
L 3634 0 
L 628 0 
L 628 4666 
z
" transform="scale(0.015625)"/>
      <path id="DejaVuSans-41" d="M 2188 4044 
L 1331 1722 
L 3047 1722 
L 2188 4044 
z
M 1831 4666 
L 2547 4666 
L 4325 0 
L 3669 0 
L 3244 1197 
L 1141 1197 
L 716 0 
L 50 0 
L 1831 4666 
z
" transform="scale(0.015625)"/>
      <path id="DejaVuSans-49" d="M 628 4666 
L 1259 4666 
L 1259 0 
L 628 0 
L 628 4666 
z
" transform="scale(0.015625)"/>
     </defs>
     <use xlink:href="#DejaVuSans-45"/>
     <use xlink:href="#DejaVuSans-78" transform="translate(63.183594 0)"/>
     <use xlink:href="#DejaVuSans-74" transform="translate(122.363281 0)"/>
     <use xlink:href="#DejaVuSans-65" transform="translate(161.572266 0)"/>
     <use xlink:href="#DejaVuSans-72" transform="translate(223.095703 0)"/>
     <use xlink:href="#DejaVuSans-6e" transform="translate(262.458984 0)"/>
     <use xlink:href="#DejaVuSans-61" transform="translate(325.837891 0)"/>
     <use xlink:href="#DejaVuSans-6c" transform="translate(387.117188 0)"/>
     <use xlink:href="#DejaVuSans-20" transform="translate(414.900391 0)"/>
     <use xlink:href="#DejaVuSans-41" transform="translate(446.6875 0)"/>
     <use xlink:href="#DejaVuSans-50" transform="translate(515.095703 0)"/>
     <use xlink:href="#DejaVuSans-49" transform="translate(575.398438 0)"/>
    </g>
    <!-- abuse -->
    <g style="fill: #111827" transform="translate(549 428.475778) scale(0.106 -0.106)">
     <use xlink:href="#DejaVuSans-61"/>
     <use xlink:href="#DejaVuSans-62" transform="translate(61.279297 0)"/>
     <use xlink:href="#DejaVuSans-75" transform="translate(124.755859 0)"/>
     <use xlink:href="#DejaVuSans-73" transform="translate(188.134766 0)"/>
     <use xlink:href="#DejaVuSans-65" transform="translate(240.234375 0)"/>
    </g>
   </g>
   <g id="text_37">
    <!-- • -->
    <g style="fill: #4a78b5" transform="translate(532.872 471.563062) scale(0.15 -0.15)">
     <use xlink:href="#DejaVuSans-Bold-2022"/>
    </g>
   </g>
   <g id="text_38">
    <!-- Unsafe -->
    <g style="fill: #111827" transform="translate(549 464.414097) scale(0.106 -0.106)">
     <use xlink:href="#DejaVuSans-55"/>
     <use xlink:href="#DejaVuSans-6e" transform="translate(73.193359 0)"/>
     <use xlink:href="#DejaVuSans-73" transform="translate(136.572266 0)"/>
     <use xlink:href="#DejaVuSans-61" transform="translate(188.671875 0)"/>
     <use xlink:href="#DejaVuSans-66" transform="translate(249.951172 0)"/>
     <use xlink:href="#DejaVuSans-65" transform="translate(285.15625 0)"/>
    </g>
    <!-- automation -->
    <g style="fill: #111827" transform="translate(549 476.283778) scale(0.106 -0.106)">
     <use xlink:href="#DejaVuSans-61"/>
     <use xlink:href="#DejaVuSans-75" transform="translate(61.279297 0)"/>
     <use xlink:href="#DejaVuSans-74" transform="translate(124.658203 0)"/>
     <use xlink:href="#DejaVuSans-6f" transform="translate(163.867188 0)"/>
     <use xlink:href="#DejaVuSans-6d" transform="translate(225.048828 0)"/>
     <use xlink:href="#DejaVuSans-61" transform="translate(322.460938 0)"/>
     <use xlink:href="#DejaVuSans-74" transform="translate(383.740234 0)"/>
     <use xlink:href="#DejaVuSans-69" transform="translate(422.949219 0)"/>
     <use xlink:href="#DejaVuSans-6f" transform="translate(450.732422 0)"/>
     <use xlink:href="#DejaVuSans-6e" transform="translate(511.914062 0)"/>
    </g>
   </g>
   <g id="text_39">
    <!-- Protected Assets -->
    <g style="fill: #1f365c" transform="translate(677.114219 260.183125) scale(0.14 -0.14)">
     <defs>
      <path id="DejaVuSans-Bold-50" d="M 588 4666 
L 2584 4666 
Q 3475 4666 3951 4270 
Q 4428 3875 4428 3144 
Q 4428 2409 3951 2014 
Q 3475 1619 2584 1619 
L 1791 1619 
L 1791 0 
L 588 0 
L 588 4666 
z
M 1791 3794 
L 1791 2491 
L 2456 2491 
Q 2806 2491 2997 2661 
Q 3188 2831 3188 3144 
Q 3188 3456 2997 3625 
Q 2806 3794 2456 3794 
L 1791 3794 
z
" transform="scale(0.015625)"/>
      <path id="DejaVuSans-Bold-64" d="M 2919 2988 
L 2919 4863 
L 4044 4863 
L 4044 0 
L 2919 0 
L 2919 506 
Q 2688 197 2409 53 
Q 2131 -91 1766 -91 
Q 1119 -91 703 423 
Q 288 938 288 1747 
Q 288 2556 703 3070 
Q 1119 3584 1766 3584 
Q 2128 3584 2408 3439 
Q 2688 3294 2919 2988 
z
M 2181 722 
Q 2541 722 2730 984 
Q 2919 1247 2919 1747 
Q 2919 2247 2730 2509 
Q 2541 2772 2181 2772 
Q 1825 2772 1636 2509 
Q 1447 2247 1447 1747 
Q 1447 1247 1636 984 
Q 1825 722 2181 722 
z
" transform="scale(0.015625)"/>
     </defs>
     <use xlink:href="#DejaVuSans-Bold-50"/>
     <use xlink:href="#DejaVuSans-Bold-72" transform="translate(73.291016 0)"/>
     <use xlink:href="#DejaVuSans-Bold-6f" transform="translate(122.607422 0)"/>
     <use xlink:href="#DejaVuSans-Bold-74" transform="translate(191.308594 0)"/>
     <use xlink:href="#DejaVuSans-Bold-65" transform="translate(239.111328 0)"/>
     <use xlink:href="#DejaVuSans-Bold-63" transform="translate(306.933594 0)"/>
     <use xlink:href="#DejaVuSans-Bold-74" transform="translate(366.210938 0)"/>
     <use xlink:href="#DejaVuSans-Bold-65" transform="translate(414.013672 0)"/>
     <use xlink:href="#DejaVuSans-Bold-64" transform="translate(481.835938 0)"/>
     <use xlink:href="#DejaVuSans-Bold-20" transform="translate(553.417969 0)"/>
     <use xlink:href="#DejaVuSans-Bold-41" transform="translate(588.232422 0)"/>
     <use xlink:href="#DejaVuSans-Bold-73" transform="translate(665.625 0)"/>
     <use xlink:href="#DejaVuSans-Bold-73" transform="translate(725.146484 0)"/>
     <use xlink:href="#DejaVuSans-Bold-65" transform="translate(784.667969 0)"/>
     <use xlink:href="#DejaVuSans-Bold-74" transform="translate(852.490234 0)"/>
     <use xlink:href="#DejaVuSans-Bold-73" transform="translate(900.292969 0)"/>
    </g>
   </g>
   <g id="text_40">
    <!-- • -->
    <g style="fill: #4a78b5" transform="translate(688.272 328.139063) scale(0.15 -0.15)">
     <use xlink:href="#DejaVuSans-Bold-2022"/>
    </g>
   </g>
   <g id="text_41">
    <!-- Hidden prompts -->
    <g style="fill: #111827" transform="translate(704.4 326.924937) scale(0.106 -0.106)">
     <defs>
      <path id="DejaVuSans-48" d="M 628 4666 
L 1259 4666 
L 1259 2753 
L 3553 2753 
L 3553 4666 
L 4184 4666 
L 4184 0 
L 3553 0 
L 3553 2222 
L 1259 2222 
L 1259 0 
L 628 0 
L 628 4666 
z
" transform="scale(0.015625)"/>
     </defs>
     <use xlink:href="#DejaVuSans-48"/>
     <use xlink:href="#DejaVuSans-69" transform="translate(75.195312 0)"/>
     <use xlink:href="#DejaVuSans-64" transform="translate(102.978516 0)"/>
     <use xlink:href="#DejaVuSans-64" transform="translate(166.455078 0)"/>
     <use xlink:href="#DejaVuSans-65" transform="translate(229.931641 0)"/>
     <use xlink:href="#DejaVuSans-6e" transform="translate(291.455078 0)"/>
     <use xlink:href="#DejaVuSans-20" transform="translate(354.833984 0)"/>
     <use xlink:href="#DejaVuSans-70" transform="translate(386.621094 0)"/>
     <use xlink:href="#DejaVuSans-72" transform="translate(450.097656 0)"/>
     <use xlink:href="#DejaVuSans-6f" transform="translate(488.960938 0)"/>
     <use xlink:href="#DejaVuSans-6d" transform="translate(550.142578 0)"/>
     <use xlink:href="#DejaVuSans-70" transform="translate(647.554688 0)"/>
     <use xlink:href="#DejaVuSans-74" transform="translate(711.03125 0)"/>
     <use xlink:href="#DejaVuSans-73" transform="translate(750.240234 0)"/>
    </g>
   </g>
   <g id="text_42">
    <!-- • -->
    <g style="fill: #4a78b5" transform="translate(688.272 375.947063) scale(0.15 -0.15)">
     <use xlink:href="#DejaVuSans-Bold-2022"/>
    </g>
   </g>
   <g id="text_43">
    <!-- Enterprise -->
    <g style="fill: #111827" transform="translate(704.4 368.798097) scale(0.106 -0.106)">
     <use xlink:href="#DejaVuSans-45"/>
     <use xlink:href="#DejaVuSans-6e" transform="translate(63.183594 0)"/>
     <use xlink:href="#DejaVuSans-74" transform="translate(126.5625 0)"/>
     <use xlink:href="#DejaVuSans-65" transform="translate(165.771484 0)"/>
     <use xlink:href="#DejaVuSans-72" transform="translate(227.294922 0)"/>
     <use xlink:href="#DejaVuSans-70" transform="translate(268.408203 0)"/>
     <use xlink:href="#DejaVuSans-72" transform="translate(331.884766 0)"/>
     <use xlink:href="#DejaVuSans-69" transform="translate(372.998047 0)"/>
     <use xlink:href="#DejaVuSans-73" transform="translate(400.78125 0)"/>
     <use xlink:href="#DejaVuSans-65" transform="translate(452.880859 0)"/>
    </g>
    <!-- data -->
    <g style="fill: #111827" transform="translate(704.4 380.667778) scale(0.106 -0.106)">
     <use xlink:href="#DejaVuSans-64"/>
     <use xlink:href="#DejaVuSans-61" transform="translate(63.476562 0)"/>
     <use xlink:href="#DejaVuSans-74" transform="translate(124.755859 0)"/>
     <use xlink:href="#DejaVuSans-61" transform="translate(163.964844 0)"/>
    </g>
   </g>
   <g id="text_44">
    <!-- • -->
    <g style="fill: #4a78b5" transform="translate(688.272 423.755063) scale(0.15 -0.15)">
     <use xlink:href="#DejaVuSans-Bold-2022"/>
    </g>
   </g>
   <g id="text_45">
    <!-- Fine-tuned -->
    <g style="fill: #111827" transform="translate(704.4 416.606097) scale(0.106 -0.106)">
     <defs>
      <path id="DejaVuSans-46" d="M 628 4666 
L 3309 4666 
L 3309 4134 
L 1259 4134 
L 1259 2759 
L 3109 2759 
L 3109 2228 
L 1259 2228 
L 1259 0 
L 628 0 
L 628 4666 
z
" transform="scale(0.015625)"/>
      <path id="DejaVuSans-2d" d="M 313 2009 
L 1997 2009 
L 1997 1497 
L 313 1497 
L 313 2009 
z
" transform="scale(0.015625)"/>
     </defs>
     <use xlink:href="#DejaVuSans-46"/>
     <use xlink:href="#DejaVuSans-69" transform="translate(50.269531 0)"/>
     <use xlink:href="#DejaVuSans-6e" transform="translate(78.052734 0)"/>
     <use xlink:href="#DejaVuSans-65" transform="translate(141.431641 0)"/>
     <use xlink:href="#DejaVuSans-2d" transform="translate(202.955078 0)"/>
     <use xlink:href="#DejaVuSans-74" transform="translate(239.039062 0)"/>
     <use xlink:href="#DejaVuSans-75" transform="translate(278.248047 0)"/>
     <use xlink:href="#DejaVuSans-6e" transform="translate(341.626953 0)"/>
     <use xlink:href="#DejaVuSans-65" transform="translate(405.005859 0)"/>
     <use xlink:href="#DejaVuSans-64" transform="translate(466.529297 0)"/>
    </g>
    <!-- behavior -->
    <g style="fill: #111827" transform="translate(704.4 428.475778) scale(0.106 -0.106)">
     <use xlink:href="#DejaVuSans-62"/>
     <use xlink:href="#DejaVuSans-65" transform="translate(63.476562 0)"/>
     <use xlink:href="#DejaVuSans-68" transform="translate(125 0)"/>
     <use xlink:href="#DejaVuSans-61" transform="translate(188.378906 0)"/>
     <use xlink:href="#DejaVuSans-76" transform="translate(249.658203 0)"/>
     <use xlink:href="#DejaVuSans-69" transform="translate(308.837891 0)"/>
     <use xlink:href="#DejaVuSans-6f" transform="translate(336.621094 0)"/>
     <use xlink:href="#DejaVuSans-72" transform="translate(397.802734 0)"/>
    </g>
   </g>
   <g id="text_46">
    <!-- • -->
    <g style="fill: #4a78b5" transform="translate(688.272 471.563062) scale(0.15 -0.15)">
     <use xlink:href="#DejaVuSans-Bold-2022"/>
    </g>
   </g>
   <g id="text_47">
    <!-- Media -->
    <g style="fill: #111827" transform="translate(704.4 464.414097) scale(0.106 -0.106)">
     <use xlink:href="#DejaVuSans-4d"/>
     <use xlink:href="#DejaVuSans-65" transform="translate(86.279297 0)"/>
     <use xlink:href="#DejaVuSans-64" transform="translate(147.802734 0)"/>
     <use xlink:href="#DejaVuSans-69" transform="translate(211.279297 0)"/>
     <use xlink:href="#DejaVuSans-61" transform="translate(239.0625 0)"/>
    </g>
    <!-- authenticity -->
    <g style="fill: #111827" transform="translate(704.4 476.283778) scale(0.106 -0.106)">
     <use xlink:href="#DejaVuSans-61"/>
     <use xlink:href="#DejaVuSans-75" transform="translate(61.279297 0)"/>
     <use xlink:href="#DejaVuSans-74" transform="translate(124.658203 0)"/>
     <use xlink:href="#DejaVuSans-68" transform="translate(163.867188 0)"/>
     <use xlink:href="#DejaVuSans-65" transform="translate(227.246094 0)"/>
     <use xlink:href="#DejaVuSans-6e" transform="translate(288.769531 0)"/>
     <use xlink:href="#DejaVuSans-74" transform="translate(352.148438 0)"/>
     <use xlink:href="#DejaVuSans-69" transform="translate(391.357422 0)"/>
     <use xlink:href="#DejaVuSans-63" transform="translate(419.140625 0)"/>
     <use xlink:href="#DejaVuSans-69" transform="translate(474.121094 0)"/>
     <use xlink:href="#DejaVuSans-74" transform="translate(501.904297 0)"/>
     <use xlink:href="#DejaVuSans-79" transform="translate(541.113281 0)"/>
    </g>
   </g>
   <g id="text_48">
    <!-- Research Focus -->
    <g style="fill: #1f365c" transform="translate(838.2925 260.183125) scale(0.14 -0.14)">
     <defs>
      <path id="DejaVuSans-Bold-46" d="M 588 4666 
L 3834 4666 
L 3834 3756 
L 1791 3756 
L 1791 2888 
L 3713 2888 
L 3713 1978 
L 1791 1978 
L 1791 0 
L 588 0 
L 588 4666 
z
" transform="scale(0.015625)"/>
     </defs>
     <use xlink:href="#DejaVuSans-Bold-52"/>
     <use xlink:href="#DejaVuSans-Bold-65" transform="translate(77.001953 0)"/>
     <use xlink:href="#DejaVuSans-Bold-73" transform="translate(144.824219 0)"/>
     <use xlink:href="#DejaVuSans-Bold-65" transform="translate(204.345703 0)"/>
     <use xlink:href="#DejaVuSans-Bold-61" transform="translate(272.167969 0)"/>
     <use xlink:href="#DejaVuSans-Bold-72" transform="translate(339.648438 0)"/>
     <use xlink:href="#DejaVuSans-Bold-63" transform="translate(388.964844 0)"/>
     <use xlink:href="#DejaVuSans-Bold-68" transform="translate(448.242188 0)"/>
     <use xlink:href="#DejaVuSans-Bold-20" transform="translate(519.433594 0)"/>
     <use xlink:href="#DejaVuSans-Bold-46" transform="translate(554.248047 0)"/>
     <use xlink:href="#DejaVuSans-Bold-6f" transform="translate(618.558594 0)"/>
     <use xlink:href="#DejaVuSans-Bold-63" transform="translate(687.259766 0)"/>
     <use xlink:href="#DejaVuSans-Bold-75" transform="translate(746.537109 0)"/>
     <use xlink:href="#DejaVuSans-Bold-73" transform="translate(817.728516 0)"/>
    </g>
   </g>
   <g id="text_49">
    <!-- • -->
    <g style="fill: #4a78b5" transform="translate(843.672 328.139063) scale(0.15 -0.15)">
     <use xlink:href="#DejaVuSans-Bold-2022"/>
    </g>
   </g>
   <g id="text_50">
    <!-- Provenance -->
    <g style="fill: #111827" transform="translate(859.8 326.924937) scale(0.106 -0.106)">
     <use xlink:href="#DejaVuSans-50"/>
     <use xlink:href="#DejaVuSans-72" transform="translate(58.552734 0)"/>
     <use xlink:href="#DejaVuSans-6f" transform="translate(97.416016 0)"/>
     <use xlink:href="#DejaVuSans-76" transform="translate(158.597656 0)"/>
     <use xlink:href="#DejaVuSans-65" transform="translate(217.777344 0)"/>
     <use xlink:href="#DejaVuSans-6e" transform="translate(279.300781 0)"/>
     <use xlink:href="#DejaVuSans-61" transform="translate(342.679688 0)"/>
     <use xlink:href="#DejaVuSans-6e" transform="translate(403.958984 0)"/>
     <use xlink:href="#DejaVuSans-63" transform="translate(467.337891 0)"/>
     <use xlink:href="#DejaVuSans-65" transform="translate(522.318359 0)"/>
    </g>
   </g>
   <g id="text_51">
    <!-- • -->
    <g style="fill: #4a78b5" transform="translate(843.672 375.947063) scale(0.15 -0.15)">
     <use xlink:href="#DejaVuSans-Bold-2022"/>
    </g>
   </g>
   <g id="text_52">
    <!-- Output -->
    <g style="fill: #111827" transform="translate(859.8 368.798097) scale(0.106 -0.106)">
     <use xlink:href="#DejaVuSans-4f"/>
     <use xlink:href="#DejaVuSans-75" transform="translate(78.710938 0)"/>
     <use xlink:href="#DejaVuSans-74" transform="translate(142.089844 0)"/>
     <use xlink:href="#DejaVuSans-70" transform="translate(181.298828 0)"/>
     <use xlink:href="#DejaVuSans-75" transform="translate(244.775391 0)"/>
     <use xlink:href="#DejaVuSans-74" transform="translate(308.154297 0)"/>
    </g>
    <!-- validation -->
    <g style="fill: #111827" transform="translate(859.8 380.667778) scale(0.106 -0.106)">
     <use xlink:href="#DejaVuSans-76"/>
     <use xlink:href="#DejaVuSans-61" transform="translate(59.179688 0)"/>
     <use xlink:href="#DejaVuSans-6c" transform="translate(120.458984 0)"/>
     <use xlink:href="#DejaVuSans-69" transform="translate(148.242188 0)"/>
     <use xlink:href="#DejaVuSans-64" transform="translate(176.025391 0)"/>
     <use xlink:href="#DejaVuSans-61" transform="translate(239.501953 0)"/>
     <use xlink:href="#DejaVuSans-74" transform="translate(300.78125 0)"/>
     <use xlink:href="#DejaVuSans-69" transform="translate(339.990234 0)"/>
     <use xlink:href="#DejaVuSans-6f" transform="translate(367.773438 0)"/>
     <use xlink:href="#DejaVuSans-6e" transform="translate(428.955078 0)"/>
    </g>
   </g>
   <g id="text_53">
    <!-- • -->
    <g style="fill: #4a78b5" transform="translate(843.672 423.755063) scale(0.15 -0.15)">
     <use xlink:href="#DejaVuSans-Bold-2022"/>
    </g>
   </g>
   <g id="text_54">
    <!-- Permission -->
    <g style="fill: #111827" transform="translate(859.8 416.606097) scale(0.106 -0.106)">
     <use xlink:href="#DejaVuSans-50"/>
     <use xlink:href="#DejaVuSans-65" transform="translate(56.677734 0)"/>
     <use xlink:href="#DejaVuSans-72" transform="translate(118.201172 0)"/>
     <use xlink:href="#DejaVuSans-6d" transform="translate(157.564453 0)"/>
     <use xlink:href="#DejaVuSans-69" transform="translate(254.976562 0)"/>
     <use xlink:href="#DejaVuSans-73" transform="translate(282.759766 0)"/>
     <use xlink:href="#DejaVuSans-73" transform="translate(334.859375 0)"/>
     <use xlink:href="#DejaVuSans-69" transform="translate(386.958984 0)"/>
     <use xlink:href="#DejaVuSans-6f" transform="translate(414.742188 0)"/>
     <use xlink:href="#DejaVuSans-6e" transform="translate(475.923828 0)"/>
    </g>
    <!-- scoping -->
    <g style="fill: #111827" transform="translate(859.8 428.475778) scale(0.106 -0.106)">
     <use xlink:href="#DejaVuSans-73"/>
     <use xlink:href="#DejaVuSans-63" transform="translate(52.099609 0)"/>
     <use xlink:href="#DejaVuSans-6f" transform="translate(107.080078 0)"/>
     <use xlink:href="#DejaVuSans-70" transform="translate(168.261719 0)"/>
     <use xlink:href="#DejaVuSans-69" transform="translate(231.738281 0)"/>
     <use xlink:href="#DejaVuSans-6e" transform="translate(259.521484 0)"/>
     <use xlink:href="#DejaVuSans-67" transform="translate(322.900391 0)"/>
    </g>
   </g>
   <g id="text_55">
    <!-- • -->
    <g style="fill: #4a78b5" transform="translate(843.672 471.563062) scale(0.15 -0.15)">
     <use xlink:href="#DejaVuSans-Bold-2022"/>
    </g>
   </g>
   <g id="text_56">
    <!-- System-level -->
    <g style="fill: #111827" transform="translate(859.8 464.414097) scale(0.106 -0.106)">
     <use xlink:href="#DejaVuSans-53"/>
     <use xlink:href="#DejaVuSans-79" transform="translate(63.476562 0)"/>
     <use xlink:href="#DejaVuSans-73" transform="translate(122.65625 0)"/>
     <use xlink:href="#DejaVuSans-74" transform="translate(174.755859 0)"/>
     <use xlink:href="#DejaVuSans-65" transform="translate(213.964844 0)"/>
     <use xlink:href="#DejaVuSans-6d" transform="translate(275.488281 0)"/>
     <use xlink:href="#DejaVuSans-2d" transform="translate(372.900391 0)"/>
     <use xlink:href="#DejaVuSans-6c" transform="translate(408.984375 0)"/>
     <use xlink:href="#DejaVuSans-65" transform="translate(436.767578 0)"/>
     <use xlink:href="#DejaVuSans-76" transform="translate(498.291016 0)"/>
     <use xlink:href="#DejaVuSans-65" transform="translate(557.470703 0)"/>
     <use xlink:href="#DejaVuSans-6c" transform="translate(618.994141 0)"/>
    </g>
    <!-- assurance -->
    <g style="fill: #111827" transform="translate(859.8 476.283778) scale(0.106 -0.106)">
     <use xlink:href="#DejaVuSans-61"/>
     <use xlink:href="#DejaVuSans-73" transform="translate(61.279297 0)"/>
     <use xlink:href="#DejaVuSans-73" transform="translate(113.378906 0)"/>
     <use xlink:href="#DejaVuSans-75" transform="translate(165.478516 0)"/>
     <use xlink:href="#DejaVuSans-72" transform="translate(228.857422 0)"/>
     <use xlink:href="#DejaVuSans-61" transform="translate(269.970703 0)"/>
     <use xlink:href="#DejaVuSans-6e" transform="translate(331.25 0)"/>
     <use xlink:href="#DejaVuSans-63" transform="translate(394.628906 0)"/>
     <use xlink:href="#DejaVuSans-65" transform="translate(449.609375 0)"/>
    </g>
   </g>
  </g>
 </g>
 <defs>
  <clipPath id="pfe260e67ae">
   <rect x="7.2" y="7.2" width="1008" height="576"/>
  </clipPath>
 </defs>
</svg>
