<?xml version="1.0" encoding="utf-8" standalone="no"?>
<!DOCTYPE svg PUBLIC "-//W3C//DTD SVG 1.1//EN"
  "http://www.w3.org/Graphics/SVG/1.1/DTD/svg11.dtd">
<svg xmlns:xlink="http://www.w3.org/1999/xlink" width="1022.4pt" height="590.4pt" viewBox="0 0 1022.4 590.4" xmlns="http://www.w3.org/2000/svg" version="1.1">
 <metadata>
  <rdf:RDF xmlns:dc="http://purl.org/dc/elements/1.1/" xmlns:cc="http://creativecommons.org/ns#" xmlns:rdf="http://www.w3.org/1999/02/22-rdf-syntax-ns#">
   <cc:Work>
    <dc:type rdf:resource="http://purl.org/dc/dcmitype/StillImage"/>
    <dc:date>2026-03-19T14:44:23.429668</dc:date>
    <dc:format>image/svg+xml</dc:format>
    <dc:creator>
     <cc:Agent>
      <dc:title>Matplotlib v3.10.8, https://matplotlib.org/</dc:title>
     </cc:Agent>
    </dc:creator>
   </cc:Work>
  </rdf:RDF>
 </metadata>
 <defs>
  <style type="text/css">*{stroke-linejoin: round; stroke-linecap: butt}</style>
 </defs>
 <g id="figure_1">
  <g id="patch_1">
   <path d="M 0 590.4 
L 1022.4 590.4 
L 1022.4 0 
L 0 0 
z
" style="fill: #ffffff"/>
  </g>
  <g id="axes_1">
   <g id="patch_2">
    <path d="M 33.408 572.832 
L 988.992 572.832 
Q 1007.136 572.832 1007.136 562.464 
L 1007.136 27.936 
Q 1007.136 17.568 988.992 17.568 
L 33.408 17.568 
Q 15.264 17.568 15.264 27.936 
L 15.264 562.464 
Q 15.264 572.832 33.408 572.832 
z
" clip-path="url(#pff62787e7f)" style="fill: #ffffff; stroke: #d7deea; stroke-linejoin: miter"/>
   </g>
   <g id="patch_3">
    <path d="M 404.352 161.568 
L 618.048 161.568 
Q 630.144 161.568 630.144 154.656 
L 630.144 116.064 
Q 630.144 109.152 618.048 109.152 
L 404.352 109.152 
Q 392.256 109.152 392.256 116.064 
L 392.256 154.656 
Q 392.256 161.568 404.352 161.568 
z
" clip-path="url(#pff62787e7f)" style="fill: #eaf1fb; stroke: #1f365c; stroke-width: 1.5; stroke-linejoin: miter"/>
   </g>
   <g id="patch_4">
    <path d="M 122.784 219.168 
L 136.896 219.168 
L 129.84 228.384 
z
" clip-path="url(#pff62787e7f)" style="fill: #64748b; stroke: #64748b; stroke-linejoin: miter"/>
   </g>
   <g id="patch_5">
    <path d="M 72.72 495.648 
L 186.96 495.648 
Q 205.104 495.648 205.104 485.28 
L 205.104 231.84 
Q 205.104 221.472 186.96 221.472 
L 72.72 221.472 
Q 54.576 221.472 54.576 231.84 
L 54.576 485.28 
Q 54.576 495.648 72.72 495.648 
z
" clip-path="url(#pff62787e7f)" style="fill: #ffffff; stroke: #4a78b5; stroke-width: 1.2; stroke-linejoin: miter"/>
   </g>
   <g id="patch_6">
    <path d="M 72.72 302.688 
L 186.96 302.688 
Q 205.104 302.688 205.104 292.32 
L 205.104 231.84 
Q 205.104 221.472 186.96 221.472 
L 72.72 221.472 
Q 54.576 221.472 54.576 231.84 
L 54.576 292.32 
Q 54.576 302.688 72.72 302.688 
z
" clip-path="url(#pff62787e7f)" style="fill: #f7f9fc"/>
   </g>
   <g id="patch_7">
    <path d="M 275.328 219.168 
L 289.44 219.168 
L 282.384 228.384 
z
" clip-path="url(#pff62787e7f)" style="fill: #64748b; stroke: #64748b; stroke-linejoin: miter"/>
   </g>
   <g id="patch_8">
    <path d="M 225.264 495.648 
L 339.504 495.648 
Q 357.648 495.648 357.648 485.28 
L 357.648 231.84 
Q 357.648 221.472 339.504 221.472 
L 225.264 221.472 
Q 207.12 221.472 207.12 231.84 
L 207.12 485.28 
Q 207.12 495.648 225.264 495.648 
z
" clip-path="url(#pff62787e7f)" style="fill: #ffffff; stroke: #4a78b5; stroke-width: 1.2; stroke-linejoin: miter"/>
   </g>
   <g id="patch_9">
    <path d="M 225.264 302.688 
L 339.504 302.688 
Q 357.648 302.688 357.648 292.32 
L 357.648 231.84 
Q 357.648 221.472 339.504 221.472 
L 225.264 221.472 
Q 207.12 221.472 207.12 231.84 
L 207.12 292.32 
Q 207.12 302.688 225.264 302.688 
z
" clip-path="url(#pff62787e7f)" style="fill: #f7f9fc"/>
   </g>
   <g id="patch_10">
    <path d="M 427.872 219.168 
L 441.984 219.168 
L 434.928 228.384 
z
" clip-path="url(#pff62787e7f)" style="fill: #64748b; stroke: #64748b; stroke-linejoin: miter"/>
   </g>
   <g id="patch_11">
    <path d="M 377.808 495.648 
L 492.048 495.648 
Q 510.192 495.648 510.192 485.28 
L 510.192 231.84 
Q 510.192 221.472 492.048 221.472 
L 377.808 221.472 
Q 359.664 221.472 359.664 231.84 
L 359.664 485.28 
Q 359.664 495.648 377.808 495.648 
z
" clip-path="url(#pff62787e7f)" style="fill: #ffffff; stroke: #4a78b5; stroke-width: 1.2; stroke-linejoin: miter"/>
   </g>
   <g id="patch_12">
    <path d="M 377.808 302.688 
L 492.048 302.688 
Q 510.192 302.688 510.192 292.32 
L 510.192 231.84 
Q 510.192 221.472 492.048 221.472 
L 377.808 221.472 
Q 359.664 221.472 359.664 231.84 
L 359.664 292.32 
Q 359.664 302.688 377.808 302.688 
z
" clip-path="url(#pff62787e7f)" style="fill: #f7f9fc"/>
   </g>
   <g id="patch_13">
    <path d="M 580.416 219.168 
L 594.528 219.168 
L 587.472 228.384 
z
" clip-path="url(#pff62787e7f)" style="fill: #64748b; stroke: #64748b; stroke-linejoin: miter"/>
   </g>
   <g id="patch_14">
    <path d="M 530.352 495.648 
L 644.592 495.648 
Q 662.736 495.648 662.736 485.28 
L 662.736 231.84 
Q 662.736 221.472 644.592 221.472 
L 530.352 221.472 
Q 512.208 221.472 512.208 231.84 
L 512.208 485.28 
Q 512.208 495.648 530.352 495.648 
z
" clip-path="url(#pff62787e7f)" style="fill: #ffffff; stroke: #4a78b5; stroke-width: 1.2; stroke-linejoin: miter"/>
   </g>
   <g id="patch_15">
    <path d="M 530.352 302.688 
L 644.592 302.688 
Q 662.736 302.688 662.736 292.32 
L 662.736 231.84 
Q 662.736 221.472 644.592 221.472 
L 530.352 221.472 
Q 512.208 221.472 512.208 231.84 
L 512.208 292.32 
Q 512.208 302.688 530.352 302.688 
z
" clip-path="url(#pff62787e7f)" style="fill: #f7f9fc"/>
   </g>
   <g id="patch_16">
    <path d="M 732.96 219.168 
L 747.072 219.168 
L 740.016 228.384 
z
" clip-path="url(#pff62787e7f)" style="fill: #64748b; stroke: #64748b; stroke-linejoin: miter"/>
   </g>
   <g id="patch_17">
    <path d="M 682.896 495.648 
L 797.136 495.648 
Q 815.28 495.648 815.28 485.28 
L 815.28 231.84 
Q 815.28 221.472 797.136 221.472 
L 682.896 221.472 
Q 664.752 221.472 664.752 231.84 
L 664.752 485.28 
Q 664.752 495.648 682.896 495.648 
z
" clip-path="url(#pff62787e7f)" style="fill: #ffffff; stroke: #4a78b5; stroke-width: 1.2; stroke-linejoin: miter"/>
   </g>
   <g id="patch_18">
    <path d="M 682.896 302.688 
L 797.136 302.688 
Q 815.28 302.688 815.28 292.32 
L 815.28 231.84 
Q 815.28 221.472 797.136 221.472 
L 682.896 221.472 
Q 664.752 221.472 664.752 231.84 
L 664.752 292.32 
Q 664.752 302.688 682.896 302.688 
z
" clip-path="url(#pff62787e7f)" style="fill: #f7f9fc"/>
   </g>
   <g id="patch_19">
    <path d="M 885.504 219.168 
L 899.616 219.168 
L 892.56 228.384 
z
" clip-path="url(#pff62787e7f)" style="fill: #64748b; stroke: #64748b; stroke-linejoin: miter"/>
   </g>
   <g id="patch_20">
    <path d="M 835.44 495.648 
L 949.68 495.648 
Q 967.824 495.648 967.824 485.28 
L 967.824 231.84 
Q 967.824 221.472 949.68 221.472 
L 835.44 221.472 
Q 817.296 221.472 817.296 231.84 
L 817.296 485.28 
Q 817.296 495.648 835.44 495.648 
z
" clip-path="url(#pff62787e7f)" style="fill: #ffffff; stroke: #4a78b5; stroke-width: 1.2; stroke-linejoin: miter"/>
   </g>
   <g id="patch_21">
    <path d="M 835.44 302.688 
L 949.68 302.688 
Q 967.824 302.688 967.824 292.32 
L 967.824 231.84 
Q 967.824 221.472 949.68 221.472 
L 835.44 221.472 
Q 817.296 221.472 817.296 231.84 
L 817.296 292.32 
Q 817.296 302.688 835.44 302.688 
z
" clip-path="url(#pff62787e7f)" style="fill: #f7f9fc"/>
   </g>
   <g id="line2d_1">
    <path d="M 92.88 182.88 
L 929.52 182.88 
" clip-path="url(#pff62787e7f)" style="fill: none; stroke: #94a3b8; stroke-width: 1.2; stroke-linecap: square"/>
   </g>
   <g id="line2d_2">
    <path d="M 511.2 156.96 
L 511.2 182.88 
" clip-path="url(#pff62787e7f)" style="fill: none; stroke: #94a3b8; stroke-width: 1.2; stroke-linecap: square"/>
   </g>
   <g id="line2d_3">
    <path d="M 129.84 182.88 
L 129.84 220.32 
" clip-path="url(#pff62787e7f)" style="fill: none; stroke: #94a3b8; stroke-linecap: square"/>
   </g>
   <g id="line2d_4">
    <path d="M 62.64 298.08 
L 197.04 298.08 
" clip-path="url(#pff62787e7f)" style="fill: none; stroke: #c9d7eb; stroke-linecap: square"/>
   </g>
   <g id="line2d_5">
    <path d="M 82.8 352.8 
L 176.88 352.8 
" clip-path="url(#pff62787e7f)" style="fill: none; stroke: #d1d5db; stroke-width: 0.8; stroke-linecap: square"/>
   </g>
   <g id="line2d_6">
    <path d="M 82.8 413.28 
L 176.88 413.28 
" clip-path="url(#pff62787e7f)" style="fill: none; stroke: #d1d5db; stroke-width: 0.8; stroke-linecap: square"/>
   </g>
   <g id="line2d_7">
    <path d="M 282.384 182.88 
L 282.384 220.32 
" clip-path="url(#pff62787e7f)" style="fill: none; stroke: #94a3b8; stroke-linecap: square"/>
   </g>
   <g id="line2d_8">
    <path d="M 215.184 298.08 
L 349.584 298.08 
" clip-path="url(#pff62787e7f)" style="fill: none; stroke: #c9d7eb; stroke-linecap: square"/>
   </g>
   <g id="line2d_9">
    <path d="M 235.344 352.8 
L 329.424 352.8 
" clip-path="url(#pff62787e7f)" style="fill: none; stroke: #d1d5db; stroke-width: 0.8; stroke-linecap: square"/>
   </g>
   <g id="line2d_10">
    <path d="M 235.344 413.28 
L 329.424 413.28 
" clip-path="url(#pff62787e7f)" style="fill: none; stroke: #d1d5db; stroke-width: 0.8; stroke-linecap: square"/>
   </g>
   <g id="line2d_11">
    <path d="M 434.928 182.88 
L 434.928 220.32 
" clip-path="url(#pff62787e7f)" style="fill: none; stroke: #94a3b8; stroke-linecap: square"/>
   </g>
   <g id="line2d_12">
    <path d="M 367.728 298.08 
L 502.128 298.08 
" clip-path="url(#pff62787e7f)" style="fill: none; stroke: #c9d7eb; stroke-linecap: square"/>
   </g>
   <g id="line2d_13">
    <path d="M 387.888 352.8 
L 481.968 352.8 
" clip-path="url(#pff62787e7f)" style="fill: none; stroke: #d1d5db; stroke-width: 0.8; stroke-linecap: square"/>
   </g>
   <g id="line2d_14">
    <path d="M 387.888 413.28 
L 481.968 413.28 
" clip-path="url(#pff62787e7f)" style="fill: none; stroke: #d1d5db; stroke-width: 0.8; stroke-linecap: square"/>
   </g>
   <g id="line2d_15">
    <path d="M 587.472 182.88 
L 587.472 220.32 
" clip-path="url(#pff62787e7f)" style="fill: none; stroke: #94a3b8; stroke-linecap: square"/>
   </g>
   <g id="line2d_16">
    <path d="M 520.272 298.08 
L 654.672 298.08 
" clip-path="url(#pff62787e7f)" style="fill: none; stroke: #c9d7eb; stroke-linecap: square"/>
   </g>
   <g id="line2d_17">
    <path d="M 540.432 352.8 
L 634.512 352.8 
" clip-path="url(#pff62787e7f)" style="fill: none; stroke: #d1d5db; stroke-width: 0.8; stroke-linecap: square"/>
   </g>
   <g id="line2d_18">
    <path d="M 540.432 413.28 
L 634.512 413.28 
" clip-path="url(#pff62787e7f)" style="fill: none; stroke: #d1d5db; stroke-width: 0.8; stroke-linecap: square"/>
   </g>
   <g id="line2d_19">
    <path d="M 740.016 182.88 
L 740.016 220.32 
" clip-path="url(#pff62787e7f)" style="fill: none; stroke: #94a3b8; stroke-linecap: square"/>
   </g>
   <g id="line2d_20">
    <path d="M 672.816 298.08 
L 807.216 298.08 
" clip-path="url(#pff62787e7f)" style="fill: none; stroke: #c9d7eb; stroke-linecap: square"/>
   </g>
   <g id="line2d_21">
    <path d="M 692.976 352.8 
L 787.056 352.8 
" clip-path="url(#pff62787e7f)" style="fill: none; stroke: #d1d5db; stroke-width: 0.8; stroke-linecap: square"/>
   </g>
   <g id="line2d_22">
    <path d="M 692.976 413.28 
L 787.056 413.28 
" clip-path="url(#pff62787e7f)" style="fill: none; stroke: #d1d5db; stroke-width: 0.8; stroke-linecap: square"/>
   </g>
   <g id="line2d_23">
    <path d="M 892.56 182.88 
L 892.56 220.32 
" clip-path="url(#pff62787e7f)" style="fill: none; stroke: #94a3b8; stroke-linecap: square"/>
   </g>
   <g id="line2d_24">
    <path d="M 825.36 298.08 
L 959.76 298.08 
" clip-path="url(#pff62787e7f)" style="fill: none; stroke: #c9d7eb; stroke-linecap: square"/>
   </g>
   <g id="line2d_25">
    <path d="M 845.52 352.8 
L 939.6 352.8 
" clip-path="url(#pff62787e7f)" style="fill: none; stroke: #d1d5db; stroke-width: 0.8; stroke-linecap: square"/>
   </g>
   <g id="line2d_26">
    <path d="M 845.52 413.28 
L 939.6 413.28 
" clip-path="url(#pff62787e7f)" style="fill: none; stroke: #d1d5db; stroke-width: 0.8; stroke-linecap: square"/>
   </g>
   <g id="text_1">
    <!-- Agentic AI Security -->
    <g style="fill: #1f365c" transform="translate(381.545625 71.32875) scale(0.24 -0.24)">
     <defs>
      <path id="DejaVuSans-Bold-41" d="M 3419 850 
L 1538 850 
L 1241 0 
L 31 0 
L 1759 4666 
L 3194 4666 
L 4922 0 
L 3713 0 
L 3419 850 
z
M 1838 1716 
L 3116 1716 
L 2478 3572 
L 1838 1716 
z
" transform="scale(0.015625)"/>
      <path id="DejaVuSans-Bold-67" d="M 2919 594 
Q 2688 288 2409 144 
Q 2131 0 1766 0 
Q 1125 0 706 504 
Q 288 1009 288 1791 
Q 288 2575 706 3076 
Q 1125 3578 1766 3578 
Q 2131 3578 2409 3434 
Q 2688 3291 2919 2981 
L 2919 3500 
L 4044 3500 
L 4044 353 
Q 4044 -491 3511 -936 
Q 2978 -1381 1966 -1381 
Q 1638 -1381 1331 -1331 
Q 1025 -1281 716 -1178 
L 716 -306 
Q 1009 -475 1290 -558 
Q 1572 -641 1856 -641 
Q 2406 -641 2662 -400 
Q 2919 -159 2919 353 
L 2919 594 
z
M 2181 2772 
Q 1834 2772 1640 2515 
Q 1447 2259 1447 1791 
Q 1447 1309 1634 1061 
Q 1822 813 2181 813 
Q 2531 813 2725 1069 
Q 2919 1325 2919 1791 
Q 2919 2259 2725 2515 
Q 2531 2772 2181 2772 
z
" transform="scale(0.015625)"/>
      <path id="DejaVuSans-Bold-65" d="M 4031 1759 
L 4031 1441 
L 1416 1441 
Q 1456 1047 1700 850 
Q 1944 653 2381 653 
Q 2734 653 3104 758 
Q 3475 863 3866 1075 
L 3866 213 
Q 3469 63 3072 -14 
Q 2675 -91 2278 -91 
Q 1328 -91 801 392 
Q 275 875 275 1747 
Q 275 2603 792 3093 
Q 1309 3584 2216 3584 
Q 3041 3584 3536 3087 
Q 4031 2591 4031 1759 
z
M 2881 2131 
Q 2881 2450 2695 2645 
Q 2509 2841 2209 2841 
Q 1884 2841 1681 2658 
Q 1478 2475 1428 2131 
L 2881 2131 
z
" transform="scale(0.015625)"/>
      <path id="DejaVuSans-Bold-6e" d="M 4056 2131 
L 4056 0 
L 2931 0 
L 2931 347 
L 2931 1631 
Q 2931 2084 2911 2256 
Q 2891 2428 2841 2509 
Q 2775 2619 2662 2680 
Q 2550 2741 2406 2741 
Q 2056 2741 1856 2470 
Q 1656 2200 1656 1722 
L 1656 0 
L 538 0 
L 538 3500 
L 1656 3500 
L 1656 2988 
Q 1909 3294 2193 3439 
Q 2478 3584 2822 3584 
Q 3428 3584 3742 3212 
Q 4056 2841 4056 2131 
z
" transform="scale(0.015625)"/>
      <path id="DejaVuSans-Bold-74" d="M 1759 4494 
L 1759 3500 
L 2913 3500 
L 2913 2700 
L 1759 2700 
L 1759 1216 
Q 1759 972 1856 886 
Q 1953 800 2241 800 
L 2816 800 
L 2816 0 
L 1856 0 
Q 1194 0 917 276 
Q 641 553 641 1216 
L 641 2700 
L 84 2700 
L 84 3500 
L 641 3500 
L 641 4494 
L 1759 4494 
z
" transform="scale(0.015625)"/>
      <path id="DejaVuSans-Bold-69" d="M 538 3500 
L 1656 3500 
L 1656 0 
L 538 0 
L 538 3500 
z
M 538 4863 
L 1656 4863 
L 1656 3950 
L 538 3950 
L 538 4863 
z
" transform="scale(0.015625)"/>
      <path id="DejaVuSans-Bold-63" d="M 3366 3391 
L 3366 2478 
Q 3138 2634 2908 2709 
Q 2678 2784 2431 2784 
Q 1963 2784 1702 2511 
Q 1441 2238 1441 1747 
Q 1441 1256 1702 982 
Q 1963 709 2431 709 
Q 2694 709 2930 787 
Q 3166 866 3366 1019 
L 3366 103 
Q 3103 6 2833 -42 
Q 2563 -91 2291 -91 
Q 1344 -91 809 395 
Q 275 881 275 1747 
Q 275 2613 809 3098 
Q 1344 3584 2291 3584 
Q 2566 3584 2833 3536 
Q 3100 3488 3366 3391 
z
" transform="scale(0.015625)"/>
      <path id="DejaVuSans-Bold-20" transform="scale(0.015625)"/>
      <path id="DejaVuSans-Bold-49" d="M 588 4666 
L 1791 4666 
L 1791 0 
L 588 0 
L 588 4666 
z
" transform="scale(0.015625)"/>
      <path id="DejaVuSans-Bold-53" d="M 3834 4519 
L 3834 3531 
Q 3450 3703 3084 3790 
Q 2719 3878 2394 3878 
Q 1963 3878 1756 3759 
Q 1550 3641 1550 3391 
Q 1550 3203 1689 3098 
Q 1828 2994 2194 2919 
L 2706 2816 
Q 3484 2659 3812 2340 
Q 4141 2022 4141 1434 
Q 4141 663 3683 286 
Q 3225 -91 2284 -91 
Q 1841 -91 1394 -6 
Q 947 78 500 244 
L 500 1259 
Q 947 1022 1364 901 
Q 1781 781 2169 781 
Q 2563 781 2772 912 
Q 2981 1044 2981 1288 
Q 2981 1506 2839 1625 
Q 2697 1744 2272 1838 
L 1806 1941 
Q 1106 2091 782 2419 
Q 459 2747 459 3303 
Q 459 4000 909 4375 
Q 1359 4750 2203 4750 
Q 2588 4750 2994 4692 
Q 3400 4634 3834 4519 
z
" transform="scale(0.015625)"/>
      <path id="DejaVuSans-Bold-75" d="M 500 1363 
L 500 3500 
L 1625 3500 
L 1625 3150 
Q 1625 2866 1622 2436 
Q 1619 2006 1619 1863 
Q 1619 1441 1641 1255 
Q 1663 1069 1716 984 
Q 1784 875 1895 815 
Q 2006 756 2150 756 
Q 2500 756 2700 1025 
Q 2900 1294 2900 1772 
L 2900 3500 
L 4019 3500 
L 4019 0 
L 2900 0 
L 2900 506 
Q 2647 200 2364 54 
Q 2081 -91 1741 -91 
Q 1134 -91 817 281 
Q 500 653 500 1363 
z
" transform="scale(0.015625)"/>
      <path id="DejaVuSans-Bold-72" d="M 3138 2547 
Q 2991 2616 2845 2648 
Q 2700 2681 2553 2681 
Q 2122 2681 1889 2404 
Q 1656 2128 1656 1613 
L 1656 0 
L 538 0 
L 538 3500 
L 1656 3500 
L 1656 2925 
Q 1872 3269 2151 3426 
Q 2431 3584 2822 3584 
Q 2878 3584 2943 3579 
Q 3009 3575 3134 3559 
L 3138 2547 
z
" transform="scale(0.015625)"/>
      <path id="DejaVuSans-Bold-79" d="M 78 3500 
L 1197 3500 
L 2138 1125 
L 2938 3500 
L 4056 3500 
L 2584 -331 
Q 2363 -916 2067 -1148 
Q 1772 -1381 1288 -1381 
L 641 -1381 
L 641 -647 
L 991 -647 
Q 1275 -647 1404 -556 
Q 1534 -466 1606 -231 
L 1638 -134 
L 78 3500 
z
" transform="scale(0.015625)"/>
     </defs>
     <use xlink:href="#DejaVuSans-Bold-41"/>
     <use xlink:href="#DejaVuSans-Bold-67" transform="translate(77.392578 0)"/>
     <use xlink:href="#DejaVuSans-Bold-65" transform="translate(148.974609 0)"/>
     <use xlink:href="#DejaVuSans-Bold-6e" transform="translate(216.796875 0)"/>
     <use xlink:href="#DejaVuSans-Bold-74" transform="translate(287.988281 0)"/>
     <use xlink:href="#DejaVuSans-Bold-69" transform="translate(335.791016 0)"/>
     <use xlink:href="#DejaVuSans-Bold-63" transform="translate(370.068359 0)"/>
     <use xlink:href="#DejaVuSans-Bold-20" transform="translate(429.345703 0)"/>
     <use xlink:href="#DejaVuSans-Bold-41" transform="translate(464.160156 0)"/>
     <use xlink:href="#DejaVuSans-Bold-49" transform="translate(541.552734 0)"/>
     <use xlink:href="#DejaVuSans-Bold-20" transform="translate(578.759766 0)"/>
     <use xlink:href="#DejaVuSans-Bold-53" transform="translate(613.574219 0)"/>
     <use xlink:href="#DejaVuSans-Bold-65" transform="translate(685.595703 0)"/>
     <use xlink:href="#DejaVuSans-Bold-63" transform="translate(753.417969 0)"/>
     <use xlink:href="#DejaVuSans-Bold-75" transform="translate(812.695312 0)"/>
     <use xlink:href="#DejaVuSans-Bold-72" transform="translate(883.886719 0)"/>
     <use xlink:href="#DejaVuSans-Bold-69" transform="translate(933.203125 0)"/>
     <use xlink:href="#DejaVuSans-Bold-74" transform="translate(967.480469 0)"/>
     <use xlink:href="#DejaVuSans-Bold-79" transform="translate(1015.283203 0)"/>
    </g>
   </g>
   <g id="text_2">
    <!-- Countermeasures -->
    <g style="fill: #1f365c" transform="translate(426.516094 140.050938) scale(0.17 -0.17)">
     <defs>
      <path id="DejaVuSans-Bold-43" d="M 4288 256 
Q 3956 84 3597 -3 
Q 3238 -91 2847 -91 
Q 1681 -91 1000 561 
Q 319 1213 319 2328 
Q 319 3447 1000 4098 
Q 1681 4750 2847 4750 
Q 3238 4750 3597 4662 
Q 3956 4575 4288 4403 
L 4288 3438 
Q 3953 3666 3628 3772 
Q 3303 3878 2944 3878 
Q 2300 3878 1931 3465 
Q 1563 3053 1563 2328 
Q 1563 1606 1931 1193 
Q 2300 781 2944 781 
Q 3303 781 3628 887 
Q 3953 994 4288 1222 
L 4288 256 
z
" transform="scale(0.015625)"/>
      <path id="DejaVuSans-Bold-6f" d="M 2203 2784 
Q 1831 2784 1636 2517 
Q 1441 2250 1441 1747 
Q 1441 1244 1636 976 
Q 1831 709 2203 709 
Q 2569 709 2762 976 
Q 2956 1244 2956 1747 
Q 2956 2250 2762 2517 
Q 2569 2784 2203 2784 
z
M 2203 3584 
Q 3106 3584 3614 3096 
Q 4122 2609 4122 1747 
Q 4122 884 3614 396 
Q 3106 -91 2203 -91 
Q 1297 -91 786 396 
Q 275 884 275 1747 
Q 275 2609 786 3096 
Q 1297 3584 2203 3584 
z
" transform="scale(0.015625)"/>
      <path id="DejaVuSans-Bold-6d" d="M 3781 2919 
Q 3994 3244 4286 3414 
Q 4578 3584 4928 3584 
Q 5531 3584 5847 3212 
Q 6163 2841 6163 2131 
L 6163 0 
L 5038 0 
L 5038 1825 
Q 5041 1866 5042 1909 
Q 5044 1953 5044 2034 
Q 5044 2406 4934 2573 
Q 4825 2741 4581 2741 
Q 4263 2741 4089 2478 
Q 3916 2216 3909 1719 
L 3909 0 
L 2784 0 
L 2784 1825 
Q 2784 2406 2684 2573 
Q 2584 2741 2328 2741 
Q 2006 2741 1831 2477 
Q 1656 2213 1656 1722 
L 1656 0 
L 531 0 
L 531 3500 
L 1656 3500 
L 1656 2988 
Q 1863 3284 2130 3434 
Q 2397 3584 2719 3584 
Q 3081 3584 3359 3409 
Q 3638 3234 3781 2919 
z
" transform="scale(0.015625)"/>
      <path id="DejaVuSans-Bold-61" d="M 2106 1575 
Q 1756 1575 1579 1456 
Q 1403 1338 1403 1106 
Q 1403 894 1545 773 
Q 1688 653 1941 653 
Q 2256 653 2472 879 
Q 2688 1106 2688 1447 
L 2688 1575 
L 2106 1575 
z
M 3816 1997 
L 3816 0 
L 2688 0 
L 2688 519 
Q 2463 200 2181 54 
Q 1900 -91 1497 -91 
Q 953 -91 614 226 
Q 275 544 275 1050 
Q 275 1666 698 1953 
Q 1122 2241 2028 2241 
L 2688 2241 
L 2688 2328 
Q 2688 2594 2478 2717 
Q 2269 2841 1825 2841 
Q 1466 2841 1156 2769 
Q 847 2697 581 2553 
L 581 3406 
Q 941 3494 1303 3539 
Q 1666 3584 2028 3584 
Q 2975 3584 3395 3211 
Q 3816 2838 3816 1997 
z
" transform="scale(0.015625)"/>
      <path id="DejaVuSans-Bold-73" d="M 3272 3391 
L 3272 2541 
Q 2913 2691 2578 2766 
Q 2244 2841 1947 2841 
Q 1628 2841 1473 2761 
Q 1319 2681 1319 2516 
Q 1319 2381 1436 2309 
Q 1553 2238 1856 2203 
L 2053 2175 
Q 2913 2066 3209 1816 
Q 3506 1566 3506 1031 
Q 3506 472 3093 190 
Q 2681 -91 1863 -91 
Q 1516 -91 1145 -36 
Q 775 19 384 128 
L 384 978 
Q 719 816 1070 734 
Q 1422 653 1784 653 
Q 2113 653 2278 743 
Q 2444 834 2444 1013 
Q 2444 1163 2330 1236 
Q 2216 1309 1875 1350 
L 1678 1375 
Q 931 1469 631 1722 
Q 331 1975 331 2491 
Q 331 3047 712 3315 
Q 1094 3584 1881 3584 
Q 2191 3584 2531 3537 
Q 2872 3491 3272 3391 
z
" transform="scale(0.015625)"/>
     </defs>
     <use xlink:href="#DejaVuSans-Bold-43"/>
     <use xlink:href="#DejaVuSans-Bold-6f" transform="translate(73.388672 0)"/>
     <use xlink:href="#DejaVuSans-Bold-75" transform="translate(142.089844 0)"/>
     <use xlink:href="#DejaVuSans-Bold-6e" transform="translate(213.28125 0)"/>
     <use xlink:href="#DejaVuSans-Bold-74" transform="translate(284.472656 0)"/>
     <use xlink:href="#DejaVuSans-Bold-65" transform="translate(332.275391 0)"/>
     <use xlink:href="#DejaVuSans-Bold-72" transform="translate(400.097656 0)"/>
     <use xlink:href="#DejaVuSans-Bold-6d" transform="translate(449.414062 0)"/>
     <use xlink:href="#DejaVuSans-Bold-65" transform="translate(553.613281 0)"/>
     <use xlink:href="#DejaVuSans-Bold-61" transform="translate(621.435547 0)"/>
     <use xlink:href="#DejaVuSans-Bold-73" transform="translate(688.916016 0)"/>
     <use xlink:href="#DejaVuSans-Bold-75" transform="translate(748.4375 0)"/>
     <use xlink:href="#DejaVuSans-Bold-72" transform="translate(819.628906 0)"/>
     <use xlink:href="#DejaVuSans-Bold-65" transform="translate(868.945312 0)"/>
     <use xlink:href="#DejaVuSans-Bold-73" transform="translate(936.767578 0)"/>
    </g>
   </g>
   <g id="text_3">
    <!-- Capability -->
    <g style="fill: #1f365c" transform="translate(88.707578 257.849398) scale(0.145 -0.145)">
     <defs>
      <path id="DejaVuSans-Bold-70" d="M 1656 506 
L 1656 -1331 
L 538 -1331 
L 538 3500 
L 1656 3500 
L 1656 2988 
Q 1888 3294 2169 3439 
Q 2450 3584 2816 3584 
Q 3463 3584 3878 3070 
Q 4294 2556 4294 1747 
Q 4294 938 3878 423 
Q 3463 -91 2816 -91 
Q 2450 -91 2169 54 
Q 1888 200 1656 506 
z
M 2400 2772 
Q 2041 2772 1848 2508 
Q 1656 2244 1656 1747 
Q 1656 1250 1848 986 
Q 2041 722 2400 722 
Q 2759 722 2948 984 
Q 3138 1247 3138 1747 
Q 3138 2247 2948 2509 
Q 2759 2772 2400 2772 
z
" transform="scale(0.015625)"/>
      <path id="DejaVuSans-Bold-62" d="M 2400 722 
Q 2759 722 2948 984 
Q 3138 1247 3138 1747 
Q 3138 2247 2948 2509 
Q 2759 2772 2400 2772 
Q 2041 2772 1848 2508 
Q 1656 2244 1656 1747 
Q 1656 1250 1848 986 
Q 2041 722 2400 722 
z
M 1656 2988 
Q 1888 3294 2169 3439 
Q 2450 3584 2816 3584 
Q 3463 3584 3878 3070 
Q 4294 2556 4294 1747 
Q 4294 938 3878 423 
Q 3463 -91 2816 -91 
Q 2450 -91 2169 54 
Q 1888 200 1656 506 
L 1656 0 
L 538 0 
L 538 4863 
L 1656 4863 
L 1656 2988 
z
" transform="scale(0.015625)"/>
      <path id="DejaVuSans-Bold-6c" d="M 538 4863 
L 1656 4863 
L 1656 0 
L 538 0 
L 538 4863 
z
" transform="scale(0.015625)"/>
     </defs>
     <use xlink:href="#DejaVuSans-Bold-43"/>
     <use xlink:href="#DejaVuSans-Bold-61" transform="translate(73.388672 0)"/>
     <use xlink:href="#DejaVuSans-Bold-70" transform="translate(140.869141 0)"/>
     <use xlink:href="#DejaVuSans-Bold-61" transform="translate(212.451172 0)"/>
     <use xlink:href="#DejaVuSans-Bold-62" transform="translate(279.931641 0)"/>
     <use xlink:href="#DejaVuSans-Bold-69" transform="translate(351.513672 0)"/>
     <use xlink:href="#DejaVuSans-Bold-6c" transform="translate(385.791016 0)"/>
     <use xlink:href="#DejaVuSans-Bold-69" transform="translate(420.068359 0)"/>
     <use xlink:href="#DejaVuSans-Bold-74" transform="translate(454.345703 0)"/>
     <use xlink:href="#DejaVuSans-Bold-79" transform="translate(502.148438 0)"/>
    </g>
    <!-- Bounding -->
    <g style="fill: #1f365c" transform="translate(90.985664 274.199508) scale(0.145 -0.145)">
     <defs>
      <path id="DejaVuSans-Bold-42" d="M 2456 2859 
Q 2741 2859 2887 2984 
Q 3034 3109 3034 3353 
Q 3034 3594 2887 3720 
Q 2741 3847 2456 3847 
L 1791 3847 
L 1791 2859 
L 2456 2859 
z
M 2497 819 
Q 2859 819 3042 972 
Q 3225 1125 3225 1434 
Q 3225 1738 3044 1889 
Q 2863 2041 2497 2041 
L 1791 2041 
L 1791 819 
L 2497 819 
z
M 3616 2497 
Q 4003 2384 4215 2081 
Q 4428 1778 4428 1338 
Q 4428 663 3972 331 
Q 3516 0 2584 0 
L 588 0 
L 588 4666 
L 2394 4666 
Q 3366 4666 3802 4372 
Q 4238 4078 4238 3431 
Q 4238 3091 4078 2852 
Q 3919 2613 3616 2497 
z
" transform="scale(0.015625)"/>
      <path id="DejaVuSans-Bold-64" d="M 2919 2988 
L 2919 4863 
L 4044 4863 
L 4044 0 
L 2919 0 
L 2919 506 
Q 2688 197 2409 53 
Q 2131 -91 1766 -91 
Q 1119 -91 703 423 
Q 288 938 288 1747 
Q 288 2556 703 3070 
Q 1119 3584 1766 3584 
Q 2128 3584 2408 3439 
Q 2688 3294 2919 2988 
z
M 2181 722 
Q 2541 722 2730 984 
Q 2919 1247 2919 1747 
Q 2919 2247 2730 2509 
Q 2541 2772 2181 2772 
Q 1825 2772 1636 2509 
Q 1447 2247 1447 1747 
Q 1447 1247 1636 984 
Q 1825 722 2181 722 
z
" transform="scale(0.015625)"/>
     </defs>
     <use xlink:href="#DejaVuSans-Bold-42"/>
     <use xlink:href="#DejaVuSans-Bold-6f" transform="translate(76.220703 0)"/>
     <use xlink:href="#DejaVuSans-Bold-75" transform="translate(144.921875 0)"/>
     <use xlink:href="#DejaVuSans-Bold-6e" transform="translate(216.113281 0)"/>
     <use xlink:href="#DejaVuSans-Bold-64" transform="translate(287.304688 0)"/>
     <use xlink:href="#DejaVuSans-Bold-69" transform="translate(358.886719 0)"/>
     <use xlink:href="#DejaVuSans-Bold-6e" transform="translate(393.164062 0)"/>
     <use xlink:href="#DejaVuSans-Bold-67" transform="translate(464.355469 0)"/>
    </g>
   </g>
   <g id="text_4">
    <!-- • -->
    <g style="fill: #4a78b5" transform="translate(80.784 334.175) scale(0.16 -0.16)">
     <defs>
      <path id="DejaVuSans-Bold-2022" d="M 922 2381 
Q 922 2613 1005 2816 
Q 1088 3019 1247 3175 
Q 1413 3334 1616 3417 
Q 1819 3500 2047 3500 
Q 2275 3500 2479 3415 
Q 2684 3331 2841 3175 
Q 3003 3013 3086 2811 
Q 3169 2609 3169 2381 
Q 3169 2150 3084 1945 
Q 3000 1741 2841 1581 
Q 2681 1422 2476 1337 
Q 2272 1253 2041 1253 
Q 1813 1253 1609 1337 
Q 1406 1422 1247 1581 
Q 1091 1741 1006 1945 
Q 922 2150 922 2381 
z
" transform="scale(0.015625)"/>
     </defs>
     <use xlink:href="#DejaVuSans-Bold-2022"/>
    </g>
   </g>
   <g id="text_5">
    <!-- Least-privilege -->
    <g style="fill: #111827" transform="translate(98.928 326.494539) scale(0.115 -0.115)">
     <defs>
      <path id="DejaVuSans-4c" d="M 628 4666 
L 1259 4666 
L 1259 531 
L 3531 531 
L 3531 0 
L 628 0 
L 628 4666 
z
" transform="scale(0.015625)"/>
      <path id="DejaVuSans-65" d="M 3597 1894 
L 3597 1613 
L 953 1613 
Q 991 1019 1311 708 
Q 1631 397 2203 397 
Q 2534 397 2845 478 
Q 3156 559 3463 722 
L 3463 178 
Q 3153 47 2828 -22 
Q 2503 -91 2169 -91 
Q 1331 -91 842 396 
Q 353 884 353 1716 
Q 353 2575 817 3079 
Q 1281 3584 2069 3584 
Q 2775 3584 3186 3129 
Q 3597 2675 3597 1894 
z
M 3022 2063 
Q 3016 2534 2758 2815 
Q 2500 3097 2075 3097 
Q 1594 3097 1305 2825 
Q 1016 2553 972 2059 
L 3022 2063 
z
" transform="scale(0.015625)"/>
      <path id="DejaVuSans-61" d="M 2194 1759 
Q 1497 1759 1228 1600 
Q 959 1441 959 1056 
Q 959 750 1161 570 
Q 1363 391 1709 391 
Q 2188 391 2477 730 
Q 2766 1069 2766 1631 
L 2766 1759 
L 2194 1759 
z
M 3341 1997 
L 3341 0 
L 2766 0 
L 2766 531 
Q 2569 213 2275 61 
Q 1981 -91 1556 -91 
Q 1019 -91 701 211 
Q 384 513 384 1019 
Q 384 1609 779 1909 
Q 1175 2209 1959 2209 
L 2766 2209 
L 2766 2266 
Q 2766 2663 2505 2880 
Q 2244 3097 1772 3097 
Q 1472 3097 1187 3025 
Q 903 2953 641 2809 
L 641 3341 
Q 956 3463 1253 3523 
Q 1550 3584 1831 3584 
Q 2591 3584 2966 3190 
Q 3341 2797 3341 1997 
z
" transform="scale(0.015625)"/>
      <path id="DejaVuSans-73" d="M 2834 3397 
L 2834 2853 
Q 2591 2978 2328 3040 
Q 2066 3103 1784 3103 
Q 1356 3103 1142 2972 
Q 928 2841 928 2578 
Q 928 2378 1081 2264 
Q 1234 2150 1697 2047 
L 1894 2003 
Q 2506 1872 2764 1633 
Q 3022 1394 3022 966 
Q 3022 478 2636 193 
Q 2250 -91 1575 -91 
Q 1294 -91 989 -36 
Q 684 19 347 128 
L 347 722 
Q 666 556 975 473 
Q 1284 391 1588 391 
Q 1994 391 2212 530 
Q 2431 669 2431 922 
Q 2431 1156 2273 1281 
Q 2116 1406 1581 1522 
L 1381 1569 
Q 847 1681 609 1914 
Q 372 2147 372 2553 
Q 372 3047 722 3315 
Q 1072 3584 1716 3584 
Q 2034 3584 2315 3537 
Q 2597 3491 2834 3397 
z
" transform="scale(0.015625)"/>
      <path id="DejaVuSans-74" d="M 1172 4494 
L 1172 3500 
L 2356 3500 
L 2356 3053 
L 1172 3053 
L 1172 1153 
Q 1172 725 1289 603 
Q 1406 481 1766 481 
L 2356 481 
L 2356 0 
L 1766 0 
Q 1100 0 847 248 
Q 594 497 594 1153 
L 594 3053 
L 172 3053 
L 172 3500 
L 594 3500 
L 594 4494 
L 1172 4494 
z
" transform="scale(0.015625)"/>
      <path id="DejaVuSans-2d" d="M 313 2009 
L 1997 2009 
L 1997 1497 
L 313 1497 
L 313 2009 
z
" transform="scale(0.015625)"/>
      <path id="DejaVuSans-70" d="M 1159 525 
L 1159 -1331 
L 581 -1331 
L 581 3500 
L 1159 3500 
L 1159 2969 
Q 1341 3281 1617 3432 
Q 1894 3584 2278 3584 
Q 2916 3584 3314 3078 
Q 3713 2572 3713 1747 
Q 3713 922 3314 415 
Q 2916 -91 2278 -91 
Q 1894 -91 1617 61 
Q 1341 213 1159 525 
z
M 3116 1747 
Q 3116 2381 2855 2742 
Q 2594 3103 2138 3103 
Q 1681 3103 1420 2742 
Q 1159 2381 1159 1747 
Q 1159 1113 1420 752 
Q 1681 391 2138 391 
Q 2594 391 2855 752 
Q 3116 1113 3116 1747 
z
" transform="scale(0.015625)"/>
      <path id="DejaVuSans-72" d="M 2631 2963 
Q 2534 3019 2420 3045 
Q 2306 3072 2169 3072 
Q 1681 3072 1420 2755 
Q 1159 2438 1159 1844 
L 1159 0 
L 581 0 
L 581 3500 
L 1159 3500 
L 1159 2956 
Q 1341 3275 1631 3429 
Q 1922 3584 2338 3584 
Q 2397 3584 2469 3576 
Q 2541 3569 2628 3553 
L 2631 2963 
z
" transform="scale(0.015625)"/>
      <path id="DejaVuSans-69" d="M 603 3500 
L 1178 3500 
L 1178 0 
L 603 0 
L 603 3500 
z
M 603 4863 
L 1178 4863 
L 1178 4134 
L 603 4134 
L 603 4863 
z
" transform="scale(0.015625)"/>
      <path id="DejaVuSans-76" d="M 191 3500 
L 800 3500 
L 1894 563 
L 2988 3500 
L 3597 3500 
L 2284 0 
L 1503 0 
L 191 3500 
z
" transform="scale(0.015625)"/>
      <path id="DejaVuSans-6c" d="M 603 4863 
L 1178 4863 
L 1178 0 
L 603 0 
L 603 4863 
z
" transform="scale(0.015625)"/>
      <path id="DejaVuSans-67" d="M 2906 1791 
Q 2906 2416 2648 2759 
Q 2391 3103 1925 3103 
Q 1463 3103 1205 2759 
Q 947 2416 947 1791 
Q 947 1169 1205 825 
Q 1463 481 1925 481 
Q 2391 481 2648 825 
Q 2906 1169 2906 1791 
z
M 3481 434 
Q 3481 -459 3084 -895 
Q 2688 -1331 1869 -1331 
Q 1566 -1331 1297 -1286 
Q 1028 -1241 775 -1147 
L 775 -588 
Q 1028 -725 1275 -790 
Q 1522 -856 1778 -856 
Q 2344 -856 2625 -561 
Q 2906 -266 2906 331 
L 2906 616 
Q 2728 306 2450 153 
Q 2172 0 1784 0 
Q 1141 0 747 490 
Q 353 981 353 1791 
Q 353 2603 747 3093 
Q 1141 3584 1784 3584 
Q 2172 3584 2450 3431 
Q 2728 3278 2906 2969 
L 2906 3500 
L 3481 3500 
L 3481 434 
z
" transform="scale(0.015625)"/>
     </defs>
     <use xlink:href="#DejaVuSans-4c"/>
     <use xlink:href="#DejaVuSans-65" transform="translate(53.962891 0)"/>
     <use xlink:href="#DejaVuSans-61" transform="translate(115.486328 0)"/>
     <use xlink:href="#DejaVuSans-73" transform="translate(176.765625 0)"/>
     <use xlink:href="#DejaVuSans-74" transform="translate(228.865234 0)"/>
     <use xlink:href="#DejaVuSans-2d" transform="translate(268.074219 0)"/>
     <use xlink:href="#DejaVuSans-70" transform="translate(304.158203 0)"/>
     <use xlink:href="#DejaVuSans-72" transform="translate(367.634766 0)"/>
     <use xlink:href="#DejaVuSans-69" transform="translate(408.748047 0)"/>
     <use xlink:href="#DejaVuSans-76" transform="translate(436.53125 0)"/>
     <use xlink:href="#DejaVuSans-69" transform="translate(495.710938 0)"/>
     <use xlink:href="#DejaVuSans-6c" transform="translate(523.494141 0)"/>
     <use xlink:href="#DejaVuSans-65" transform="translate(551.277344 0)"/>
     <use xlink:href="#DejaVuSans-67" transform="translate(612.800781 0)"/>
     <use xlink:href="#DejaVuSans-65" transform="translate(676.277344 0)"/>
    </g>
    <!-- tools -->
    <g style="fill: #111827" transform="translate(98.928 339.372023) scale(0.115 -0.115)">
     <defs>
      <path id="DejaVuSans-6f" d="M 1959 3097 
Q 1497 3097 1228 2736 
Q 959 2375 959 1747 
Q 959 1119 1226 758 
Q 1494 397 1959 397 
Q 2419 397 2687 759 
Q 2956 1122 2956 1747 
Q 2956 2369 2687 2733 
Q 2419 3097 1959 3097 
z
M 1959 3584 
Q 2709 3584 3137 3096 
Q 3566 2609 3566 1747 
Q 3566 888 3137 398 
Q 2709 -91 1959 -91 
Q 1206 -91 779 398 
Q 353 888 353 1747 
Q 353 2609 779 3096 
Q 1206 3584 1959 3584 
z
" transform="scale(0.015625)"/>
     </defs>
     <use xlink:href="#DejaVuSans-74"/>
     <use xlink:href="#DejaVuSans-6f" transform="translate(39.208984 0)"/>
     <use xlink:href="#DejaVuSans-6f" transform="translate(100.390625 0)"/>
     <use xlink:href="#DejaVuSans-6c" transform="translate(161.572266 0)"/>
     <use xlink:href="#DejaVuSans-73" transform="translate(189.355469 0)"/>
    </g>
   </g>
   <g id="text_6">
    <!-- • -->
    <g style="fill: #4a78b5" transform="translate(80.784 394.655) scale(0.16 -0.16)">
     <use xlink:href="#DejaVuSans-Bold-2022"/>
    </g>
   </g>
   <g id="text_7">
    <!-- Task-scoped -->
    <g style="fill: #111827" transform="translate(98.928 386.974539) scale(0.115 -0.115)">
     <defs>
      <path id="DejaVuSans-54" d="M -19 4666 
L 3928 4666 
L 3928 4134 
L 2272 4134 
L 2272 0 
L 1638 0 
L 1638 4134 
L -19 4134 
L -19 4666 
z
" transform="scale(0.015625)"/>
      <path id="DejaVuSans-6b" d="M 581 4863 
L 1159 4863 
L 1159 1991 
L 2875 3500 
L 3609 3500 
L 1753 1863 
L 3688 0 
L 2938 0 
L 1159 1709 
L 1159 0 
L 581 0 
L 581 4863 
z
" transform="scale(0.015625)"/>
      <path id="DejaVuSans-63" d="M 3122 3366 
L 3122 2828 
Q 2878 2963 2633 3030 
Q 2388 3097 2138 3097 
Q 1578 3097 1268 2742 
Q 959 2388 959 1747 
Q 959 1106 1268 751 
Q 1578 397 2138 397 
Q 2388 397 2633 464 
Q 2878 531 3122 666 
L 3122 134 
Q 2881 22 2623 -34 
Q 2366 -91 2075 -91 
Q 1284 -91 818 406 
Q 353 903 353 1747 
Q 353 2603 823 3093 
Q 1294 3584 2113 3584 
Q 2378 3584 2631 3529 
Q 2884 3475 3122 3366 
z
" transform="scale(0.015625)"/>
      <path id="DejaVuSans-64" d="M 2906 2969 
L 2906 4863 
L 3481 4863 
L 3481 0 
L 2906 0 
L 2906 525 
Q 2725 213 2448 61 
Q 2172 -91 1784 -91 
Q 1150 -91 751 415 
Q 353 922 353 1747 
Q 353 2572 751 3078 
Q 1150 3584 1784 3584 
Q 2172 3584 2448 3432 
Q 2725 3281 2906 2969 
z
M 947 1747 
Q 947 1113 1208 752 
Q 1469 391 1925 391 
Q 2381 391 2643 752 
Q 2906 1113 2906 1747 
Q 2906 2381 2643 2742 
Q 2381 3103 1925 3103 
Q 1469 3103 1208 2742 
Q 947 2381 947 1747 
z
" transform="scale(0.015625)"/>
     </defs>
     <use xlink:href="#DejaVuSans-54"/>
     <use xlink:href="#DejaVuSans-61" transform="translate(44.583984 0)"/>
     <use xlink:href="#DejaVuSans-73" transform="translate(105.863281 0)"/>
     <use xlink:href="#DejaVuSans-6b" transform="translate(157.962891 0)"/>
     <use xlink:href="#DejaVuSans-2d" transform="translate(215.873047 0)"/>
     <use xlink:href="#DejaVuSans-73" transform="translate(251.957031 0)"/>
     <use xlink:href="#DejaVuSans-63" transform="translate(304.056641 0)"/>
     <use xlink:href="#DejaVuSans-6f" transform="translate(359.037109 0)"/>
     <use xlink:href="#DejaVuSans-70" transform="translate(420.21875 0)"/>
     <use xlink:href="#DejaVuSans-65" transform="translate(483.695312 0)"/>
     <use xlink:href="#DejaVuSans-64" transform="translate(545.21875 0)"/>
    </g>
    <!-- permissions -->
    <g style="fill: #111827" transform="translate(98.928 399.852023) scale(0.115 -0.115)">
     <defs>
      <path id="DejaVuSans-6d" d="M 3328 2828 
Q 3544 3216 3844 3400 
Q 4144 3584 4550 3584 
Q 5097 3584 5394 3201 
Q 5691 2819 5691 2113 
L 5691 0 
L 5113 0 
L 5113 2094 
Q 5113 2597 4934 2840 
Q 4756 3084 4391 3084 
Q 3944 3084 3684 2787 
Q 3425 2491 3425 1978 
L 3425 0 
L 2847 0 
L 2847 2094 
Q 2847 2600 2669 2842 
Q 2491 3084 2119 3084 
Q 1678 3084 1418 2786 
Q 1159 2488 1159 1978 
L 1159 0 
L 581 0 
L 581 3500 
L 1159 3500 
L 1159 2956 
Q 1356 3278 1631 3431 
Q 1906 3584 2284 3584 
Q 2666 3584 2933 3390 
Q 3200 3197 3328 2828 
z
" transform="scale(0.015625)"/>
      <path id="DejaVuSans-6e" d="M 3513 2113 
L 3513 0 
L 2938 0 
L 2938 2094 
Q 2938 2591 2744 2837 
Q 2550 3084 2163 3084 
Q 1697 3084 1428 2787 
Q 1159 2491 1159 1978 
L 1159 0 
L 581 0 
L 581 3500 
L 1159 3500 
L 1159 2956 
Q 1366 3272 1645 3428 
Q 1925 3584 2291 3584 
Q 2894 3584 3203 3211 
Q 3513 2838 3513 2113 
z
" transform="scale(0.015625)"/>
     </defs>
     <use xlink:href="#DejaVuSans-70"/>
     <use xlink:href="#DejaVuSans-65" transform="translate(63.476562 0)"/>
     <use xlink:href="#DejaVuSans-72" transform="translate(125 0)"/>
     <use xlink:href="#DejaVuSans-6d" transform="translate(164.363281 0)"/>
     <use xlink:href="#DejaVuSans-69" transform="translate(261.775391 0)"/>
     <use xlink:href="#DejaVuSans-73" transform="translate(289.558594 0)"/>
     <use xlink:href="#DejaVuSans-73" transform="translate(341.658203 0)"/>
     <use xlink:href="#DejaVuSans-69" transform="translate(393.757812 0)"/>
     <use xlink:href="#DejaVuSans-6f" transform="translate(421.541016 0)"/>
     <use xlink:href="#DejaVuSans-6e" transform="translate(482.722656 0)"/>
     <use xlink:href="#DejaVuSans-73" transform="translate(546.101562 0)"/>
    </g>
   </g>
   <g id="text_8">
    <!-- • -->
    <g style="fill: #4a78b5" transform="translate(80.784 455.135) scale(0.16 -0.16)">
     <use xlink:href="#DejaVuSans-Bold-2022"/>
    </g>
   </g>
   <g id="text_9">
    <!-- No broad shell -->
    <g style="fill: #111827" transform="translate(98.928 447.454539) scale(0.115 -0.115)">
     <defs>
      <path id="DejaVuSans-4e" d="M 628 4666 
L 1478 4666 
L 3547 763 
L 3547 4666 
L 4159 4666 
L 4159 0 
L 3309 0 
L 1241 3903 
L 1241 0 
L 628 0 
L 628 4666 
z
" transform="scale(0.015625)"/>
      <path id="DejaVuSans-20" transform="scale(0.015625)"/>
      <path id="DejaVuSans-62" d="M 3116 1747 
Q 3116 2381 2855 2742 
Q 2594 3103 2138 3103 
Q 1681 3103 1420 2742 
Q 1159 2381 1159 1747 
Q 1159 1113 1420 752 
Q 1681 391 2138 391 
Q 2594 391 2855 752 
Q 3116 1113 3116 1747 
z
M 1159 2969 
Q 1341 3281 1617 3432 
Q 1894 3584 2278 3584 
Q 2916 3584 3314 3078 
Q 3713 2572 3713 1747 
Q 3713 922 3314 415 
Q 2916 -91 2278 -91 
Q 1894 -91 1617 61 
Q 1341 213 1159 525 
L 1159 0 
L 581 0 
L 581 4863 
L 1159 4863 
L 1159 2969 
z
" transform="scale(0.015625)"/>
      <path id="DejaVuSans-68" d="M 3513 2113 
L 3513 0 
L 2938 0 
L 2938 2094 
Q 2938 2591 2744 2837 
Q 2550 3084 2163 3084 
Q 1697 3084 1428 2787 
Q 1159 2491 1159 1978 
L 1159 0 
L 581 0 
L 581 4863 
L 1159 4863 
L 1159 2956 
Q 1366 3272 1645 3428 
Q 1925 3584 2291 3584 
Q 2894 3584 3203 3211 
Q 3513 2838 3513 2113 
z
" transform="scale(0.015625)"/>
     </defs>
     <use xlink:href="#DejaVuSans-4e"/>
     <use xlink:href="#DejaVuSans-6f" transform="translate(74.804688 0)"/>
     <use xlink:href="#DejaVuSans-20" transform="translate(135.986328 0)"/>
     <use xlink:href="#DejaVuSans-62" transform="translate(167.773438 0)"/>
     <use xlink:href="#DejaVuSans-72" transform="translate(231.25 0)"/>
     <use xlink:href="#DejaVuSans-6f" transform="translate(270.113281 0)"/>
     <use xlink:href="#DejaVuSans-61" transform="translate(331.294922 0)"/>
     <use xlink:href="#DejaVuSans-64" transform="translate(392.574219 0)"/>
     <use xlink:href="#DejaVuSans-20" transform="translate(456.050781 0)"/>
     <use xlink:href="#DejaVuSans-73" transform="translate(487.837891 0)"/>
     <use xlink:href="#DejaVuSans-68" transform="translate(539.9375 0)"/>
     <use xlink:href="#DejaVuSans-65" transform="translate(603.316406 0)"/>
     <use xlink:href="#DejaVuSans-6c" transform="translate(664.839844 0)"/>
     <use xlink:href="#DejaVuSans-6c" transform="translate(692.623047 0)"/>
    </g>
    <!-- by default -->
    <g style="fill: #111827" transform="translate(98.928 460.332023) scale(0.115 -0.115)">
     <defs>
      <path id="DejaVuSans-79" d="M 2059 -325 
Q 1816 -950 1584 -1140 
Q 1353 -1331 966 -1331 
L 506 -1331 
L 506 -850 
L 844 -850 
Q 1081 -850 1212 -737 
Q 1344 -625 1503 -206 
L 1606 56 
L 191 3500 
L 800 3500 
L 1894 763 
L 2988 3500 
L 3597 3500 
L 2059 -325 
z
" transform="scale(0.015625)"/>
      <path id="DejaVuSans-66" d="M 2375 4863 
L 2375 4384 
L 1825 4384 
Q 1516 4384 1395 4259 
Q 1275 4134 1275 3809 
L 1275 3500 
L 2222 3500 
L 2222 3053 
L 1275 3053 
L 1275 0 
L 697 0 
L 697 3053 
L 147 3053 
L 147 3500 
L 697 3500 
L 697 3744 
Q 697 4328 969 4595 
Q 1241 4863 1831 4863 
L 2375 4863 
z
" transform="scale(0.015625)"/>
      <path id="DejaVuSans-75" d="M 544 1381 
L 544 3500 
L 1119 3500 
L 1119 1403 
Q 1119 906 1312 657 
Q 1506 409 1894 409 
Q 2359 409 2629 706 
Q 2900 1003 2900 1516 
L 2900 3500 
L 3475 3500 
L 3475 0 
L 2900 0 
L 2900 538 
Q 2691 219 2414 64 
Q 2138 -91 1772 -91 
Q 1169 -91 856 284 
Q 544 659 544 1381 
z
M 1991 3584 
L 1991 3584 
z
" transform="scale(0.015625)"/>
     </defs>
     <use xlink:href="#DejaVuSans-62"/>
     <use xlink:href="#DejaVuSans-79" transform="translate(63.476562 0)"/>
     <use xlink:href="#DejaVuSans-20" transform="translate(122.65625 0)"/>
     <use xlink:href="#DejaVuSans-64" transform="translate(154.443359 0)"/>
     <use xlink:href="#DejaVuSans-65" transform="translate(217.919922 0)"/>
     <use xlink:href="#DejaVuSans-66" transform="translate(279.443359 0)"/>
     <use xlink:href="#DejaVuSans-61" transform="translate(314.648438 0)"/>
     <use xlink:href="#DejaVuSans-75" transform="translate(375.927734 0)"/>
     <use xlink:href="#DejaVuSans-6c" transform="translate(439.306641 0)"/>
     <use xlink:href="#DejaVuSans-74" transform="translate(467.089844 0)"/>
    </g>
   </g>
   <g id="text_10">
    <!-- Approval Gates -->
    <g style="fill: #1f365c" transform="translate(219.669234 266.081094) scale(0.145 -0.145)">
     <defs>
      <path id="DejaVuSans-Bold-76" d="M 97 3500 
L 1216 3500 
L 2088 1081 
L 2956 3500 
L 4078 3500 
L 2700 0 
L 1472 0 
L 97 3500 
z
" transform="scale(0.015625)"/>
      <path id="DejaVuSans-Bold-47" d="M 4781 347 
Q 4331 128 3847 18 
Q 3363 -91 2847 -91 
Q 1681 -91 1000 561 
Q 319 1213 319 2328 
Q 319 3456 1012 4103 
Q 1706 4750 2913 4750 
Q 3378 4750 3804 4662 
Q 4231 4575 4609 4403 
L 4609 3438 
Q 4219 3659 3833 3768 
Q 3447 3878 3059 3878 
Q 2341 3878 1952 3476 
Q 1563 3075 1563 2328 
Q 1563 1588 1938 1184 
Q 2313 781 3003 781 
Q 3191 781 3352 804 
Q 3513 828 3641 878 
L 3641 1784 
L 2906 1784 
L 2906 2591 
L 4781 2591 
L 4781 347 
z
" transform="scale(0.015625)"/>
     </defs>
     <use xlink:href="#DejaVuSans-Bold-41"/>
     <use xlink:href="#DejaVuSans-Bold-70" transform="translate(77.392578 0)"/>
     <use xlink:href="#DejaVuSans-Bold-70" transform="translate(148.974609 0)"/>
     <use xlink:href="#DejaVuSans-Bold-72" transform="translate(220.556641 0)"/>
     <use xlink:href="#DejaVuSans-Bold-6f" transform="translate(269.873047 0)"/>
     <use xlink:href="#DejaVuSans-Bold-76" transform="translate(338.574219 0)"/>
     <use xlink:href="#DejaVuSans-Bold-61" transform="translate(403.759766 0)"/>
     <use xlink:href="#DejaVuSans-Bold-6c" transform="translate(471.240234 0)"/>
     <use xlink:href="#DejaVuSans-Bold-20" transform="translate(505.517578 0)"/>
     <use xlink:href="#DejaVuSans-Bold-47" transform="translate(540.332031 0)"/>
     <use xlink:href="#DejaVuSans-Bold-61" transform="translate(622.412109 0)"/>
     <use xlink:href="#DejaVuSans-Bold-74" transform="translate(689.892578 0)"/>
     <use xlink:href="#DejaVuSans-Bold-65" transform="translate(737.695312 0)"/>
     <use xlink:href="#DejaVuSans-Bold-73" transform="translate(805.517578 0)"/>
    </g>
   </g>
   <g id="text_11">
    <!-- • -->
    <g style="fill: #4a78b5" transform="translate(233.328 334.175) scale(0.16 -0.16)">
     <use xlink:href="#DejaVuSans-Bold-2022"/>
    </g>
   </g>
   <g id="text_12">
    <!-- Confirm high- -->
    <g style="fill: #111827" transform="translate(251.472 326.494539) scale(0.115 -0.115)">
     <defs>
      <path id="DejaVuSans-43" d="M 4122 4306 
L 4122 3641 
Q 3803 3938 3442 4084 
Q 3081 4231 2675 4231 
Q 1875 4231 1450 3742 
Q 1025 3253 1025 2328 
Q 1025 1406 1450 917 
Q 1875 428 2675 428 
Q 3081 428 3442 575 
Q 3803 722 4122 1019 
L 4122 359 
Q 3791 134 3420 21 
Q 3050 -91 2638 -91 
Q 1578 -91 968 557 
Q 359 1206 359 2328 
Q 359 3453 968 4101 
Q 1578 4750 2638 4750 
Q 3056 4750 3426 4639 
Q 3797 4528 4122 4306 
z
" transform="scale(0.015625)"/>
     </defs>
     <use xlink:href="#DejaVuSans-43"/>
     <use xlink:href="#DejaVuSans-6f" transform="translate(69.824219 0)"/>
     <use xlink:href="#DejaVuSans-6e" transform="translate(131.005859 0)"/>
     <use xlink:href="#DejaVuSans-66" transform="translate(194.384766 0)"/>
     <use xlink:href="#DejaVuSans-69" transform="translate(229.589844 0)"/>
     <use xlink:href="#DejaVuSans-72" transform="translate(257.373047 0)"/>
     <use xlink:href="#DejaVuSans-6d" transform="translate(296.736328 0)"/>
     <use xlink:href="#DejaVuSans-20" transform="translate(394.148438 0)"/>
     <use xlink:href="#DejaVuSans-68" transform="translate(425.935547 0)"/>
     <use xlink:href="#DejaVuSans-69" transform="translate(489.314453 0)"/>
     <use xlink:href="#DejaVuSans-67" transform="translate(517.097656 0)"/>
     <use xlink:href="#DejaVuSans-68" transform="translate(580.574219 0)"/>
     <use xlink:href="#DejaVuSans-2d" transform="translate(643.953125 0)"/>
    </g>
    <!-- impact actions -->
    <g style="fill: #111827" transform="translate(251.472 339.372023) scale(0.115 -0.115)">
     <use xlink:href="#DejaVuSans-69"/>
     <use xlink:href="#DejaVuSans-6d" transform="translate(27.783203 0)"/>
     <use xlink:href="#DejaVuSans-70" transform="translate(125.195312 0)"/>
     <use xlink:href="#DejaVuSans-61" transform="translate(188.671875 0)"/>
     <use xlink:href="#DejaVuSans-63" transform="translate(249.951172 0)"/>
     <use xlink:href="#DejaVuSans-74" transform="translate(304.931641 0)"/>
     <use xlink:href="#DejaVuSans-20" transform="translate(344.140625 0)"/>
     <use xlink:href="#DejaVuSans-61" transform="translate(375.927734 0)"/>
     <use xlink:href="#DejaVuSans-63" transform="translate(437.207031 0)"/>
     <use xlink:href="#DejaVuSans-74" transform="translate(492.1875 0)"/>
     <use xlink:href="#DejaVuSans-69" transform="translate(531.396484 0)"/>
     <use xlink:href="#DejaVuSans-6f" transform="translate(559.179688 0)"/>
     <use xlink:href="#DejaVuSans-6e" transform="translate(620.361328 0)"/>
     <use xlink:href="#DejaVuSans-73" transform="translate(683.740234 0)"/>
    </g>
   </g>
   <g id="text_13">
    <!-- • -->
    <g style="fill: #4a78b5" transform="translate(233.328 394.655) scale(0.16 -0.16)">
     <use xlink:href="#DejaVuSans-Bold-2022"/>
    </g>
   </g>
   <g id="text_14">
    <!-- Clear action -->
    <g style="fill: #111827" transform="translate(251.472 386.974539) scale(0.115 -0.115)">
     <use xlink:href="#DejaVuSans-43"/>
     <use xlink:href="#DejaVuSans-6c" transform="translate(69.824219 0)"/>
     <use xlink:href="#DejaVuSans-65" transform="translate(97.607422 0)"/>
     <use xlink:href="#DejaVuSans-61" transform="translate(159.130859 0)"/>
     <use xlink:href="#DejaVuSans-72" transform="translate(220.410156 0)"/>
     <use xlink:href="#DejaVuSans-20" transform="translate(261.523438 0)"/>
     <use xlink:href="#DejaVuSans-61" transform="translate(293.310547 0)"/>
     <use xlink:href="#DejaVuSans-63" transform="translate(354.589844 0)"/>
     <use xlink:href="#DejaVuSans-74" transform="translate(409.570312 0)"/>
     <use xlink:href="#DejaVuSans-69" transform="translate(448.779297 0)"/>
     <use xlink:href="#DejaVuSans-6f" transform="translate(476.5625 0)"/>
     <use xlink:href="#DejaVuSans-6e" transform="translate(537.744141 0)"/>
    </g>
    <!-- summaries -->
    <g style="fill: #111827" transform="translate(251.472 399.852023) scale(0.115 -0.115)">
     <use xlink:href="#DejaVuSans-73"/>
     <use xlink:href="#DejaVuSans-75" transform="translate(52.099609 0)"/>
     <use xlink:href="#DejaVuSans-6d" transform="translate(115.478516 0)"/>
     <use xlink:href="#DejaVuSans-6d" transform="translate(212.890625 0)"/>
     <use xlink:href="#DejaVuSans-61" transform="translate(310.302734 0)"/>
     <use xlink:href="#DejaVuSans-72" transform="translate(371.582031 0)"/>
     <use xlink:href="#DejaVuSans-69" transform="translate(412.695312 0)"/>
     <use xlink:href="#DejaVuSans-65" transform="translate(440.478516 0)"/>
     <use xlink:href="#DejaVuSans-73" transform="translate(502.001953 0)"/>
    </g>
   </g>
   <g id="text_15">
    <!-- • -->
    <g style="fill: #4a78b5" transform="translate(233.328 455.135) scale(0.16 -0.16)">
     <use xlink:href="#DejaVuSans-Bold-2022"/>
    </g>
   </g>
   <g id="text_16">
    <!-- Non-bypassable -->
    <g style="fill: #111827" transform="translate(251.472 447.454539) scale(0.115 -0.115)">
     <use xlink:href="#DejaVuSans-4e"/>
     <use xlink:href="#DejaVuSans-6f" transform="translate(74.804688 0)"/>
     <use xlink:href="#DejaVuSans-6e" transform="translate(135.986328 0)"/>
     <use xlink:href="#DejaVuSans-2d" transform="translate(199.365234 0)"/>
     <use xlink:href="#DejaVuSans-62" transform="translate(235.449219 0)"/>
     <use xlink:href="#DejaVuSans-79" transform="translate(298.925781 0)"/>
     <use xlink:href="#DejaVuSans-70" transform="translate(358.105469 0)"/>
     <use xlink:href="#DejaVuSans-61" transform="translate(421.582031 0)"/>
     <use xlink:href="#DejaVuSans-73" transform="translate(482.861328 0)"/>
     <use xlink:href="#DejaVuSans-73" transform="translate(534.960938 0)"/>
     <use xlink:href="#DejaVuSans-61" transform="translate(587.060547 0)"/>
     <use xlink:href="#DejaVuSans-62" transform="translate(648.339844 0)"/>
     <use xlink:href="#DejaVuSans-6c" transform="translate(711.816406 0)"/>
     <use xlink:href="#DejaVuSans-65" transform="translate(739.599609 0)"/>
    </g>
    <!-- review -->
    <g style="fill: #111827" transform="translate(251.472 460.332023) scale(0.115 -0.115)">
     <defs>
      <path id="DejaVuSans-77" d="M 269 3500 
L 844 3500 
L 1563 769 
L 2278 3500 
L 2956 3500 
L 3675 769 
L 4391 3500 
L 4966 3500 
L 4050 0 
L 3372 0 
L 2619 2869 
L 1863 0 
L 1184 0 
L 269 3500 
z
" transform="scale(0.015625)"/>
     </defs>
     <use xlink:href="#DejaVuSans-72"/>
     <use xlink:href="#DejaVuSans-65" transform="translate(38.863281 0)"/>
     <use xlink:href="#DejaVuSans-76" transform="translate(100.386719 0)"/>
     <use xlink:href="#DejaVuSans-69" transform="translate(159.566406 0)"/>
     <use xlink:href="#DejaVuSans-65" transform="translate(187.349609 0)"/>
     <use xlink:href="#DejaVuSans-77" transform="translate(248.873047 0)"/>
    </g>
   </g>
   <g id="text_17">
    <!-- Memory Hygiene -->
    <g style="fill: #1f365c" transform="translate(365.970305 266.024453) scale(0.145 -0.145)">
     <defs>
      <path id="DejaVuSans-Bold-4d" d="M 588 4666 
L 2119 4666 
L 3181 2169 
L 4250 4666 
L 5778 4666 
L 5778 0 
L 4641 0 
L 4641 3413 
L 3566 897 
L 2803 897 
L 1728 3413 
L 1728 0 
L 588 0 
L 588 4666 
z
" transform="scale(0.015625)"/>
      <path id="DejaVuSans-Bold-48" d="M 588 4666 
L 1791 4666 
L 1791 2888 
L 3566 2888 
L 3566 4666 
L 4769 4666 
L 4769 0 
L 3566 0 
L 3566 1978 
L 1791 1978 
L 1791 0 
L 588 0 
L 588 4666 
z
" transform="scale(0.015625)"/>
     </defs>
     <use xlink:href="#DejaVuSans-Bold-4d"/>
     <use xlink:href="#DejaVuSans-Bold-65" transform="translate(99.511719 0)"/>
     <use xlink:href="#DejaVuSans-Bold-6d" transform="translate(167.333984 0)"/>
     <use xlink:href="#DejaVuSans-Bold-6f" transform="translate(271.533203 0)"/>
     <use xlink:href="#DejaVuSans-Bold-72" transform="translate(340.234375 0)"/>
     <use xlink:href="#DejaVuSans-Bold-79" transform="translate(389.550781 0)"/>
     <use xlink:href="#DejaVuSans-Bold-20" transform="translate(454.736328 0)"/>
     <use xlink:href="#DejaVuSans-Bold-48" transform="translate(489.550781 0)"/>
     <use xlink:href="#DejaVuSans-Bold-79" transform="translate(573.242188 0)"/>
     <use xlink:href="#DejaVuSans-Bold-67" transform="translate(638.427734 0)"/>
     <use xlink:href="#DejaVuSans-Bold-69" transform="translate(710.009766 0)"/>
     <use xlink:href="#DejaVuSans-Bold-65" transform="translate(744.287109 0)"/>
     <use xlink:href="#DejaVuSans-Bold-6e" transform="translate(812.109375 0)"/>
     <use xlink:href="#DejaVuSans-Bold-65" transform="translate(883.300781 0)"/>
    </g>
   </g>
   <g id="text_18">
    <!-- • -->
    <g style="fill: #4a78b5" transform="translate(385.872 334.175) scale(0.16 -0.16)">
     <use xlink:href="#DejaVuSans-Bold-2022"/>
    </g>
   </g>
   <g id="text_19">
    <!-- Scoped memory -->
    <g style="fill: #111827" transform="translate(404.016 332.933281) scale(0.115 -0.115)">
     <defs>
      <path id="DejaVuSans-53" d="M 3425 4513 
L 3425 3897 
Q 3066 4069 2747 4153 
Q 2428 4238 2131 4238 
Q 1616 4238 1336 4038 
Q 1056 3838 1056 3469 
Q 1056 3159 1242 3001 
Q 1428 2844 1947 2747 
L 2328 2669 
Q 3034 2534 3370 2195 
Q 3706 1856 3706 1288 
Q 3706 609 3251 259 
Q 2797 -91 1919 -91 
Q 1588 -91 1214 -16 
Q 841 59 441 206 
L 441 856 
Q 825 641 1194 531 
Q 1563 422 1919 422 
Q 2459 422 2753 634 
Q 3047 847 3047 1241 
Q 3047 1584 2836 1778 
Q 2625 1972 2144 2069 
L 1759 2144 
Q 1053 2284 737 2584 
Q 422 2884 422 3419 
Q 422 4038 858 4394 
Q 1294 4750 2059 4750 
Q 2388 4750 2728 4690 
Q 3069 4631 3425 4513 
z
" transform="scale(0.015625)"/>
     </defs>
     <use xlink:href="#DejaVuSans-53"/>
     <use xlink:href="#DejaVuSans-63" transform="translate(63.476562 0)"/>
     <use xlink:href="#DejaVuSans-6f" transform="translate(118.457031 0)"/>
     <use xlink:href="#DejaVuSans-70" transform="translate(179.638672 0)"/>
     <use xlink:href="#DejaVuSans-65" transform="translate(243.115234 0)"/>
     <use xlink:href="#DejaVuSans-64" transform="translate(304.638672 0)"/>
     <use xlink:href="#DejaVuSans-20" transform="translate(368.115234 0)"/>
     <use xlink:href="#DejaVuSans-6d" transform="translate(399.902344 0)"/>
     <use xlink:href="#DejaVuSans-65" transform="translate(497.314453 0)"/>
     <use xlink:href="#DejaVuSans-6d" transform="translate(558.837891 0)"/>
     <use xlink:href="#DejaVuSans-6f" transform="translate(656.25 0)"/>
     <use xlink:href="#DejaVuSans-72" transform="translate(717.431641 0)"/>
     <use xlink:href="#DejaVuSans-79" transform="translate(758.544922 0)"/>
    </g>
   </g>
   <g id="text_20">
    <!-- • -->
    <g style="fill: #4a78b5" transform="translate(385.872 394.655) scale(0.16 -0.16)">
     <use xlink:href="#DejaVuSans-Bold-2022"/>
    </g>
   </g>
   <g id="text_21">
    <!-- Expiry and -->
    <g style="fill: #111827" transform="translate(404.016 380.535797) scale(0.115 -0.115)">
     <defs>
      <path id="DejaVuSans-45" d="M 628 4666 
L 3578 4666 
L 3578 4134 
L 1259 4134 
L 1259 2753 
L 3481 2753 
L 3481 2222 
L 1259 2222 
L 1259 531 
L 3634 531 
L 3634 0 
L 628 0 
L 628 4666 
z
" transform="scale(0.015625)"/>
      <path id="DejaVuSans-78" d="M 3513 3500 
L 2247 1797 
L 3578 0 
L 2900 0 
L 1881 1375 
L 863 0 
L 184 0 
L 1544 1831 
L 300 3500 
L 978 3500 
L 1906 2253 
L 2834 3500 
L 3513 3500 
z
" transform="scale(0.015625)"/>
     </defs>
     <use xlink:href="#DejaVuSans-45"/>
     <use xlink:href="#DejaVuSans-78" transform="translate(63.183594 0)"/>
     <use xlink:href="#DejaVuSans-70" transform="translate(122.363281 0)"/>
     <use xlink:href="#DejaVuSans-69" transform="translate(185.839844 0)"/>
     <use xlink:href="#DejaVuSans-72" transform="translate(213.623047 0)"/>
     <use xlink:href="#DejaVuSans-79" transform="translate(254.736328 0)"/>
     <use xlink:href="#DejaVuSans-20" transform="translate(313.916016 0)"/>
     <use xlink:href="#DejaVuSans-61" transform="translate(345.703125 0)"/>
     <use xlink:href="#DejaVuSans-6e" transform="translate(406.982422 0)"/>
     <use xlink:href="#DejaVuSans-64" transform="translate(470.361328 0)"/>
    </g>
    <!-- retention -->
    <g style="fill: #111827" transform="translate(404.016 393.413281) scale(0.115 -0.115)">
     <use xlink:href="#DejaVuSans-72"/>
     <use xlink:href="#DejaVuSans-65" transform="translate(38.863281 0)"/>
     <use xlink:href="#DejaVuSans-74" transform="translate(100.386719 0)"/>
     <use xlink:href="#DejaVuSans-65" transform="translate(139.595703 0)"/>
     <use xlink:href="#DejaVuSans-6e" transform="translate(201.119141 0)"/>
     <use xlink:href="#DejaVuSans-74" transform="translate(264.498047 0)"/>
     <use xlink:href="#DejaVuSans-69" transform="translate(303.707031 0)"/>
     <use xlink:href="#DejaVuSans-6f" transform="translate(331.490234 0)"/>
     <use xlink:href="#DejaVuSans-6e" transform="translate(392.671875 0)"/>
    </g>
    <!-- control -->
    <g style="fill: #111827" transform="translate(404.016 406.290766) scale(0.115 -0.115)">
     <use xlink:href="#DejaVuSans-63"/>
     <use xlink:href="#DejaVuSans-6f" transform="translate(54.980469 0)"/>
     <use xlink:href="#DejaVuSans-6e" transform="translate(116.162109 0)"/>
     <use xlink:href="#DejaVuSans-74" transform="translate(179.541016 0)"/>
     <use xlink:href="#DejaVuSans-72" transform="translate(218.75 0)"/>
     <use xlink:href="#DejaVuSans-6f" transform="translate(257.613281 0)"/>
     <use xlink:href="#DejaVuSans-6c" transform="translate(318.794922 0)"/>
    </g>
   </g>
   <g id="text_22">
    <!-- • -->
    <g style="fill: #4a78b5" transform="translate(385.872 455.135) scale(0.16 -0.16)">
     <use xlink:href="#DejaVuSans-Bold-2022"/>
    </g>
   </g>
   <g id="text_23">
    <!-- Poison- -->
    <g style="fill: #111827" transform="translate(404.016 441.015797) scale(0.115 -0.115)">
     <defs>
      <path id="DejaVuSans-50" d="M 1259 4147 
L 1259 2394 
L 2053 2394 
Q 2494 2394 2734 2622 
Q 2975 2850 2975 3272 
Q 2975 3691 2734 3919 
Q 2494 4147 2053 4147 
L 1259 4147 
z
M 628 4666 
L 2053 4666 
Q 2838 4666 3239 4311 
Q 3641 3956 3641 3272 
Q 3641 2581 3239 2228 
Q 2838 1875 2053 1875 
L 1259 1875 
L 1259 0 
L 628 0 
L 628 4666 
z
" transform="scale(0.015625)"/>
     </defs>
     <use xlink:href="#DejaVuSans-50"/>
     <use xlink:href="#DejaVuSans-6f" transform="translate(56.677734 0)"/>
     <use xlink:href="#DejaVuSans-69" transform="translate(117.859375 0)"/>
     <use xlink:href="#DejaVuSans-73" transform="translate(145.642578 0)"/>
     <use xlink:href="#DejaVuSans-6f" transform="translate(197.742188 0)"/>
     <use xlink:href="#DejaVuSans-6e" transform="translate(258.923828 0)"/>
     <use xlink:href="#DejaVuSans-2d" transform="translate(322.302734 0)"/>
    </g>
    <!-- resistant -->
    <g style="fill: #111827" transform="translate(404.016 453.893281) scale(0.115 -0.115)">
     <use xlink:href="#DejaVuSans-72"/>
     <use xlink:href="#DejaVuSans-65" transform="translate(38.863281 0)"/>
     <use xlink:href="#DejaVuSans-73" transform="translate(100.386719 0)"/>
     <use xlink:href="#DejaVuSans-69" transform="translate(152.486328 0)"/>
     <use xlink:href="#DejaVuSans-73" transform="translate(180.269531 0)"/>
     <use xlink:href="#DejaVuSans-74" transform="translate(232.369141 0)"/>
     <use xlink:href="#DejaVuSans-61" transform="translate(271.578125 0)"/>
     <use xlink:href="#DejaVuSans-6e" transform="translate(332.857422 0)"/>
     <use xlink:href="#DejaVuSans-74" transform="translate(396.236328 0)"/>
    </g>
    <!-- recall -->
    <g style="fill: #111827" transform="translate(404.016 466.770766) scale(0.115 -0.115)">
     <use xlink:href="#DejaVuSans-72"/>
     <use xlink:href="#DejaVuSans-65" transform="translate(38.863281 0)"/>
     <use xlink:href="#DejaVuSans-63" transform="translate(100.386719 0)"/>
     <use xlink:href="#DejaVuSans-61" transform="translate(155.367188 0)"/>
     <use xlink:href="#DejaVuSans-6c" transform="translate(216.646484 0)"/>
     <use xlink:href="#DejaVuSans-6c" transform="translate(244.429688 0)"/>
    </g>
   </g>
   <g id="text_24">
    <!-- Tool Sandboxing -->
    <g style="fill: #1f365c" transform="translate(520.368719 266.024453) scale(0.145 -0.145)">
     <defs>
      <path id="DejaVuSans-Bold-54" d="M 31 4666 
L 4331 4666 
L 4331 3756 
L 2784 3756 
L 2784 0 
L 1581 0 
L 1581 3756 
L 31 3756 
L 31 4666 
z
" transform="scale(0.015625)"/>
      <path id="DejaVuSans-Bold-78" d="M 1422 1791 
L 159 3500 
L 1344 3500 
L 2059 2463 
L 2784 3500 
L 3969 3500 
L 2706 1797 
L 4031 0 
L 2847 0 
L 2059 1106 
L 1281 0 
L 97 0 
L 1422 1791 
z
" transform="scale(0.015625)"/>
     </defs>
     <use xlink:href="#DejaVuSans-Bold-54"/>
     <use xlink:href="#DejaVuSans-Bold-6f" transform="translate(54.962891 0)"/>
     <use xlink:href="#DejaVuSans-Bold-6f" transform="translate(123.664062 0)"/>
     <use xlink:href="#DejaVuSans-Bold-6c" transform="translate(192.365234 0)"/>
     <use xlink:href="#DejaVuSans-Bold-20" transform="translate(226.642578 0)"/>
     <use xlink:href="#DejaVuSans-Bold-53" transform="translate(261.457031 0)"/>
     <use xlink:href="#DejaVuSans-Bold-61" transform="translate(333.478516 0)"/>
     <use xlink:href="#DejaVuSans-Bold-6e" transform="translate(400.958984 0)"/>
     <use xlink:href="#DejaVuSans-Bold-64" transform="translate(472.150391 0)"/>
     <use xlink:href="#DejaVuSans-Bold-62" transform="translate(543.732422 0)"/>
     <use xlink:href="#DejaVuSans-Bold-6f" transform="translate(615.314453 0)"/>
     <use xlink:href="#DejaVuSans-Bold-78" transform="translate(684.015625 0)"/>
     <use xlink:href="#DejaVuSans-Bold-69" transform="translate(748.517578 0)"/>
     <use xlink:href="#DejaVuSans-Bold-6e" transform="translate(782.794922 0)"/>
     <use xlink:href="#DejaVuSans-Bold-67" transform="translate(853.986328 0)"/>
    </g>
   </g>
   <g id="text_25">
    <!-- • -->
    <g style="fill: #4a78b5" transform="translate(538.416 334.175) scale(0.16 -0.16)">
     <use xlink:href="#DejaVuSans-Bold-2022"/>
    </g>
   </g>
   <g id="text_26">
    <!-- Restricted file -->
    <g style="fill: #111827" transform="translate(556.56 326.494539) scale(0.115 -0.115)">
     <defs>
      <path id="DejaVuSans-52" d="M 2841 2188 
Q 3044 2119 3236 1894 
Q 3428 1669 3622 1275 
L 4263 0 
L 3584 0 
L 2988 1197 
Q 2756 1666 2539 1819 
Q 2322 1972 1947 1972 
L 1259 1972 
L 1259 0 
L 628 0 
L 628 4666 
L 2053 4666 
Q 2853 4666 3247 4331 
Q 3641 3997 3641 3322 
Q 3641 2881 3436 2590 
Q 3231 2300 2841 2188 
z
M 1259 4147 
L 1259 2491 
L 2053 2491 
Q 2509 2491 2742 2702 
Q 2975 2913 2975 3322 
Q 2975 3731 2742 3939 
Q 2509 4147 2053 4147 
L 1259 4147 
z
" transform="scale(0.015625)"/>
     </defs>
     <use xlink:href="#DejaVuSans-52"/>
     <use xlink:href="#DejaVuSans-65" transform="translate(64.982422 0)"/>
     <use xlink:href="#DejaVuSans-73" transform="translate(126.505859 0)"/>
     <use xlink:href="#DejaVuSans-74" transform="translate(178.605469 0)"/>
     <use xlink:href="#DejaVuSans-72" transform="translate(217.814453 0)"/>
     <use xlink:href="#DejaVuSans-69" transform="translate(258.927734 0)"/>
     <use xlink:href="#DejaVuSans-63" transform="translate(286.710938 0)"/>
     <use xlink:href="#DejaVuSans-74" transform="translate(341.691406 0)"/>
     <use xlink:href="#DejaVuSans-65" transform="translate(380.900391 0)"/>
     <use xlink:href="#DejaVuSans-64" transform="translate(442.423828 0)"/>
     <use xlink:href="#DejaVuSans-20" transform="translate(505.900391 0)"/>
     <use xlink:href="#DejaVuSans-66" transform="translate(537.6875 0)"/>
     <use xlink:href="#DejaVuSans-69" transform="translate(572.892578 0)"/>
     <use xlink:href="#DejaVuSans-6c" transform="translate(600.675781 0)"/>
     <use xlink:href="#DejaVuSans-65" transform="translate(628.458984 0)"/>
    </g>
    <!-- access -->
    <g style="fill: #111827" transform="translate(556.56 339.372023) scale(0.115 -0.115)">
     <use xlink:href="#DejaVuSans-61"/>
     <use xlink:href="#DejaVuSans-63" transform="translate(61.279297 0)"/>
     <use xlink:href="#DejaVuSans-63" transform="translate(116.259766 0)"/>
     <use xlink:href="#DejaVuSans-65" transform="translate(171.240234 0)"/>
     <use xlink:href="#DejaVuSans-73" transform="translate(232.763672 0)"/>
     <use xlink:href="#DejaVuSans-73" transform="translate(284.863281 0)"/>
    </g>
   </g>
   <g id="text_27">
    <!-- • -->
    <g style="fill: #4a78b5" transform="translate(538.416 394.655) scale(0.16 -0.16)">
     <use xlink:href="#DejaVuSans-Bold-2022"/>
    </g>
   </g>
   <g id="text_28">
    <!-- Domain -->
    <g style="fill: #111827" transform="translate(556.56 386.974539) scale(0.115 -0.115)">
     <defs>
      <path id="DejaVuSans-44" d="M 1259 4147 
L 1259 519 
L 2022 519 
Q 2988 519 3436 956 
Q 3884 1394 3884 2338 
Q 3884 3275 3436 3711 
Q 2988 4147 2022 4147 
L 1259 4147 
z
M 628 4666 
L 1925 4666 
Q 3281 4666 3915 4102 
Q 4550 3538 4550 2338 
Q 4550 1131 3912 565 
Q 3275 0 1925 0 
L 628 0 
L 628 4666 
z
" transform="scale(0.015625)"/>
     </defs>
     <use xlink:href="#DejaVuSans-44"/>
     <use xlink:href="#DejaVuSans-6f" transform="translate(77.001953 0)"/>
     <use xlink:href="#DejaVuSans-6d" transform="translate(138.183594 0)"/>
     <use xlink:href="#DejaVuSans-61" transform="translate(235.595703 0)"/>
     <use xlink:href="#DejaVuSans-69" transform="translate(296.875 0)"/>
     <use xlink:href="#DejaVuSans-6e" transform="translate(324.658203 0)"/>
    </g>
    <!-- allowlists -->
    <g style="fill: #111827" transform="translate(556.56 399.852023) scale(0.115 -0.115)">
     <use xlink:href="#DejaVuSans-61"/>
     <use xlink:href="#DejaVuSans-6c" transform="translate(61.279297 0)"/>
     <use xlink:href="#DejaVuSans-6c" transform="translate(89.0625 0)"/>
     <use xlink:href="#DejaVuSans-6f" transform="translate(116.845703 0)"/>
     <use xlink:href="#DejaVuSans-77" transform="translate(178.027344 0)"/>
     <use xlink:href="#DejaVuSans-6c" transform="translate(259.814453 0)"/>
     <use xlink:href="#DejaVuSans-69" transform="translate(287.597656 0)"/>
     <use xlink:href="#DejaVuSans-73" transform="translate(315.380859 0)"/>
     <use xlink:href="#DejaVuSans-74" transform="translate(367.480469 0)"/>
     <use xlink:href="#DejaVuSans-73" transform="translate(406.689453 0)"/>
    </g>
   </g>
   <g id="text_29">
    <!-- • -->
    <g style="fill: #4a78b5" transform="translate(538.416 455.135) scale(0.16 -0.16)">
     <use xlink:href="#DejaVuSans-Bold-2022"/>
    </g>
   </g>
   <g id="text_30">
    <!-- Contained -->
    <g style="fill: #111827" transform="translate(556.56 447.454539) scale(0.115 -0.115)">
     <use xlink:href="#DejaVuSans-43"/>
     <use xlink:href="#DejaVuSans-6f" transform="translate(69.824219 0)"/>
     <use xlink:href="#DejaVuSans-6e" transform="translate(131.005859 0)"/>
     <use xlink:href="#DejaVuSans-74" transform="translate(194.384766 0)"/>
     <use xlink:href="#DejaVuSans-61" transform="translate(233.59375 0)"/>
     <use xlink:href="#DejaVuSans-69" transform="translate(294.873047 0)"/>
     <use xlink:href="#DejaVuSans-6e" transform="translate(322.65625 0)"/>
     <use xlink:href="#DejaVuSans-65" transform="translate(386.035156 0)"/>
     <use xlink:href="#DejaVuSans-64" transform="translate(447.558594 0)"/>
    </g>
    <!-- execution -->
    <g style="fill: #111827" transform="translate(556.56 460.332023) scale(0.115 -0.115)">
     <use xlink:href="#DejaVuSans-65"/>
     <use xlink:href="#DejaVuSans-78" transform="translate(59.773438 0)"/>
     <use xlink:href="#DejaVuSans-65" transform="translate(115.828125 0)"/>
     <use xlink:href="#DejaVuSans-63" transform="translate(177.351562 0)"/>
     <use xlink:href="#DejaVuSans-75" transform="translate(232.332031 0)"/>
     <use xlink:href="#DejaVuSans-74" transform="translate(295.710938 0)"/>
     <use xlink:href="#DejaVuSans-69" transform="translate(334.919922 0)"/>
     <use xlink:href="#DejaVuSans-6f" transform="translate(362.703125 0)"/>
     <use xlink:href="#DejaVuSans-6e" transform="translate(423.884766 0)"/>
    </g>
   </g>
   <g id="text_31">
    <!-- Identity &amp; -->
    <g style="fill: #1f365c" transform="translate(699.062563 249.730984) scale(0.145 -0.145)">
     <defs>
      <path id="DejaVuSans-Bold-26" d="M 2497 3097 
L 3775 1691 
Q 3941 1909 4027 2181 
Q 4113 2453 4128 2797 
L 5100 2797 
Q 5053 2228 4879 1784 
Q 4706 1341 4397 1006 
L 5313 0 
L 3988 0 
L 3681 341 
Q 3353 122 2990 15 
Q 2628 -91 2222 -91 
Q 1400 -91 892 342 
Q 384 775 384 1459 
Q 384 1916 607 2267 
Q 831 2619 1338 2950 
Q 1206 3116 1143 3281 
Q 1081 3447 1081 3628 
Q 1081 4138 1478 4444 
Q 1875 4750 2534 4750 
Q 2819 4750 3126 4704 
Q 3434 4659 3769 4569 
L 3769 3700 
Q 3475 3850 3212 3922 
Q 2950 3994 2700 3994 
Q 2459 3994 2326 3901 
Q 2194 3809 2194 3641 
Q 2194 3534 2270 3398 
Q 2347 3263 2497 3097 
z
M 1875 2322 
Q 1672 2175 1569 1989 
Q 1466 1803 1466 1581 
Q 1466 1222 1731 969 
Q 1997 716 2369 716 
Q 2578 716 2759 780 
Q 2941 844 3097 972 
L 1875 2322 
z
" transform="scale(0.015625)"/>
     </defs>
     <use xlink:href="#DejaVuSans-Bold-49"/>
     <use xlink:href="#DejaVuSans-Bold-64" transform="translate(37.207031 0)"/>
     <use xlink:href="#DejaVuSans-Bold-65" transform="translate(108.789062 0)"/>
     <use xlink:href="#DejaVuSans-Bold-6e" transform="translate(176.611328 0)"/>
     <use xlink:href="#DejaVuSans-Bold-74" transform="translate(247.802734 0)"/>
     <use xlink:href="#DejaVuSans-Bold-69" transform="translate(295.605469 0)"/>
     <use xlink:href="#DejaVuSans-Bold-74" transform="translate(329.882812 0)"/>
     <use xlink:href="#DejaVuSans-Bold-79" transform="translate(377.685547 0)"/>
     <use xlink:href="#DejaVuSans-Bold-20" transform="translate(442.871094 0)"/>
     <use xlink:href="#DejaVuSans-Bold-26" transform="translate(477.685547 0)"/>
    </g>
    <!-- Delegation -->
    <g style="fill: #1f365c" transform="translate(695.502133 266.081094) scale(0.145 -0.145)">
     <defs>
      <path id="DejaVuSans-Bold-44" d="M 1791 3756 
L 1791 909 
L 2222 909 
Q 2959 909 3348 1275 
Q 3738 1641 3738 2338 
Q 3738 3031 3350 3393 
Q 2963 3756 2222 3756 
L 1791 3756 
z
M 588 4666 
L 1856 4666 
Q 2919 4666 3439 4514 
Q 3959 4363 4331 4000 
Q 4659 3684 4818 3271 
Q 4978 2859 4978 2338 
Q 4978 1809 4818 1395 
Q 4659 981 4331 666 
Q 3956 303 3431 151 
Q 2906 0 1856 0 
L 588 0 
L 588 4666 
z
" transform="scale(0.015625)"/>
     </defs>
     <use xlink:href="#DejaVuSans-Bold-44"/>
     <use xlink:href="#DejaVuSans-Bold-65" transform="translate(83.007812 0)"/>
     <use xlink:href="#DejaVuSans-Bold-6c" transform="translate(150.830078 0)"/>
     <use xlink:href="#DejaVuSans-Bold-65" transform="translate(185.107422 0)"/>
     <use xlink:href="#DejaVuSans-Bold-67" transform="translate(252.929688 0)"/>
     <use xlink:href="#DejaVuSans-Bold-61" transform="translate(324.511719 0)"/>
     <use xlink:href="#DejaVuSans-Bold-74" transform="translate(391.992188 0)"/>
     <use xlink:href="#DejaVuSans-Bold-69" transform="translate(439.794922 0)"/>
     <use xlink:href="#DejaVuSans-Bold-6f" transform="translate(474.072266 0)"/>
     <use xlink:href="#DejaVuSans-Bold-6e" transform="translate(542.773438 0)"/>
    </g>
    <!-- Control -->
    <g style="fill: #1f365c" transform="translate(710.046313 282.431203) scale(0.145 -0.145)">
     <use xlink:href="#DejaVuSans-Bold-43"/>
     <use xlink:href="#DejaVuSans-Bold-6f" transform="translate(73.388672 0)"/>
     <use xlink:href="#DejaVuSans-Bold-6e" transform="translate(142.089844 0)"/>
     <use xlink:href="#DejaVuSans-Bold-74" transform="translate(213.28125 0)"/>
     <use xlink:href="#DejaVuSans-Bold-72" transform="translate(261.083984 0)"/>
     <use xlink:href="#DejaVuSans-Bold-6f" transform="translate(310.400391 0)"/>
     <use xlink:href="#DejaVuSans-Bold-6c" transform="translate(379.101562 0)"/>
    </g>
   </g>
   <g id="text_32">
    <!-- • -->
    <g style="fill: #4a78b5" transform="translate(690.96 334.175) scale(0.16 -0.16)">
     <use xlink:href="#DejaVuSans-Bold-2022"/>
    </g>
   </g>
   <g id="text_33">
    <!-- Task-bound -->
    <g style="fill: #111827" transform="translate(709.104 326.494539) scale(0.115 -0.115)">
     <use xlink:href="#DejaVuSans-54"/>
     <use xlink:href="#DejaVuSans-61" transform="translate(44.583984 0)"/>
     <use xlink:href="#DejaVuSans-73" transform="translate(105.863281 0)"/>
     <use xlink:href="#DejaVuSans-6b" transform="translate(157.962891 0)"/>
     <use xlink:href="#DejaVuSans-2d" transform="translate(215.873047 0)"/>
     <use xlink:href="#DejaVuSans-62" transform="translate(251.957031 0)"/>
     <use xlink:href="#DejaVuSans-6f" transform="translate(315.433594 0)"/>
     <use xlink:href="#DejaVuSans-75" transform="translate(376.615234 0)"/>
     <use xlink:href="#DejaVuSans-6e" transform="translate(439.994141 0)"/>
     <use xlink:href="#DejaVuSans-64" transform="translate(503.373047 0)"/>
    </g>
    <!-- tokens -->
    <g style="fill: #111827" transform="translate(709.104 339.372023) scale(0.115 -0.115)">
     <use xlink:href="#DejaVuSans-74"/>
     <use xlink:href="#DejaVuSans-6f" transform="translate(39.208984 0)"/>
     <use xlink:href="#DejaVuSans-6b" transform="translate(100.390625 0)"/>
     <use xlink:href="#DejaVuSans-65" transform="translate(154.675781 0)"/>
     <use xlink:href="#DejaVuSans-6e" transform="translate(216.199219 0)"/>
     <use xlink:href="#DejaVuSans-73" transform="translate(279.578125 0)"/>
    </g>
   </g>
   <g id="text_34">
    <!-- • -->
    <g style="fill: #4a78b5" transform="translate(690.96 394.655) scale(0.16 -0.16)">
     <use xlink:href="#DejaVuSans-Bold-2022"/>
    </g>
   </g>
   <g id="text_35">
    <!-- Attributable -->
    <g style="fill: #111827" transform="translate(709.104 386.974539) scale(0.115 -0.115)">
     <defs>
      <path id="DejaVuSans-41" d="M 2188 4044 
L 1331 1722 
L 3047 1722 
L 2188 4044 
z
M 1831 4666 
L 2547 4666 
L 4325 0 
L 3669 0 
L 3244 1197 
L 1141 1197 
L 716 0 
L 50 0 
L 1831 4666 
z
" transform="scale(0.015625)"/>
     </defs>
     <use xlink:href="#DejaVuSans-41"/>
     <use xlink:href="#DejaVuSans-74" transform="translate(66.658203 0)"/>
     <use xlink:href="#DejaVuSans-74" transform="translate(105.867188 0)"/>
     <use xlink:href="#DejaVuSans-72" transform="translate(145.076172 0)"/>
     <use xlink:href="#DejaVuSans-69" transform="translate(186.189453 0)"/>
     <use xlink:href="#DejaVuSans-62" transform="translate(213.972656 0)"/>
     <use xlink:href="#DejaVuSans-75" transform="translate(277.449219 0)"/>
     <use xlink:href="#DejaVuSans-74" transform="translate(340.828125 0)"/>
     <use xlink:href="#DejaVuSans-61" transform="translate(380.037109 0)"/>
     <use xlink:href="#DejaVuSans-62" transform="translate(441.316406 0)"/>
     <use xlink:href="#DejaVuSans-6c" transform="translate(504.792969 0)"/>
     <use xlink:href="#DejaVuSans-65" transform="translate(532.576172 0)"/>
    </g>
    <!-- actions -->
    <g style="fill: #111827" transform="translate(709.104 399.852023) scale(0.115 -0.115)">
     <use xlink:href="#DejaVuSans-61"/>
     <use xlink:href="#DejaVuSans-63" transform="translate(61.279297 0)"/>
     <use xlink:href="#DejaVuSans-74" transform="translate(116.259766 0)"/>
     <use xlink:href="#DejaVuSans-69" transform="translate(155.46875 0)"/>
     <use xlink:href="#DejaVuSans-6f" transform="translate(183.251953 0)"/>
     <use xlink:href="#DejaVuSans-6e" transform="translate(244.433594 0)"/>
     <use xlink:href="#DejaVuSans-73" transform="translate(307.8125 0)"/>
    </g>
   </g>
   <g id="text_36">
    <!-- • -->
    <g style="fill: #4a78b5" transform="translate(690.96 455.135) scale(0.16 -0.16)">
     <use xlink:href="#DejaVuSans-Bold-2022"/>
    </g>
   </g>
   <g id="text_37">
    <!-- Inter-agent -->
    <g style="fill: #111827" transform="translate(709.104 447.454539) scale(0.115 -0.115)">
     <defs>
      <path id="DejaVuSans-49" d="M 628 4666 
L 1259 4666 
L 1259 0 
L 628 0 
L 628 4666 
z
" transform="scale(0.015625)"/>
     </defs>
     <use xlink:href="#DejaVuSans-49"/>
     <use xlink:href="#DejaVuSans-6e" transform="translate(29.492188 0)"/>
     <use xlink:href="#DejaVuSans-74" transform="translate(92.871094 0)"/>
     <use xlink:href="#DejaVuSans-65" transform="translate(132.080078 0)"/>
     <use xlink:href="#DejaVuSans-72" transform="translate(193.603516 0)"/>
     <use xlink:href="#DejaVuSans-2d" transform="translate(228.341797 0)"/>
     <use xlink:href="#DejaVuSans-61" transform="translate(264.425781 0)"/>
     <use xlink:href="#DejaVuSans-67" transform="translate(325.705078 0)"/>
     <use xlink:href="#DejaVuSans-65" transform="translate(389.181641 0)"/>
     <use xlink:href="#DejaVuSans-6e" transform="translate(450.705078 0)"/>
     <use xlink:href="#DejaVuSans-74" transform="translate(514.083984 0)"/>
    </g>
    <!-- policy checks -->
    <g style="fill: #111827" transform="translate(709.104 460.332023) scale(0.115 -0.115)">
     <use xlink:href="#DejaVuSans-70"/>
     <use xlink:href="#DejaVuSans-6f" transform="translate(63.476562 0)"/>
     <use xlink:href="#DejaVuSans-6c" transform="translate(124.658203 0)"/>
     <use xlink:href="#DejaVuSans-69" transform="translate(152.441406 0)"/>
     <use xlink:href="#DejaVuSans-63" transform="translate(180.224609 0)"/>
     <use xlink:href="#DejaVuSans-79" transform="translate(235.205078 0)"/>
     <use xlink:href="#DejaVuSans-20" transform="translate(294.384766 0)"/>
     <use xlink:href="#DejaVuSans-63" transform="translate(326.171875 0)"/>
     <use xlink:href="#DejaVuSans-68" transform="translate(381.152344 0)"/>
     <use xlink:href="#DejaVuSans-65" transform="translate(444.53125 0)"/>
     <use xlink:href="#DejaVuSans-63" transform="translate(506.054688 0)"/>
     <use xlink:href="#DejaVuSans-6b" transform="translate(561.035156 0)"/>
     <use xlink:href="#DejaVuSans-73" transform="translate(618.945312 0)"/>
    </g>
   </g>
   <g id="text_38">
    <!-- Runtime Tracing -->
    <g style="fill: #1f365c" transform="translate(825.958555 257.906039) scale(0.145 -0.145)">
     <defs>
      <path id="DejaVuSans-Bold-52" d="M 2297 2597 
Q 2675 2597 2839 2737 
Q 3003 2878 3003 3200 
Q 3003 3519 2839 3656 
Q 2675 3794 2297 3794 
L 1791 3794 
L 1791 2597 
L 2297 2597 
z
M 1791 1766 
L 1791 0 
L 588 0 
L 588 4666 
L 2425 4666 
Q 3347 4666 3776 4356 
Q 4206 4047 4206 3378 
Q 4206 2916 3982 2619 
Q 3759 2322 3309 2181 
Q 3556 2125 3751 1926 
Q 3947 1728 4147 1325 
L 4800 0 
L 3519 0 
L 2950 1159 
Q 2778 1509 2601 1637 
Q 2425 1766 2131 1766 
L 1791 1766 
z
" transform="scale(0.015625)"/>
     </defs>
     <use xlink:href="#DejaVuSans-Bold-52"/>
     <use xlink:href="#DejaVuSans-Bold-75" transform="translate(77.001953 0)"/>
     <use xlink:href="#DejaVuSans-Bold-6e" transform="translate(148.193359 0)"/>
     <use xlink:href="#DejaVuSans-Bold-74" transform="translate(219.384766 0)"/>
     <use xlink:href="#DejaVuSans-Bold-69" transform="translate(267.1875 0)"/>
     <use xlink:href="#DejaVuSans-Bold-6d" transform="translate(301.464844 0)"/>
     <use xlink:href="#DejaVuSans-Bold-65" transform="translate(405.664062 0)"/>
     <use xlink:href="#DejaVuSans-Bold-20" transform="translate(473.486328 0)"/>
     <use xlink:href="#DejaVuSans-Bold-54" transform="translate(508.300781 0)"/>
     <use xlink:href="#DejaVuSans-Bold-72" transform="translate(565.513672 0)"/>
     <use xlink:href="#DejaVuSans-Bold-61" transform="translate(614.830078 0)"/>
     <use xlink:href="#DejaVuSans-Bold-63" transform="translate(682.310547 0)"/>
     <use xlink:href="#DejaVuSans-Bold-69" transform="translate(741.587891 0)"/>
     <use xlink:href="#DejaVuSans-Bold-6e" transform="translate(775.865234 0)"/>
     <use xlink:href="#DejaVuSans-Bold-67" transform="translate(847.056641 0)"/>
    </g>
    <!-- &amp; Kill Switches -->
    <g style="fill: #1f365c" transform="translate(831.554648 274.256148) scale(0.145 -0.145)">
     <defs>
      <path id="DejaVuSans-Bold-4b" d="M 588 4666 
L 1791 4666 
L 1791 2963 
L 3525 4666 
L 4922 4666 
L 2675 2456 
L 5153 0 
L 3647 0 
L 1791 1838 
L 1791 0 
L 588 0 
L 588 4666 
z
" transform="scale(0.015625)"/>
      <path id="DejaVuSans-Bold-77" d="M 225 3500 
L 1313 3500 
L 1900 1088 
L 2491 3500 
L 3425 3500 
L 4013 1113 
L 4603 3500 
L 5691 3500 
L 4769 0 
L 3547 0 
L 2956 2406 
L 2369 0 
L 1147 0 
L 225 3500 
z
" transform="scale(0.015625)"/>
      <path id="DejaVuSans-Bold-68" d="M 4056 2131 
L 4056 0 
L 2931 0 
L 2931 347 
L 2931 1625 
Q 2931 2084 2911 2256 
Q 2891 2428 2841 2509 
Q 2775 2619 2662 2680 
Q 2550 2741 2406 2741 
Q 2056 2741 1856 2470 
Q 1656 2200 1656 1722 
L 1656 0 
L 538 0 
L 538 4863 
L 1656 4863 
L 1656 2988 
Q 1909 3294 2193 3439 
Q 2478 3584 2822 3584 
Q 3428 3584 3742 3212 
Q 4056 2841 4056 2131 
z
" transform="scale(0.015625)"/>
     </defs>
     <use xlink:href="#DejaVuSans-Bold-26"/>
     <use xlink:href="#DejaVuSans-Bold-20" transform="translate(87.207031 0)"/>
     <use xlink:href="#DejaVuSans-Bold-4b" transform="translate(122.021484 0)"/>
     <use xlink:href="#DejaVuSans-Bold-69" transform="translate(199.511719 0)"/>
     <use xlink:href="#DejaVuSans-Bold-6c" transform="translate(233.789062 0)"/>
     <use xlink:href="#DejaVuSans-Bold-6c" transform="translate(268.066406 0)"/>
     <use xlink:href="#DejaVuSans-Bold-20" transform="translate(302.34375 0)"/>
     <use xlink:href="#DejaVuSans-Bold-53" transform="translate(337.158203 0)"/>
     <use xlink:href="#DejaVuSans-Bold-77" transform="translate(409.179688 0)"/>
     <use xlink:href="#DejaVuSans-Bold-69" transform="translate(501.5625 0)"/>
     <use xlink:href="#DejaVuSans-Bold-74" transform="translate(535.839844 0)"/>
     <use xlink:href="#DejaVuSans-Bold-63" transform="translate(583.642578 0)"/>
     <use xlink:href="#DejaVuSans-Bold-68" transform="translate(642.919922 0)"/>
     <use xlink:href="#DejaVuSans-Bold-65" transform="translate(714.111328 0)"/>
     <use xlink:href="#DejaVuSans-Bold-73" transform="translate(781.933594 0)"/>
    </g>
   </g>
   <g id="text_39">
    <!-- • -->
    <g style="fill: #4a78b5" transform="translate(843.504 334.175) scale(0.16 -0.16)">
     <use xlink:href="#DejaVuSans-Bold-2022"/>
    </g>
   </g>
   <g id="text_40">
    <!-- Action logs -->
    <g style="fill: #111827" transform="translate(861.648 332.933281) scale(0.115 -0.115)">
     <use xlink:href="#DejaVuSans-41"/>
     <use xlink:href="#DejaVuSans-63" transform="translate(66.658203 0)"/>
     <use xlink:href="#DejaVuSans-74" transform="translate(121.638672 0)"/>
     <use xlink:href="#DejaVuSans-69" transform="translate(160.847656 0)"/>
     <use xlink:href="#DejaVuSans-6f" transform="translate(188.630859 0)"/>
     <use xlink:href="#DejaVuSans-6e" transform="translate(249.8125 0)"/>
     <use xlink:href="#DejaVuSans-20" transform="translate(313.191406 0)"/>
     <use xlink:href="#DejaVuSans-6c" transform="translate(344.978516 0)"/>
     <use xlink:href="#DejaVuSans-6f" transform="translate(372.761719 0)"/>
     <use xlink:href="#DejaVuSans-67" transform="translate(433.943359 0)"/>
     <use xlink:href="#DejaVuSans-73" transform="translate(497.419922 0)"/>
    </g>
   </g>
   <g id="text_41">
    <!-- • -->
    <g style="fill: #4a78b5" transform="translate(843.504 394.655) scale(0.16 -0.16)">
     <use xlink:href="#DejaVuSans-Bold-2022"/>
    </g>
   </g>
   <g id="text_42">
    <!-- Anomaly alerts -->
    <g style="fill: #111827" transform="translate(861.648 393.413281) scale(0.115 -0.115)">
     <use xlink:href="#DejaVuSans-41"/>
     <use xlink:href="#DejaVuSans-6e" transform="translate(68.408203 0)"/>
     <use xlink:href="#DejaVuSans-6f" transform="translate(131.787109 0)"/>
     <use xlink:href="#DejaVuSans-6d" transform="translate(192.96875 0)"/>
     <use xlink:href="#DejaVuSans-61" transform="translate(290.380859 0)"/>
     <use xlink:href="#DejaVuSans-6c" transform="translate(351.660156 0)"/>
     <use xlink:href="#DejaVuSans-79" transform="translate(379.443359 0)"/>
     <use xlink:href="#DejaVuSans-20" transform="translate(438.623047 0)"/>
     <use xlink:href="#DejaVuSans-61" transform="translate(470.410156 0)"/>
     <use xlink:href="#DejaVuSans-6c" transform="translate(531.689453 0)"/>
     <use xlink:href="#DejaVuSans-65" transform="translate(559.472656 0)"/>
     <use xlink:href="#DejaVuSans-72" transform="translate(620.996094 0)"/>
     <use xlink:href="#DejaVuSans-74" transform="translate(662.109375 0)"/>
     <use xlink:href="#DejaVuSans-73" transform="translate(701.318359 0)"/>
    </g>
   </g>
   <g id="text_43">
    <!-- • -->
    <g style="fill: #4a78b5" transform="translate(843.504 455.135) scale(0.16 -0.16)">
     <use xlink:href="#DejaVuSans-Bold-2022"/>
    </g>
   </g>
   <g id="text_44">
    <!-- Emergency stop -->
    <g style="fill: #111827" transform="translate(861.648 447.454539) scale(0.115 -0.115)">
     <use xlink:href="#DejaVuSans-45"/>
     <use xlink:href="#DejaVuSans-6d" transform="translate(63.183594 0)"/>
     <use xlink:href="#DejaVuSans-65" transform="translate(160.595703 0)"/>
     <use xlink:href="#DejaVuSans-72" transform="translate(222.119141 0)"/>
     <use xlink:href="#DejaVuSans-67" transform="translate(261.482422 0)"/>
     <use xlink:href="#DejaVuSans-65" transform="translate(324.958984 0)"/>
     <use xlink:href="#DejaVuSans-6e" transform="translate(386.482422 0)"/>
     <use xlink:href="#DejaVuSans-63" transform="translate(449.861328 0)"/>
     <use xlink:href="#DejaVuSans-79" transform="translate(504.841797 0)"/>
     <use xlink:href="#DejaVuSans-20" transform="translate(564.021484 0)"/>
     <use xlink:href="#DejaVuSans-73" transform="translate(595.808594 0)"/>
     <use xlink:href="#DejaVuSans-74" transform="translate(647.908203 0)"/>
     <use xlink:href="#DejaVuSans-6f" transform="translate(687.117188 0)"/>
     <use xlink:href="#DejaVuSans-70" transform="translate(748.298828 0)"/>
    </g>
    <!-- and rollback -->
    <g style="fill: #111827" transform="translate(861.648 460.332023) scale(0.115 -0.115)">
     <use xlink:href="#DejaVuSans-61"/>
     <use xlink:href="#DejaVuSans-6e" transform="translate(61.279297 0)"/>
     <use xlink:href="#DejaVuSans-64" transform="translate(124.658203 0)"/>
     <use xlink:href="#DejaVuSans-20" transform="translate(188.134766 0)"/>
     <use xlink:href="#DejaVuSans-72" transform="translate(219.921875 0)"/>
     <use xlink:href="#DejaVuSans-6f" transform="translate(258.785156 0)"/>
     <use xlink:href="#DejaVuSans-6c" transform="translate(319.966797 0)"/>
     <use xlink:href="#DejaVuSans-6c" transform="translate(347.75 0)"/>
     <use xlink:href="#DejaVuSans-62" transform="translate(375.533203 0)"/>
     <use xlink:href="#DejaVuSans-61" transform="translate(439.009766 0)"/>
     <use xlink:href="#DejaVuSans-63" transform="translate(500.289062 0)"/>
     <use xlink:href="#DejaVuSans-6b" transform="translate(555.269531 0)"/>
    </g>
   </g>
  </g>
 </g>
 <defs>
  <clipPath id="pff62787e7f">
   <rect x="7.2" y="7.2" width="1008" height="576"/>
  </clipPath>
 </defs>
</svg>
