<svg xmlns="http://www.w3.org/2000/svg" width="1200" height="750" viewBox="0 0 1200 750" fill="none">
<defs><linearGradient id="bg" x1="0" y1="0" x2="1200" y2="750" gradientUnits="userSpaceOnUse"><stop stop-color="#1A2A43"/><stop offset="1" stop-color="#274269"/></linearGradient><linearGradient id="acc" x1="180" y1="150" x2="1020" y2="610" gradientUnits="userSpaceOnUse"><stop stop-color="#8CC4FF"/><stop offset="0.55" stop-color="#91A0FF"/><stop offset="1" stop-color="#54D9CA"/></linearGradient></defs>
<rect width="1200" height="750" rx="40" fill="url(#bg)"/>
<g opacity="0.16"><circle cx="190" cy="110" r="120" fill="#8CC4FF"/><circle cx="1010" cy="645" r="120" fill="#54D9CA"/></g>
<rect x="150" y="120" width="900" height="500" rx="28" fill="#30486E" stroke="#DCE8F9" stroke-opacity="0.18"/>
<rect x="240" y="215" width="720" height="270" rx="22" fill="#1F314E" stroke="#8CC4FF" stroke-opacity="0.35"/>
<rect x="300" y="275" width="140" height="150" rx="16" fill="#38567F"/><rect x="460" y="275" width="140" height="150" rx="16" fill="#38567F"/><rect x="620" y="275" width="140" height="150" rx="16" fill="#38567F"/><rect x="780" y="275" width="120" height="150" rx="16" fill="#38567F"/>
<path d="M210 170H990" stroke="url(#acc)" stroke-width="10" stroke-linecap="round"/>
<path d="M600 170V580" stroke="#8CC4FF" stroke-opacity="0.28" stroke-width="4" stroke-dasharray="10 12"/>
<rect x="235" y="520" width="210" height="60" rx="18" fill="#20324E" stroke="#54D9CA" stroke-opacity="0.35"/><rect x="495" y="520" width="210" height="60" rx="18" fill="#20324E" stroke="#8CC4FF" stroke-opacity="0.35"/><rect x="755" y="520" width="210" height="60" rx="18" fill="#20324E" stroke="#F4C36D" stroke-opacity="0.45"/>
<text x="600" y="95" fill="#F7FBFF" font-size="40" font-family="Inter, Arial, sans-serif" font-weight="700" text-anchor="middle">AI Accelerator Security</text>
<text x="600" y="200" fill="#D7E2F1" font-size="25" font-family="Inter, Arial, sans-serif" text-anchor="middle">Tensor engines • On-chip memory • DMA • Observability • Protection</text>
<text x="370" y="355" fill="#F7FBFF" font-size="24" font-family="Inter, Arial, sans-serif" font-weight="600" text-anchor="middle">MAC Array</text>
<text x="530" y="355" fill="#F7FBFF" font-size="24" font-family="Inter, Arial, sans-serif" font-weight="600" text-anchor="middle">Local SRAM</text>
<text x="690" y="355" fill="#F7FBFF" font-size="24" font-family="Inter, Arial, sans-serif" font-weight="600" text-anchor="middle">DMA</text>
<text x="840" y="355" fill="#F7FBFF" font-size="24" font-family="Inter, Arial, sans-serif" font-weight="600" text-anchor="middle">Runtime</text>
<text x="340" y="558" fill="#D7E2F1" font-size="23" font-family="Inter, Arial, sans-serif" text-anchor="middle">Leakage paths</text>
<text x="600" y="558" fill="#D7E2F1" font-size="23" font-family="Inter, Arial, sans-serif" text-anchor="middle">Fault surfaces</text>
<text x="860" y="558" fill="#D7E2F1" font-size="23" font-family="Inter, Arial, sans-serif" text-anchor="middle">Trust boundaries</text>
</svg>