<svg xmlns="http://www.w3.org/2000/svg" width="1200" height="750" viewBox="0 0 1200 750" fill="none">
<defs><linearGradient id="bg" x1="0" y1="0" x2="1200" y2="750" gradientUnits="userSpaceOnUse"><stop stop-color="#1B2C45"/><stop offset="1" stop-color="#264168"/></linearGradient><linearGradient id="line" x1="210" y1="540" x2="990" y2="540" gradientUnits="userSpaceOnUse"><stop stop-color="#8CC4FF"/><stop offset="0.55" stop-color="#A18EFF"/><stop offset="1" stop-color="#54D9CA"/></linearGradient></defs>
<rect width="1200" height="750" rx="40" fill="url(#bg)"/>
<rect x="120" y="115" width="960" height="520" rx="28" fill="#30486E" stroke="#DCE8F9" stroke-opacity="0.18"/>
<text x="600" y="95" fill="#F7FBFF" font-size="40" font-family="Inter, Arial, sans-serif" font-weight="700" text-anchor="middle">Side-channel &amp; Fault Analysis</text>
<text x="600" y="160" fill="#D7E2F1" font-size="25" font-family="Inter, Arial, sans-serif" text-anchor="middle">Measurement-driven attacks and defenses for real AI hardware</text>
<rect x="190" y="230" width="250" height="220" rx="22" fill="#21334F" stroke="#8CC4FF" stroke-opacity="0.35"/>
<rect x="475" y="230" width="250" height="220" rx="22" fill="#21334F" stroke="#A18EFF" stroke-opacity="0.35"/>
<rect x="760" y="230" width="250" height="220" rx="22" fill="#21334F" stroke="#54D9CA" stroke-opacity="0.35"/>
<path d="M230 385C270 325 320 455 360 355C400 255 445 410 485 320C530 220 575 410 620 305" stroke="#8CC4FF" stroke-width="7" stroke-linecap="round" stroke-linejoin="round"/>
<path d="M525 390L565 330L600 390L650 285L685 390" stroke="#A18EFF" stroke-width="7" stroke-linecap="round" stroke-linejoin="round"/>
<path d="M805 320H925" stroke="#54D9CA" stroke-width="8" stroke-linecap="round"/><path d="M835 290V350" stroke="#54D9CA" stroke-width="8" stroke-linecap="round"/><path d="M895 280L940 355" stroke="#54D9CA" stroke-width="8" stroke-linecap="round"/>
<text x="315" y="275" fill="#F7FBFF" font-size="24" font-family="Inter, Arial, sans-serif" font-weight="600" text-anchor="middle">Power / EM</text>
<text x="600" y="275" fill="#F7FBFF" font-size="24" font-family="Inter, Arial, sans-serif" font-weight="600" text-anchor="middle">Timing / Glitching</text>
<text x="885" y="275" fill="#F7FBFF" font-size="24" font-family="Inter, Arial, sans-serif" font-weight="600" text-anchor="middle">Mitigation loops</text>
<path d="M200 540H1000" stroke="url(#line)" stroke-width="10" stroke-linecap="round"/>
<circle cx="270" cy="540" r="12" fill="#8CC4FF"/><circle cx="470" cy="540" r="12" fill="#9D93FF"/><circle cx="670" cy="540" r="12" fill="#54D9CA"/><circle cx="870" cy="540" r="12" fill="#F4C36D"/>
<text x="270" y="585" fill="#D7E2F1" font-size="22" font-family="Inter, Arial, sans-serif" text-anchor="middle">Capture</text>
<text x="470" y="585" fill="#D7E2F1" font-size="22" font-family="Inter, Arial, sans-serif" text-anchor="middle">Profile</text>
<text x="670" y="585" fill="#D7E2F1" font-size="22" font-family="Inter, Arial, sans-serif" text-anchor="middle">Perturb</text>
<text x="870" y="585" fill="#D7E2F1" font-size="22" font-family="Inter, Arial, sans-serif" text-anchor="middle">Harden</text>
</svg>